G04 #@! TF.GenerationSoftware,KiCad,Pcbnew,(5.1.5)-3*
G04 #@! TF.CreationDate,2020-06-01T21:11:24-07:00*
G04 #@! TF.ProjectId,MTTP Charge Controller,4d545450-2043-4686-9172-676520436f6e,rev?*
G04 #@! TF.SameCoordinates,Original*
G04 #@! TF.FileFunction,Paste,Top*
G04 #@! TF.FilePolarity,Positive*
%FSLAX46Y46*%
G04 Gerber Fmt 4.6, Leading zero omitted, Abs format (unit mm)*
G04 Created by KiCad (PCBNEW (5.1.5)-3) date 2020-06-01 21:11:24*
%MOMM*%
%LPD*%
G04 APERTURE LIST*
%ADD10C,0.100000*%
%ADD11R,1.981200X0.558800*%
G04 APERTURE END LIST*
D10*
G36*
X59279504Y-59456204D02*
G01*
X59303773Y-59459804D01*
X59327571Y-59465765D01*
X59350671Y-59474030D01*
X59372849Y-59484520D01*
X59393893Y-59497133D01*
X59413598Y-59511747D01*
X59431777Y-59528223D01*
X59448253Y-59546402D01*
X59462867Y-59566107D01*
X59475480Y-59587151D01*
X59485970Y-59609329D01*
X59494235Y-59632429D01*
X59500196Y-59656227D01*
X59503796Y-59680496D01*
X59505000Y-59705000D01*
X59505000Y-60455000D01*
X59503796Y-60479504D01*
X59500196Y-60503773D01*
X59494235Y-60527571D01*
X59485970Y-60550671D01*
X59475480Y-60572849D01*
X59462867Y-60593893D01*
X59448253Y-60613598D01*
X59431777Y-60631777D01*
X59413598Y-60648253D01*
X59393893Y-60662867D01*
X59372849Y-60675480D01*
X59350671Y-60685970D01*
X59327571Y-60694235D01*
X59303773Y-60700196D01*
X59279504Y-60703796D01*
X59255000Y-60705000D01*
X58005000Y-60705000D01*
X57980496Y-60703796D01*
X57956227Y-60700196D01*
X57932429Y-60694235D01*
X57909329Y-60685970D01*
X57887151Y-60675480D01*
X57866107Y-60662867D01*
X57846402Y-60648253D01*
X57828223Y-60631777D01*
X57811747Y-60613598D01*
X57797133Y-60593893D01*
X57784520Y-60572849D01*
X57774030Y-60550671D01*
X57765765Y-60527571D01*
X57759804Y-60503773D01*
X57756204Y-60479504D01*
X57755000Y-60455000D01*
X57755000Y-59705000D01*
X57756204Y-59680496D01*
X57759804Y-59656227D01*
X57765765Y-59632429D01*
X57774030Y-59609329D01*
X57784520Y-59587151D01*
X57797133Y-59566107D01*
X57811747Y-59546402D01*
X57828223Y-59528223D01*
X57846402Y-59511747D01*
X57866107Y-59497133D01*
X57887151Y-59484520D01*
X57909329Y-59474030D01*
X57932429Y-59465765D01*
X57956227Y-59459804D01*
X57980496Y-59456204D01*
X58005000Y-59455000D01*
X59255000Y-59455000D01*
X59279504Y-59456204D01*
G37*
G36*
X59279504Y-56656204D02*
G01*
X59303773Y-56659804D01*
X59327571Y-56665765D01*
X59350671Y-56674030D01*
X59372849Y-56684520D01*
X59393893Y-56697133D01*
X59413598Y-56711747D01*
X59431777Y-56728223D01*
X59448253Y-56746402D01*
X59462867Y-56766107D01*
X59475480Y-56787151D01*
X59485970Y-56809329D01*
X59494235Y-56832429D01*
X59500196Y-56856227D01*
X59503796Y-56880496D01*
X59505000Y-56905000D01*
X59505000Y-57655000D01*
X59503796Y-57679504D01*
X59500196Y-57703773D01*
X59494235Y-57727571D01*
X59485970Y-57750671D01*
X59475480Y-57772849D01*
X59462867Y-57793893D01*
X59448253Y-57813598D01*
X59431777Y-57831777D01*
X59413598Y-57848253D01*
X59393893Y-57862867D01*
X59372849Y-57875480D01*
X59350671Y-57885970D01*
X59327571Y-57894235D01*
X59303773Y-57900196D01*
X59279504Y-57903796D01*
X59255000Y-57905000D01*
X58005000Y-57905000D01*
X57980496Y-57903796D01*
X57956227Y-57900196D01*
X57932429Y-57894235D01*
X57909329Y-57885970D01*
X57887151Y-57875480D01*
X57866107Y-57862867D01*
X57846402Y-57848253D01*
X57828223Y-57831777D01*
X57811747Y-57813598D01*
X57797133Y-57793893D01*
X57784520Y-57772849D01*
X57774030Y-57750671D01*
X57765765Y-57727571D01*
X57759804Y-57703773D01*
X57756204Y-57679504D01*
X57755000Y-57655000D01*
X57755000Y-56905000D01*
X57756204Y-56880496D01*
X57759804Y-56856227D01*
X57765765Y-56832429D01*
X57774030Y-56809329D01*
X57784520Y-56787151D01*
X57797133Y-56766107D01*
X57811747Y-56746402D01*
X57828223Y-56728223D01*
X57846402Y-56711747D01*
X57866107Y-56697133D01*
X57887151Y-56684520D01*
X57909329Y-56674030D01*
X57932429Y-56665765D01*
X57956227Y-56659804D01*
X57980496Y-56656204D01*
X58005000Y-56655000D01*
X59255000Y-56655000D01*
X59279504Y-56656204D01*
G37*
G36*
X87135642Y-94297174D02*
G01*
X87159303Y-94300684D01*
X87182507Y-94306496D01*
X87205029Y-94314554D01*
X87226653Y-94324782D01*
X87247170Y-94337079D01*
X87266383Y-94351329D01*
X87284107Y-94367393D01*
X87300171Y-94385117D01*
X87314421Y-94404330D01*
X87326718Y-94424847D01*
X87336946Y-94446471D01*
X87345004Y-94468993D01*
X87350816Y-94492197D01*
X87354326Y-94515858D01*
X87355500Y-94539750D01*
X87355500Y-95452250D01*
X87354326Y-95476142D01*
X87350816Y-95499803D01*
X87345004Y-95523007D01*
X87336946Y-95545529D01*
X87326718Y-95567153D01*
X87314421Y-95587670D01*
X87300171Y-95606883D01*
X87284107Y-95624607D01*
X87266383Y-95640671D01*
X87247170Y-95654921D01*
X87226653Y-95667218D01*
X87205029Y-95677446D01*
X87182507Y-95685504D01*
X87159303Y-95691316D01*
X87135642Y-95694826D01*
X87111750Y-95696000D01*
X86624250Y-95696000D01*
X86600358Y-95694826D01*
X86576697Y-95691316D01*
X86553493Y-95685504D01*
X86530971Y-95677446D01*
X86509347Y-95667218D01*
X86488830Y-95654921D01*
X86469617Y-95640671D01*
X86451893Y-95624607D01*
X86435829Y-95606883D01*
X86421579Y-95587670D01*
X86409282Y-95567153D01*
X86399054Y-95545529D01*
X86390996Y-95523007D01*
X86385184Y-95499803D01*
X86381674Y-95476142D01*
X86380500Y-95452250D01*
X86380500Y-94539750D01*
X86381674Y-94515858D01*
X86385184Y-94492197D01*
X86390996Y-94468993D01*
X86399054Y-94446471D01*
X86409282Y-94424847D01*
X86421579Y-94404330D01*
X86435829Y-94385117D01*
X86451893Y-94367393D01*
X86469617Y-94351329D01*
X86488830Y-94337079D01*
X86509347Y-94324782D01*
X86530971Y-94314554D01*
X86553493Y-94306496D01*
X86576697Y-94300684D01*
X86600358Y-94297174D01*
X86624250Y-94296000D01*
X87111750Y-94296000D01*
X87135642Y-94297174D01*
G37*
G36*
X85260642Y-94297174D02*
G01*
X85284303Y-94300684D01*
X85307507Y-94306496D01*
X85330029Y-94314554D01*
X85351653Y-94324782D01*
X85372170Y-94337079D01*
X85391383Y-94351329D01*
X85409107Y-94367393D01*
X85425171Y-94385117D01*
X85439421Y-94404330D01*
X85451718Y-94424847D01*
X85461946Y-94446471D01*
X85470004Y-94468993D01*
X85475816Y-94492197D01*
X85479326Y-94515858D01*
X85480500Y-94539750D01*
X85480500Y-95452250D01*
X85479326Y-95476142D01*
X85475816Y-95499803D01*
X85470004Y-95523007D01*
X85461946Y-95545529D01*
X85451718Y-95567153D01*
X85439421Y-95587670D01*
X85425171Y-95606883D01*
X85409107Y-95624607D01*
X85391383Y-95640671D01*
X85372170Y-95654921D01*
X85351653Y-95667218D01*
X85330029Y-95677446D01*
X85307507Y-95685504D01*
X85284303Y-95691316D01*
X85260642Y-95694826D01*
X85236750Y-95696000D01*
X84749250Y-95696000D01*
X84725358Y-95694826D01*
X84701697Y-95691316D01*
X84678493Y-95685504D01*
X84655971Y-95677446D01*
X84634347Y-95667218D01*
X84613830Y-95654921D01*
X84594617Y-95640671D01*
X84576893Y-95624607D01*
X84560829Y-95606883D01*
X84546579Y-95587670D01*
X84534282Y-95567153D01*
X84524054Y-95545529D01*
X84515996Y-95523007D01*
X84510184Y-95499803D01*
X84506674Y-95476142D01*
X84505500Y-95452250D01*
X84505500Y-94539750D01*
X84506674Y-94515858D01*
X84510184Y-94492197D01*
X84515996Y-94468993D01*
X84524054Y-94446471D01*
X84534282Y-94424847D01*
X84546579Y-94404330D01*
X84560829Y-94385117D01*
X84576893Y-94367393D01*
X84594617Y-94351329D01*
X84613830Y-94337079D01*
X84634347Y-94324782D01*
X84655971Y-94314554D01*
X84678493Y-94306496D01*
X84701697Y-94300684D01*
X84725358Y-94297174D01*
X84749250Y-94296000D01*
X85236750Y-94296000D01*
X85260642Y-94297174D01*
G37*
G36*
X100634504Y-53851204D02*
G01*
X100658773Y-53854804D01*
X100682571Y-53860765D01*
X100705671Y-53869030D01*
X100727849Y-53879520D01*
X100748893Y-53892133D01*
X100768598Y-53906747D01*
X100786777Y-53923223D01*
X100803253Y-53941402D01*
X100817867Y-53961107D01*
X100830480Y-53982151D01*
X100840970Y-54004329D01*
X100849235Y-54027429D01*
X100855196Y-54051227D01*
X100858796Y-54075496D01*
X100860000Y-54100000D01*
X100860000Y-57100000D01*
X100858796Y-57124504D01*
X100855196Y-57148773D01*
X100849235Y-57172571D01*
X100840970Y-57195671D01*
X100830480Y-57217849D01*
X100817867Y-57238893D01*
X100803253Y-57258598D01*
X100786777Y-57276777D01*
X100768598Y-57293253D01*
X100748893Y-57307867D01*
X100727849Y-57320480D01*
X100705671Y-57330970D01*
X100682571Y-57339235D01*
X100658773Y-57345196D01*
X100634504Y-57348796D01*
X100610000Y-57350000D01*
X99510000Y-57350000D01*
X99485496Y-57348796D01*
X99461227Y-57345196D01*
X99437429Y-57339235D01*
X99414329Y-57330970D01*
X99392151Y-57320480D01*
X99371107Y-57307867D01*
X99351402Y-57293253D01*
X99333223Y-57276777D01*
X99316747Y-57258598D01*
X99302133Y-57238893D01*
X99289520Y-57217849D01*
X99279030Y-57195671D01*
X99270765Y-57172571D01*
X99264804Y-57148773D01*
X99261204Y-57124504D01*
X99260000Y-57100000D01*
X99260000Y-54100000D01*
X99261204Y-54075496D01*
X99264804Y-54051227D01*
X99270765Y-54027429D01*
X99279030Y-54004329D01*
X99289520Y-53982151D01*
X99302133Y-53961107D01*
X99316747Y-53941402D01*
X99333223Y-53923223D01*
X99351402Y-53906747D01*
X99371107Y-53892133D01*
X99392151Y-53879520D01*
X99414329Y-53869030D01*
X99437429Y-53860765D01*
X99461227Y-53854804D01*
X99485496Y-53851204D01*
X99510000Y-53850000D01*
X100610000Y-53850000D01*
X100634504Y-53851204D01*
G37*
G36*
X100634504Y-59451204D02*
G01*
X100658773Y-59454804D01*
X100682571Y-59460765D01*
X100705671Y-59469030D01*
X100727849Y-59479520D01*
X100748893Y-59492133D01*
X100768598Y-59506747D01*
X100786777Y-59523223D01*
X100803253Y-59541402D01*
X100817867Y-59561107D01*
X100830480Y-59582151D01*
X100840970Y-59604329D01*
X100849235Y-59627429D01*
X100855196Y-59651227D01*
X100858796Y-59675496D01*
X100860000Y-59700000D01*
X100860000Y-62700000D01*
X100858796Y-62724504D01*
X100855196Y-62748773D01*
X100849235Y-62772571D01*
X100840970Y-62795671D01*
X100830480Y-62817849D01*
X100817867Y-62838893D01*
X100803253Y-62858598D01*
X100786777Y-62876777D01*
X100768598Y-62893253D01*
X100748893Y-62907867D01*
X100727849Y-62920480D01*
X100705671Y-62930970D01*
X100682571Y-62939235D01*
X100658773Y-62945196D01*
X100634504Y-62948796D01*
X100610000Y-62950000D01*
X99510000Y-62950000D01*
X99485496Y-62948796D01*
X99461227Y-62945196D01*
X99437429Y-62939235D01*
X99414329Y-62930970D01*
X99392151Y-62920480D01*
X99371107Y-62907867D01*
X99351402Y-62893253D01*
X99333223Y-62876777D01*
X99316747Y-62858598D01*
X99302133Y-62838893D01*
X99289520Y-62817849D01*
X99279030Y-62795671D01*
X99270765Y-62772571D01*
X99264804Y-62748773D01*
X99261204Y-62724504D01*
X99260000Y-62700000D01*
X99260000Y-59700000D01*
X99261204Y-59675496D01*
X99264804Y-59651227D01*
X99270765Y-59627429D01*
X99279030Y-59604329D01*
X99289520Y-59582151D01*
X99302133Y-59561107D01*
X99316747Y-59541402D01*
X99333223Y-59523223D01*
X99351402Y-59506747D01*
X99371107Y-59492133D01*
X99392151Y-59479520D01*
X99414329Y-59469030D01*
X99437429Y-59460765D01*
X99461227Y-59454804D01*
X99485496Y-59451204D01*
X99510000Y-59450000D01*
X100610000Y-59450000D01*
X100634504Y-59451204D01*
G37*
G36*
X113690504Y-94809204D02*
G01*
X113714773Y-94812804D01*
X113738571Y-94818765D01*
X113761671Y-94827030D01*
X113783849Y-94837520D01*
X113804893Y-94850133D01*
X113824598Y-94864747D01*
X113842777Y-94881223D01*
X113859253Y-94899402D01*
X113873867Y-94919107D01*
X113886480Y-94940151D01*
X113896970Y-94962329D01*
X113905235Y-94985429D01*
X113911196Y-95009227D01*
X113914796Y-95033496D01*
X113916000Y-95058000D01*
X113916000Y-96458000D01*
X113914796Y-96482504D01*
X113911196Y-96506773D01*
X113905235Y-96530571D01*
X113896970Y-96553671D01*
X113886480Y-96575849D01*
X113873867Y-96596893D01*
X113859253Y-96616598D01*
X113842777Y-96634777D01*
X113824598Y-96651253D01*
X113804893Y-96665867D01*
X113783849Y-96678480D01*
X113761671Y-96688970D01*
X113738571Y-96697235D01*
X113714773Y-96703196D01*
X113690504Y-96706796D01*
X113666000Y-96708000D01*
X110016000Y-96708000D01*
X109991496Y-96706796D01*
X109967227Y-96703196D01*
X109943429Y-96697235D01*
X109920329Y-96688970D01*
X109898151Y-96678480D01*
X109877107Y-96665867D01*
X109857402Y-96651253D01*
X109839223Y-96634777D01*
X109822747Y-96616598D01*
X109808133Y-96596893D01*
X109795520Y-96575849D01*
X109785030Y-96553671D01*
X109776765Y-96530571D01*
X109770804Y-96506773D01*
X109767204Y-96482504D01*
X109766000Y-96458000D01*
X109766000Y-95058000D01*
X109767204Y-95033496D01*
X109770804Y-95009227D01*
X109776765Y-94985429D01*
X109785030Y-94962329D01*
X109795520Y-94940151D01*
X109808133Y-94919107D01*
X109822747Y-94899402D01*
X109839223Y-94881223D01*
X109857402Y-94864747D01*
X109877107Y-94850133D01*
X109898151Y-94837520D01*
X109920329Y-94827030D01*
X109943429Y-94818765D01*
X109967227Y-94812804D01*
X109991496Y-94809204D01*
X110016000Y-94808000D01*
X113666000Y-94808000D01*
X113690504Y-94809204D01*
G37*
G36*
X120640504Y-94809204D02*
G01*
X120664773Y-94812804D01*
X120688571Y-94818765D01*
X120711671Y-94827030D01*
X120733849Y-94837520D01*
X120754893Y-94850133D01*
X120774598Y-94864747D01*
X120792777Y-94881223D01*
X120809253Y-94899402D01*
X120823867Y-94919107D01*
X120836480Y-94940151D01*
X120846970Y-94962329D01*
X120855235Y-94985429D01*
X120861196Y-95009227D01*
X120864796Y-95033496D01*
X120866000Y-95058000D01*
X120866000Y-96458000D01*
X120864796Y-96482504D01*
X120861196Y-96506773D01*
X120855235Y-96530571D01*
X120846970Y-96553671D01*
X120836480Y-96575849D01*
X120823867Y-96596893D01*
X120809253Y-96616598D01*
X120792777Y-96634777D01*
X120774598Y-96651253D01*
X120754893Y-96665867D01*
X120733849Y-96678480D01*
X120711671Y-96688970D01*
X120688571Y-96697235D01*
X120664773Y-96703196D01*
X120640504Y-96706796D01*
X120616000Y-96708000D01*
X116966000Y-96708000D01*
X116941496Y-96706796D01*
X116917227Y-96703196D01*
X116893429Y-96697235D01*
X116870329Y-96688970D01*
X116848151Y-96678480D01*
X116827107Y-96665867D01*
X116807402Y-96651253D01*
X116789223Y-96634777D01*
X116772747Y-96616598D01*
X116758133Y-96596893D01*
X116745520Y-96575849D01*
X116735030Y-96553671D01*
X116726765Y-96530571D01*
X116720804Y-96506773D01*
X116717204Y-96482504D01*
X116716000Y-96458000D01*
X116716000Y-95058000D01*
X116717204Y-95033496D01*
X116720804Y-95009227D01*
X116726765Y-94985429D01*
X116735030Y-94962329D01*
X116745520Y-94940151D01*
X116758133Y-94919107D01*
X116772747Y-94899402D01*
X116789223Y-94881223D01*
X116807402Y-94864747D01*
X116827107Y-94850133D01*
X116848151Y-94837520D01*
X116870329Y-94827030D01*
X116893429Y-94818765D01*
X116917227Y-94812804D01*
X116941496Y-94809204D01*
X116966000Y-94808000D01*
X120616000Y-94808000D01*
X120640504Y-94809204D01*
G37*
G36*
X57905142Y-79801174D02*
G01*
X57928803Y-79804684D01*
X57952007Y-79810496D01*
X57974529Y-79818554D01*
X57996153Y-79828782D01*
X58016670Y-79841079D01*
X58035883Y-79855329D01*
X58053607Y-79871393D01*
X58069671Y-79889117D01*
X58083921Y-79908330D01*
X58096218Y-79928847D01*
X58106446Y-79950471D01*
X58114504Y-79972993D01*
X58120316Y-79996197D01*
X58123826Y-80019858D01*
X58125000Y-80043750D01*
X58125000Y-80956250D01*
X58123826Y-80980142D01*
X58120316Y-81003803D01*
X58114504Y-81027007D01*
X58106446Y-81049529D01*
X58096218Y-81071153D01*
X58083921Y-81091670D01*
X58069671Y-81110883D01*
X58053607Y-81128607D01*
X58035883Y-81144671D01*
X58016670Y-81158921D01*
X57996153Y-81171218D01*
X57974529Y-81181446D01*
X57952007Y-81189504D01*
X57928803Y-81195316D01*
X57905142Y-81198826D01*
X57881250Y-81200000D01*
X57393750Y-81200000D01*
X57369858Y-81198826D01*
X57346197Y-81195316D01*
X57322993Y-81189504D01*
X57300471Y-81181446D01*
X57278847Y-81171218D01*
X57258330Y-81158921D01*
X57239117Y-81144671D01*
X57221393Y-81128607D01*
X57205329Y-81110883D01*
X57191079Y-81091670D01*
X57178782Y-81071153D01*
X57168554Y-81049529D01*
X57160496Y-81027007D01*
X57154684Y-81003803D01*
X57151174Y-80980142D01*
X57150000Y-80956250D01*
X57150000Y-80043750D01*
X57151174Y-80019858D01*
X57154684Y-79996197D01*
X57160496Y-79972993D01*
X57168554Y-79950471D01*
X57178782Y-79928847D01*
X57191079Y-79908330D01*
X57205329Y-79889117D01*
X57221393Y-79871393D01*
X57239117Y-79855329D01*
X57258330Y-79841079D01*
X57278847Y-79828782D01*
X57300471Y-79818554D01*
X57322993Y-79810496D01*
X57346197Y-79804684D01*
X57369858Y-79801174D01*
X57393750Y-79800000D01*
X57881250Y-79800000D01*
X57905142Y-79801174D01*
G37*
G36*
X56030142Y-79801174D02*
G01*
X56053803Y-79804684D01*
X56077007Y-79810496D01*
X56099529Y-79818554D01*
X56121153Y-79828782D01*
X56141670Y-79841079D01*
X56160883Y-79855329D01*
X56178607Y-79871393D01*
X56194671Y-79889117D01*
X56208921Y-79908330D01*
X56221218Y-79928847D01*
X56231446Y-79950471D01*
X56239504Y-79972993D01*
X56245316Y-79996197D01*
X56248826Y-80019858D01*
X56250000Y-80043750D01*
X56250000Y-80956250D01*
X56248826Y-80980142D01*
X56245316Y-81003803D01*
X56239504Y-81027007D01*
X56231446Y-81049529D01*
X56221218Y-81071153D01*
X56208921Y-81091670D01*
X56194671Y-81110883D01*
X56178607Y-81128607D01*
X56160883Y-81144671D01*
X56141670Y-81158921D01*
X56121153Y-81171218D01*
X56099529Y-81181446D01*
X56077007Y-81189504D01*
X56053803Y-81195316D01*
X56030142Y-81198826D01*
X56006250Y-81200000D01*
X55518750Y-81200000D01*
X55494858Y-81198826D01*
X55471197Y-81195316D01*
X55447993Y-81189504D01*
X55425471Y-81181446D01*
X55403847Y-81171218D01*
X55383330Y-81158921D01*
X55364117Y-81144671D01*
X55346393Y-81128607D01*
X55330329Y-81110883D01*
X55316079Y-81091670D01*
X55303782Y-81071153D01*
X55293554Y-81049529D01*
X55285496Y-81027007D01*
X55279684Y-81003803D01*
X55276174Y-80980142D01*
X55275000Y-80956250D01*
X55275000Y-80043750D01*
X55276174Y-80019858D01*
X55279684Y-79996197D01*
X55285496Y-79972993D01*
X55293554Y-79950471D01*
X55303782Y-79928847D01*
X55316079Y-79908330D01*
X55330329Y-79889117D01*
X55346393Y-79871393D01*
X55364117Y-79855329D01*
X55383330Y-79841079D01*
X55403847Y-79828782D01*
X55425471Y-79818554D01*
X55447993Y-79810496D01*
X55471197Y-79804684D01*
X55494858Y-79801174D01*
X55518750Y-79800000D01*
X56006250Y-79800000D01*
X56030142Y-79801174D01*
G37*
G36*
X57905142Y-83401174D02*
G01*
X57928803Y-83404684D01*
X57952007Y-83410496D01*
X57974529Y-83418554D01*
X57996153Y-83428782D01*
X58016670Y-83441079D01*
X58035883Y-83455329D01*
X58053607Y-83471393D01*
X58069671Y-83489117D01*
X58083921Y-83508330D01*
X58096218Y-83528847D01*
X58106446Y-83550471D01*
X58114504Y-83572993D01*
X58120316Y-83596197D01*
X58123826Y-83619858D01*
X58125000Y-83643750D01*
X58125000Y-84556250D01*
X58123826Y-84580142D01*
X58120316Y-84603803D01*
X58114504Y-84627007D01*
X58106446Y-84649529D01*
X58096218Y-84671153D01*
X58083921Y-84691670D01*
X58069671Y-84710883D01*
X58053607Y-84728607D01*
X58035883Y-84744671D01*
X58016670Y-84758921D01*
X57996153Y-84771218D01*
X57974529Y-84781446D01*
X57952007Y-84789504D01*
X57928803Y-84795316D01*
X57905142Y-84798826D01*
X57881250Y-84800000D01*
X57393750Y-84800000D01*
X57369858Y-84798826D01*
X57346197Y-84795316D01*
X57322993Y-84789504D01*
X57300471Y-84781446D01*
X57278847Y-84771218D01*
X57258330Y-84758921D01*
X57239117Y-84744671D01*
X57221393Y-84728607D01*
X57205329Y-84710883D01*
X57191079Y-84691670D01*
X57178782Y-84671153D01*
X57168554Y-84649529D01*
X57160496Y-84627007D01*
X57154684Y-84603803D01*
X57151174Y-84580142D01*
X57150000Y-84556250D01*
X57150000Y-83643750D01*
X57151174Y-83619858D01*
X57154684Y-83596197D01*
X57160496Y-83572993D01*
X57168554Y-83550471D01*
X57178782Y-83528847D01*
X57191079Y-83508330D01*
X57205329Y-83489117D01*
X57221393Y-83471393D01*
X57239117Y-83455329D01*
X57258330Y-83441079D01*
X57278847Y-83428782D01*
X57300471Y-83418554D01*
X57322993Y-83410496D01*
X57346197Y-83404684D01*
X57369858Y-83401174D01*
X57393750Y-83400000D01*
X57881250Y-83400000D01*
X57905142Y-83401174D01*
G37*
G36*
X56030142Y-83401174D02*
G01*
X56053803Y-83404684D01*
X56077007Y-83410496D01*
X56099529Y-83418554D01*
X56121153Y-83428782D01*
X56141670Y-83441079D01*
X56160883Y-83455329D01*
X56178607Y-83471393D01*
X56194671Y-83489117D01*
X56208921Y-83508330D01*
X56221218Y-83528847D01*
X56231446Y-83550471D01*
X56239504Y-83572993D01*
X56245316Y-83596197D01*
X56248826Y-83619858D01*
X56250000Y-83643750D01*
X56250000Y-84556250D01*
X56248826Y-84580142D01*
X56245316Y-84603803D01*
X56239504Y-84627007D01*
X56231446Y-84649529D01*
X56221218Y-84671153D01*
X56208921Y-84691670D01*
X56194671Y-84710883D01*
X56178607Y-84728607D01*
X56160883Y-84744671D01*
X56141670Y-84758921D01*
X56121153Y-84771218D01*
X56099529Y-84781446D01*
X56077007Y-84789504D01*
X56053803Y-84795316D01*
X56030142Y-84798826D01*
X56006250Y-84800000D01*
X55518750Y-84800000D01*
X55494858Y-84798826D01*
X55471197Y-84795316D01*
X55447993Y-84789504D01*
X55425471Y-84781446D01*
X55403847Y-84771218D01*
X55383330Y-84758921D01*
X55364117Y-84744671D01*
X55346393Y-84728607D01*
X55330329Y-84710883D01*
X55316079Y-84691670D01*
X55303782Y-84671153D01*
X55293554Y-84649529D01*
X55285496Y-84627007D01*
X55279684Y-84603803D01*
X55276174Y-84580142D01*
X55275000Y-84556250D01*
X55275000Y-83643750D01*
X55276174Y-83619858D01*
X55279684Y-83596197D01*
X55285496Y-83572993D01*
X55293554Y-83550471D01*
X55303782Y-83528847D01*
X55316079Y-83508330D01*
X55330329Y-83489117D01*
X55346393Y-83471393D01*
X55364117Y-83455329D01*
X55383330Y-83441079D01*
X55403847Y-83428782D01*
X55425471Y-83418554D01*
X55447993Y-83410496D01*
X55471197Y-83404684D01*
X55494858Y-83401174D01*
X55518750Y-83400000D01*
X56006250Y-83400000D01*
X56030142Y-83401174D01*
G37*
G36*
X56030142Y-86801174D02*
G01*
X56053803Y-86804684D01*
X56077007Y-86810496D01*
X56099529Y-86818554D01*
X56121153Y-86828782D01*
X56141670Y-86841079D01*
X56160883Y-86855329D01*
X56178607Y-86871393D01*
X56194671Y-86889117D01*
X56208921Y-86908330D01*
X56221218Y-86928847D01*
X56231446Y-86950471D01*
X56239504Y-86972993D01*
X56245316Y-86996197D01*
X56248826Y-87019858D01*
X56250000Y-87043750D01*
X56250000Y-87956250D01*
X56248826Y-87980142D01*
X56245316Y-88003803D01*
X56239504Y-88027007D01*
X56231446Y-88049529D01*
X56221218Y-88071153D01*
X56208921Y-88091670D01*
X56194671Y-88110883D01*
X56178607Y-88128607D01*
X56160883Y-88144671D01*
X56141670Y-88158921D01*
X56121153Y-88171218D01*
X56099529Y-88181446D01*
X56077007Y-88189504D01*
X56053803Y-88195316D01*
X56030142Y-88198826D01*
X56006250Y-88200000D01*
X55518750Y-88200000D01*
X55494858Y-88198826D01*
X55471197Y-88195316D01*
X55447993Y-88189504D01*
X55425471Y-88181446D01*
X55403847Y-88171218D01*
X55383330Y-88158921D01*
X55364117Y-88144671D01*
X55346393Y-88128607D01*
X55330329Y-88110883D01*
X55316079Y-88091670D01*
X55303782Y-88071153D01*
X55293554Y-88049529D01*
X55285496Y-88027007D01*
X55279684Y-88003803D01*
X55276174Y-87980142D01*
X55275000Y-87956250D01*
X55275000Y-87043750D01*
X55276174Y-87019858D01*
X55279684Y-86996197D01*
X55285496Y-86972993D01*
X55293554Y-86950471D01*
X55303782Y-86928847D01*
X55316079Y-86908330D01*
X55330329Y-86889117D01*
X55346393Y-86871393D01*
X55364117Y-86855329D01*
X55383330Y-86841079D01*
X55403847Y-86828782D01*
X55425471Y-86818554D01*
X55447993Y-86810496D01*
X55471197Y-86804684D01*
X55494858Y-86801174D01*
X55518750Y-86800000D01*
X56006250Y-86800000D01*
X56030142Y-86801174D01*
G37*
G36*
X57905142Y-86801174D02*
G01*
X57928803Y-86804684D01*
X57952007Y-86810496D01*
X57974529Y-86818554D01*
X57996153Y-86828782D01*
X58016670Y-86841079D01*
X58035883Y-86855329D01*
X58053607Y-86871393D01*
X58069671Y-86889117D01*
X58083921Y-86908330D01*
X58096218Y-86928847D01*
X58106446Y-86950471D01*
X58114504Y-86972993D01*
X58120316Y-86996197D01*
X58123826Y-87019858D01*
X58125000Y-87043750D01*
X58125000Y-87956250D01*
X58123826Y-87980142D01*
X58120316Y-88003803D01*
X58114504Y-88027007D01*
X58106446Y-88049529D01*
X58096218Y-88071153D01*
X58083921Y-88091670D01*
X58069671Y-88110883D01*
X58053607Y-88128607D01*
X58035883Y-88144671D01*
X58016670Y-88158921D01*
X57996153Y-88171218D01*
X57974529Y-88181446D01*
X57952007Y-88189504D01*
X57928803Y-88195316D01*
X57905142Y-88198826D01*
X57881250Y-88200000D01*
X57393750Y-88200000D01*
X57369858Y-88198826D01*
X57346197Y-88195316D01*
X57322993Y-88189504D01*
X57300471Y-88181446D01*
X57278847Y-88171218D01*
X57258330Y-88158921D01*
X57239117Y-88144671D01*
X57221393Y-88128607D01*
X57205329Y-88110883D01*
X57191079Y-88091670D01*
X57178782Y-88071153D01*
X57168554Y-88049529D01*
X57160496Y-88027007D01*
X57154684Y-88003803D01*
X57151174Y-87980142D01*
X57150000Y-87956250D01*
X57150000Y-87043750D01*
X57151174Y-87019858D01*
X57154684Y-86996197D01*
X57160496Y-86972993D01*
X57168554Y-86950471D01*
X57178782Y-86928847D01*
X57191079Y-86908330D01*
X57205329Y-86889117D01*
X57221393Y-86871393D01*
X57239117Y-86855329D01*
X57258330Y-86841079D01*
X57278847Y-86828782D01*
X57300471Y-86818554D01*
X57322993Y-86810496D01*
X57346197Y-86804684D01*
X57369858Y-86801174D01*
X57393750Y-86800000D01*
X57881250Y-86800000D01*
X57905142Y-86801174D01*
G37*
G36*
X56080142Y-76301174D02*
G01*
X56103803Y-76304684D01*
X56127007Y-76310496D01*
X56149529Y-76318554D01*
X56171153Y-76328782D01*
X56191670Y-76341079D01*
X56210883Y-76355329D01*
X56228607Y-76371393D01*
X56244671Y-76389117D01*
X56258921Y-76408330D01*
X56271218Y-76428847D01*
X56281446Y-76450471D01*
X56289504Y-76472993D01*
X56295316Y-76496197D01*
X56298826Y-76519858D01*
X56300000Y-76543750D01*
X56300000Y-77456250D01*
X56298826Y-77480142D01*
X56295316Y-77503803D01*
X56289504Y-77527007D01*
X56281446Y-77549529D01*
X56271218Y-77571153D01*
X56258921Y-77591670D01*
X56244671Y-77610883D01*
X56228607Y-77628607D01*
X56210883Y-77644671D01*
X56191670Y-77658921D01*
X56171153Y-77671218D01*
X56149529Y-77681446D01*
X56127007Y-77689504D01*
X56103803Y-77695316D01*
X56080142Y-77698826D01*
X56056250Y-77700000D01*
X55568750Y-77700000D01*
X55544858Y-77698826D01*
X55521197Y-77695316D01*
X55497993Y-77689504D01*
X55475471Y-77681446D01*
X55453847Y-77671218D01*
X55433330Y-77658921D01*
X55414117Y-77644671D01*
X55396393Y-77628607D01*
X55380329Y-77610883D01*
X55366079Y-77591670D01*
X55353782Y-77571153D01*
X55343554Y-77549529D01*
X55335496Y-77527007D01*
X55329684Y-77503803D01*
X55326174Y-77480142D01*
X55325000Y-77456250D01*
X55325000Y-76543750D01*
X55326174Y-76519858D01*
X55329684Y-76496197D01*
X55335496Y-76472993D01*
X55343554Y-76450471D01*
X55353782Y-76428847D01*
X55366079Y-76408330D01*
X55380329Y-76389117D01*
X55396393Y-76371393D01*
X55414117Y-76355329D01*
X55433330Y-76341079D01*
X55453847Y-76328782D01*
X55475471Y-76318554D01*
X55497993Y-76310496D01*
X55521197Y-76304684D01*
X55544858Y-76301174D01*
X55568750Y-76300000D01*
X56056250Y-76300000D01*
X56080142Y-76301174D01*
G37*
G36*
X57955142Y-76301174D02*
G01*
X57978803Y-76304684D01*
X58002007Y-76310496D01*
X58024529Y-76318554D01*
X58046153Y-76328782D01*
X58066670Y-76341079D01*
X58085883Y-76355329D01*
X58103607Y-76371393D01*
X58119671Y-76389117D01*
X58133921Y-76408330D01*
X58146218Y-76428847D01*
X58156446Y-76450471D01*
X58164504Y-76472993D01*
X58170316Y-76496197D01*
X58173826Y-76519858D01*
X58175000Y-76543750D01*
X58175000Y-77456250D01*
X58173826Y-77480142D01*
X58170316Y-77503803D01*
X58164504Y-77527007D01*
X58156446Y-77549529D01*
X58146218Y-77571153D01*
X58133921Y-77591670D01*
X58119671Y-77610883D01*
X58103607Y-77628607D01*
X58085883Y-77644671D01*
X58066670Y-77658921D01*
X58046153Y-77671218D01*
X58024529Y-77681446D01*
X58002007Y-77689504D01*
X57978803Y-77695316D01*
X57955142Y-77698826D01*
X57931250Y-77700000D01*
X57443750Y-77700000D01*
X57419858Y-77698826D01*
X57396197Y-77695316D01*
X57372993Y-77689504D01*
X57350471Y-77681446D01*
X57328847Y-77671218D01*
X57308330Y-77658921D01*
X57289117Y-77644671D01*
X57271393Y-77628607D01*
X57255329Y-77610883D01*
X57241079Y-77591670D01*
X57228782Y-77571153D01*
X57218554Y-77549529D01*
X57210496Y-77527007D01*
X57204684Y-77503803D01*
X57201174Y-77480142D01*
X57200000Y-77456250D01*
X57200000Y-76543750D01*
X57201174Y-76519858D01*
X57204684Y-76496197D01*
X57210496Y-76472993D01*
X57218554Y-76450471D01*
X57228782Y-76428847D01*
X57241079Y-76408330D01*
X57255329Y-76389117D01*
X57271393Y-76371393D01*
X57289117Y-76355329D01*
X57308330Y-76341079D01*
X57328847Y-76328782D01*
X57350471Y-76318554D01*
X57372993Y-76310496D01*
X57396197Y-76304684D01*
X57419858Y-76301174D01*
X57443750Y-76300000D01*
X57931250Y-76300000D01*
X57955142Y-76301174D01*
G37*
G36*
X89469802Y-60325482D02*
G01*
X89479509Y-60326921D01*
X89489028Y-60329306D01*
X89498268Y-60332612D01*
X89507140Y-60336808D01*
X89515557Y-60341853D01*
X89523439Y-60347699D01*
X89530711Y-60354289D01*
X89537301Y-60361561D01*
X89543147Y-60369443D01*
X89548192Y-60377860D01*
X89552388Y-60386732D01*
X89555694Y-60395972D01*
X89558079Y-60405491D01*
X89559518Y-60415198D01*
X89560000Y-60425000D01*
X89560000Y-60625000D01*
X89559518Y-60634802D01*
X89558079Y-60644509D01*
X89555694Y-60654028D01*
X89552388Y-60663268D01*
X89548192Y-60672140D01*
X89543147Y-60680557D01*
X89537301Y-60688439D01*
X89530711Y-60695711D01*
X89523439Y-60702301D01*
X89515557Y-60708147D01*
X89507140Y-60713192D01*
X89498268Y-60717388D01*
X89489028Y-60720694D01*
X89479509Y-60723079D01*
X89469802Y-60724518D01*
X89460000Y-60725000D01*
X88035000Y-60725000D01*
X88025198Y-60724518D01*
X88015491Y-60723079D01*
X88005972Y-60720694D01*
X87996732Y-60717388D01*
X87987860Y-60713192D01*
X87979443Y-60708147D01*
X87971561Y-60702301D01*
X87964289Y-60695711D01*
X87957699Y-60688439D01*
X87951853Y-60680557D01*
X87946808Y-60672140D01*
X87942612Y-60663268D01*
X87939306Y-60654028D01*
X87936921Y-60644509D01*
X87935482Y-60634802D01*
X87935000Y-60625000D01*
X87935000Y-60425000D01*
X87935482Y-60415198D01*
X87936921Y-60405491D01*
X87939306Y-60395972D01*
X87942612Y-60386732D01*
X87946808Y-60377860D01*
X87951853Y-60369443D01*
X87957699Y-60361561D01*
X87964289Y-60354289D01*
X87971561Y-60347699D01*
X87979443Y-60341853D01*
X87987860Y-60336808D01*
X87996732Y-60332612D01*
X88005972Y-60329306D01*
X88015491Y-60326921D01*
X88025198Y-60325482D01*
X88035000Y-60325000D01*
X89460000Y-60325000D01*
X89469802Y-60325482D01*
G37*
G36*
X89469802Y-60975482D02*
G01*
X89479509Y-60976921D01*
X89489028Y-60979306D01*
X89498268Y-60982612D01*
X89507140Y-60986808D01*
X89515557Y-60991853D01*
X89523439Y-60997699D01*
X89530711Y-61004289D01*
X89537301Y-61011561D01*
X89543147Y-61019443D01*
X89548192Y-61027860D01*
X89552388Y-61036732D01*
X89555694Y-61045972D01*
X89558079Y-61055491D01*
X89559518Y-61065198D01*
X89560000Y-61075000D01*
X89560000Y-61275000D01*
X89559518Y-61284802D01*
X89558079Y-61294509D01*
X89555694Y-61304028D01*
X89552388Y-61313268D01*
X89548192Y-61322140D01*
X89543147Y-61330557D01*
X89537301Y-61338439D01*
X89530711Y-61345711D01*
X89523439Y-61352301D01*
X89515557Y-61358147D01*
X89507140Y-61363192D01*
X89498268Y-61367388D01*
X89489028Y-61370694D01*
X89479509Y-61373079D01*
X89469802Y-61374518D01*
X89460000Y-61375000D01*
X88035000Y-61375000D01*
X88025198Y-61374518D01*
X88015491Y-61373079D01*
X88005972Y-61370694D01*
X87996732Y-61367388D01*
X87987860Y-61363192D01*
X87979443Y-61358147D01*
X87971561Y-61352301D01*
X87964289Y-61345711D01*
X87957699Y-61338439D01*
X87951853Y-61330557D01*
X87946808Y-61322140D01*
X87942612Y-61313268D01*
X87939306Y-61304028D01*
X87936921Y-61294509D01*
X87935482Y-61284802D01*
X87935000Y-61275000D01*
X87935000Y-61075000D01*
X87935482Y-61065198D01*
X87936921Y-61055491D01*
X87939306Y-61045972D01*
X87942612Y-61036732D01*
X87946808Y-61027860D01*
X87951853Y-61019443D01*
X87957699Y-61011561D01*
X87964289Y-61004289D01*
X87971561Y-60997699D01*
X87979443Y-60991853D01*
X87987860Y-60986808D01*
X87996732Y-60982612D01*
X88005972Y-60979306D01*
X88015491Y-60976921D01*
X88025198Y-60975482D01*
X88035000Y-60975000D01*
X89460000Y-60975000D01*
X89469802Y-60975482D01*
G37*
G36*
X89469802Y-61625482D02*
G01*
X89479509Y-61626921D01*
X89489028Y-61629306D01*
X89498268Y-61632612D01*
X89507140Y-61636808D01*
X89515557Y-61641853D01*
X89523439Y-61647699D01*
X89530711Y-61654289D01*
X89537301Y-61661561D01*
X89543147Y-61669443D01*
X89548192Y-61677860D01*
X89552388Y-61686732D01*
X89555694Y-61695972D01*
X89558079Y-61705491D01*
X89559518Y-61715198D01*
X89560000Y-61725000D01*
X89560000Y-61925000D01*
X89559518Y-61934802D01*
X89558079Y-61944509D01*
X89555694Y-61954028D01*
X89552388Y-61963268D01*
X89548192Y-61972140D01*
X89543147Y-61980557D01*
X89537301Y-61988439D01*
X89530711Y-61995711D01*
X89523439Y-62002301D01*
X89515557Y-62008147D01*
X89507140Y-62013192D01*
X89498268Y-62017388D01*
X89489028Y-62020694D01*
X89479509Y-62023079D01*
X89469802Y-62024518D01*
X89460000Y-62025000D01*
X88035000Y-62025000D01*
X88025198Y-62024518D01*
X88015491Y-62023079D01*
X88005972Y-62020694D01*
X87996732Y-62017388D01*
X87987860Y-62013192D01*
X87979443Y-62008147D01*
X87971561Y-62002301D01*
X87964289Y-61995711D01*
X87957699Y-61988439D01*
X87951853Y-61980557D01*
X87946808Y-61972140D01*
X87942612Y-61963268D01*
X87939306Y-61954028D01*
X87936921Y-61944509D01*
X87935482Y-61934802D01*
X87935000Y-61925000D01*
X87935000Y-61725000D01*
X87935482Y-61715198D01*
X87936921Y-61705491D01*
X87939306Y-61695972D01*
X87942612Y-61686732D01*
X87946808Y-61677860D01*
X87951853Y-61669443D01*
X87957699Y-61661561D01*
X87964289Y-61654289D01*
X87971561Y-61647699D01*
X87979443Y-61641853D01*
X87987860Y-61636808D01*
X87996732Y-61632612D01*
X88005972Y-61629306D01*
X88015491Y-61626921D01*
X88025198Y-61625482D01*
X88035000Y-61625000D01*
X89460000Y-61625000D01*
X89469802Y-61625482D01*
G37*
G36*
X89469802Y-62275482D02*
G01*
X89479509Y-62276921D01*
X89489028Y-62279306D01*
X89498268Y-62282612D01*
X89507140Y-62286808D01*
X89515557Y-62291853D01*
X89523439Y-62297699D01*
X89530711Y-62304289D01*
X89537301Y-62311561D01*
X89543147Y-62319443D01*
X89548192Y-62327860D01*
X89552388Y-62336732D01*
X89555694Y-62345972D01*
X89558079Y-62355491D01*
X89559518Y-62365198D01*
X89560000Y-62375000D01*
X89560000Y-62575000D01*
X89559518Y-62584802D01*
X89558079Y-62594509D01*
X89555694Y-62604028D01*
X89552388Y-62613268D01*
X89548192Y-62622140D01*
X89543147Y-62630557D01*
X89537301Y-62638439D01*
X89530711Y-62645711D01*
X89523439Y-62652301D01*
X89515557Y-62658147D01*
X89507140Y-62663192D01*
X89498268Y-62667388D01*
X89489028Y-62670694D01*
X89479509Y-62673079D01*
X89469802Y-62674518D01*
X89460000Y-62675000D01*
X88035000Y-62675000D01*
X88025198Y-62674518D01*
X88015491Y-62673079D01*
X88005972Y-62670694D01*
X87996732Y-62667388D01*
X87987860Y-62663192D01*
X87979443Y-62658147D01*
X87971561Y-62652301D01*
X87964289Y-62645711D01*
X87957699Y-62638439D01*
X87951853Y-62630557D01*
X87946808Y-62622140D01*
X87942612Y-62613268D01*
X87939306Y-62604028D01*
X87936921Y-62594509D01*
X87935482Y-62584802D01*
X87935000Y-62575000D01*
X87935000Y-62375000D01*
X87935482Y-62365198D01*
X87936921Y-62355491D01*
X87939306Y-62345972D01*
X87942612Y-62336732D01*
X87946808Y-62327860D01*
X87951853Y-62319443D01*
X87957699Y-62311561D01*
X87964289Y-62304289D01*
X87971561Y-62297699D01*
X87979443Y-62291853D01*
X87987860Y-62286808D01*
X87996732Y-62282612D01*
X88005972Y-62279306D01*
X88015491Y-62276921D01*
X88025198Y-62275482D01*
X88035000Y-62275000D01*
X89460000Y-62275000D01*
X89469802Y-62275482D01*
G37*
G36*
X93694802Y-62275482D02*
G01*
X93704509Y-62276921D01*
X93714028Y-62279306D01*
X93723268Y-62282612D01*
X93732140Y-62286808D01*
X93740557Y-62291853D01*
X93748439Y-62297699D01*
X93755711Y-62304289D01*
X93762301Y-62311561D01*
X93768147Y-62319443D01*
X93773192Y-62327860D01*
X93777388Y-62336732D01*
X93780694Y-62345972D01*
X93783079Y-62355491D01*
X93784518Y-62365198D01*
X93785000Y-62375000D01*
X93785000Y-62575000D01*
X93784518Y-62584802D01*
X93783079Y-62594509D01*
X93780694Y-62604028D01*
X93777388Y-62613268D01*
X93773192Y-62622140D01*
X93768147Y-62630557D01*
X93762301Y-62638439D01*
X93755711Y-62645711D01*
X93748439Y-62652301D01*
X93740557Y-62658147D01*
X93732140Y-62663192D01*
X93723268Y-62667388D01*
X93714028Y-62670694D01*
X93704509Y-62673079D01*
X93694802Y-62674518D01*
X93685000Y-62675000D01*
X92260000Y-62675000D01*
X92250198Y-62674518D01*
X92240491Y-62673079D01*
X92230972Y-62670694D01*
X92221732Y-62667388D01*
X92212860Y-62663192D01*
X92204443Y-62658147D01*
X92196561Y-62652301D01*
X92189289Y-62645711D01*
X92182699Y-62638439D01*
X92176853Y-62630557D01*
X92171808Y-62622140D01*
X92167612Y-62613268D01*
X92164306Y-62604028D01*
X92161921Y-62594509D01*
X92160482Y-62584802D01*
X92160000Y-62575000D01*
X92160000Y-62375000D01*
X92160482Y-62365198D01*
X92161921Y-62355491D01*
X92164306Y-62345972D01*
X92167612Y-62336732D01*
X92171808Y-62327860D01*
X92176853Y-62319443D01*
X92182699Y-62311561D01*
X92189289Y-62304289D01*
X92196561Y-62297699D01*
X92204443Y-62291853D01*
X92212860Y-62286808D01*
X92221732Y-62282612D01*
X92230972Y-62279306D01*
X92240491Y-62276921D01*
X92250198Y-62275482D01*
X92260000Y-62275000D01*
X93685000Y-62275000D01*
X93694802Y-62275482D01*
G37*
G36*
X93694802Y-61625482D02*
G01*
X93704509Y-61626921D01*
X93714028Y-61629306D01*
X93723268Y-61632612D01*
X93732140Y-61636808D01*
X93740557Y-61641853D01*
X93748439Y-61647699D01*
X93755711Y-61654289D01*
X93762301Y-61661561D01*
X93768147Y-61669443D01*
X93773192Y-61677860D01*
X93777388Y-61686732D01*
X93780694Y-61695972D01*
X93783079Y-61705491D01*
X93784518Y-61715198D01*
X93785000Y-61725000D01*
X93785000Y-61925000D01*
X93784518Y-61934802D01*
X93783079Y-61944509D01*
X93780694Y-61954028D01*
X93777388Y-61963268D01*
X93773192Y-61972140D01*
X93768147Y-61980557D01*
X93762301Y-61988439D01*
X93755711Y-61995711D01*
X93748439Y-62002301D01*
X93740557Y-62008147D01*
X93732140Y-62013192D01*
X93723268Y-62017388D01*
X93714028Y-62020694D01*
X93704509Y-62023079D01*
X93694802Y-62024518D01*
X93685000Y-62025000D01*
X92260000Y-62025000D01*
X92250198Y-62024518D01*
X92240491Y-62023079D01*
X92230972Y-62020694D01*
X92221732Y-62017388D01*
X92212860Y-62013192D01*
X92204443Y-62008147D01*
X92196561Y-62002301D01*
X92189289Y-61995711D01*
X92182699Y-61988439D01*
X92176853Y-61980557D01*
X92171808Y-61972140D01*
X92167612Y-61963268D01*
X92164306Y-61954028D01*
X92161921Y-61944509D01*
X92160482Y-61934802D01*
X92160000Y-61925000D01*
X92160000Y-61725000D01*
X92160482Y-61715198D01*
X92161921Y-61705491D01*
X92164306Y-61695972D01*
X92167612Y-61686732D01*
X92171808Y-61677860D01*
X92176853Y-61669443D01*
X92182699Y-61661561D01*
X92189289Y-61654289D01*
X92196561Y-61647699D01*
X92204443Y-61641853D01*
X92212860Y-61636808D01*
X92221732Y-61632612D01*
X92230972Y-61629306D01*
X92240491Y-61626921D01*
X92250198Y-61625482D01*
X92260000Y-61625000D01*
X93685000Y-61625000D01*
X93694802Y-61625482D01*
G37*
G36*
X93694802Y-60975482D02*
G01*
X93704509Y-60976921D01*
X93714028Y-60979306D01*
X93723268Y-60982612D01*
X93732140Y-60986808D01*
X93740557Y-60991853D01*
X93748439Y-60997699D01*
X93755711Y-61004289D01*
X93762301Y-61011561D01*
X93768147Y-61019443D01*
X93773192Y-61027860D01*
X93777388Y-61036732D01*
X93780694Y-61045972D01*
X93783079Y-61055491D01*
X93784518Y-61065198D01*
X93785000Y-61075000D01*
X93785000Y-61275000D01*
X93784518Y-61284802D01*
X93783079Y-61294509D01*
X93780694Y-61304028D01*
X93777388Y-61313268D01*
X93773192Y-61322140D01*
X93768147Y-61330557D01*
X93762301Y-61338439D01*
X93755711Y-61345711D01*
X93748439Y-61352301D01*
X93740557Y-61358147D01*
X93732140Y-61363192D01*
X93723268Y-61367388D01*
X93714028Y-61370694D01*
X93704509Y-61373079D01*
X93694802Y-61374518D01*
X93685000Y-61375000D01*
X92260000Y-61375000D01*
X92250198Y-61374518D01*
X92240491Y-61373079D01*
X92230972Y-61370694D01*
X92221732Y-61367388D01*
X92212860Y-61363192D01*
X92204443Y-61358147D01*
X92196561Y-61352301D01*
X92189289Y-61345711D01*
X92182699Y-61338439D01*
X92176853Y-61330557D01*
X92171808Y-61322140D01*
X92167612Y-61313268D01*
X92164306Y-61304028D01*
X92161921Y-61294509D01*
X92160482Y-61284802D01*
X92160000Y-61275000D01*
X92160000Y-61075000D01*
X92160482Y-61065198D01*
X92161921Y-61055491D01*
X92164306Y-61045972D01*
X92167612Y-61036732D01*
X92171808Y-61027860D01*
X92176853Y-61019443D01*
X92182699Y-61011561D01*
X92189289Y-61004289D01*
X92196561Y-60997699D01*
X92204443Y-60991853D01*
X92212860Y-60986808D01*
X92221732Y-60982612D01*
X92230972Y-60979306D01*
X92240491Y-60976921D01*
X92250198Y-60975482D01*
X92260000Y-60975000D01*
X93685000Y-60975000D01*
X93694802Y-60975482D01*
G37*
G36*
X93694802Y-60325482D02*
G01*
X93704509Y-60326921D01*
X93714028Y-60329306D01*
X93723268Y-60332612D01*
X93732140Y-60336808D01*
X93740557Y-60341853D01*
X93748439Y-60347699D01*
X93755711Y-60354289D01*
X93762301Y-60361561D01*
X93768147Y-60369443D01*
X93773192Y-60377860D01*
X93777388Y-60386732D01*
X93780694Y-60395972D01*
X93783079Y-60405491D01*
X93784518Y-60415198D01*
X93785000Y-60425000D01*
X93785000Y-60625000D01*
X93784518Y-60634802D01*
X93783079Y-60644509D01*
X93780694Y-60654028D01*
X93777388Y-60663268D01*
X93773192Y-60672140D01*
X93768147Y-60680557D01*
X93762301Y-60688439D01*
X93755711Y-60695711D01*
X93748439Y-60702301D01*
X93740557Y-60708147D01*
X93732140Y-60713192D01*
X93723268Y-60717388D01*
X93714028Y-60720694D01*
X93704509Y-60723079D01*
X93694802Y-60724518D01*
X93685000Y-60725000D01*
X92260000Y-60725000D01*
X92250198Y-60724518D01*
X92240491Y-60723079D01*
X92230972Y-60720694D01*
X92221732Y-60717388D01*
X92212860Y-60713192D01*
X92204443Y-60708147D01*
X92196561Y-60702301D01*
X92189289Y-60695711D01*
X92182699Y-60688439D01*
X92176853Y-60680557D01*
X92171808Y-60672140D01*
X92167612Y-60663268D01*
X92164306Y-60654028D01*
X92161921Y-60644509D01*
X92160482Y-60634802D01*
X92160000Y-60625000D01*
X92160000Y-60425000D01*
X92160482Y-60415198D01*
X92161921Y-60405491D01*
X92164306Y-60395972D01*
X92167612Y-60386732D01*
X92171808Y-60377860D01*
X92176853Y-60369443D01*
X92182699Y-60361561D01*
X92189289Y-60354289D01*
X92196561Y-60347699D01*
X92204443Y-60341853D01*
X92212860Y-60336808D01*
X92221732Y-60332612D01*
X92230972Y-60329306D01*
X92240491Y-60326921D01*
X92250198Y-60325482D01*
X92260000Y-60325000D01*
X93685000Y-60325000D01*
X93694802Y-60325482D01*
G37*
D11*
X96443800Y-79375000D03*
X96443800Y-80645000D03*
X96443800Y-81915000D03*
X96443800Y-83185000D03*
X91516200Y-83185000D03*
X91516200Y-81915000D03*
X91516200Y-80645000D03*
X91516200Y-79375000D03*
D10*
G36*
X92127642Y-54901174D02*
G01*
X92151303Y-54904684D01*
X92174507Y-54910496D01*
X92197029Y-54918554D01*
X92218653Y-54928782D01*
X92239170Y-54941079D01*
X92258383Y-54955329D01*
X92276107Y-54971393D01*
X92292171Y-54989117D01*
X92306421Y-55008330D01*
X92318718Y-55028847D01*
X92328946Y-55050471D01*
X92337004Y-55072993D01*
X92342816Y-55096197D01*
X92346326Y-55119858D01*
X92347500Y-55143750D01*
X92347500Y-56056250D01*
X92346326Y-56080142D01*
X92342816Y-56103803D01*
X92337004Y-56127007D01*
X92328946Y-56149529D01*
X92318718Y-56171153D01*
X92306421Y-56191670D01*
X92292171Y-56210883D01*
X92276107Y-56228607D01*
X92258383Y-56244671D01*
X92239170Y-56258921D01*
X92218653Y-56271218D01*
X92197029Y-56281446D01*
X92174507Y-56289504D01*
X92151303Y-56295316D01*
X92127642Y-56298826D01*
X92103750Y-56300000D01*
X91616250Y-56300000D01*
X91592358Y-56298826D01*
X91568697Y-56295316D01*
X91545493Y-56289504D01*
X91522971Y-56281446D01*
X91501347Y-56271218D01*
X91480830Y-56258921D01*
X91461617Y-56244671D01*
X91443893Y-56228607D01*
X91427829Y-56210883D01*
X91413579Y-56191670D01*
X91401282Y-56171153D01*
X91391054Y-56149529D01*
X91382996Y-56127007D01*
X91377184Y-56103803D01*
X91373674Y-56080142D01*
X91372500Y-56056250D01*
X91372500Y-55143750D01*
X91373674Y-55119858D01*
X91377184Y-55096197D01*
X91382996Y-55072993D01*
X91391054Y-55050471D01*
X91401282Y-55028847D01*
X91413579Y-55008330D01*
X91427829Y-54989117D01*
X91443893Y-54971393D01*
X91461617Y-54955329D01*
X91480830Y-54941079D01*
X91501347Y-54928782D01*
X91522971Y-54918554D01*
X91545493Y-54910496D01*
X91568697Y-54904684D01*
X91592358Y-54901174D01*
X91616250Y-54900000D01*
X92103750Y-54900000D01*
X92127642Y-54901174D01*
G37*
G36*
X90252642Y-54901174D02*
G01*
X90276303Y-54904684D01*
X90299507Y-54910496D01*
X90322029Y-54918554D01*
X90343653Y-54928782D01*
X90364170Y-54941079D01*
X90383383Y-54955329D01*
X90401107Y-54971393D01*
X90417171Y-54989117D01*
X90431421Y-55008330D01*
X90443718Y-55028847D01*
X90453946Y-55050471D01*
X90462004Y-55072993D01*
X90467816Y-55096197D01*
X90471326Y-55119858D01*
X90472500Y-55143750D01*
X90472500Y-56056250D01*
X90471326Y-56080142D01*
X90467816Y-56103803D01*
X90462004Y-56127007D01*
X90453946Y-56149529D01*
X90443718Y-56171153D01*
X90431421Y-56191670D01*
X90417171Y-56210883D01*
X90401107Y-56228607D01*
X90383383Y-56244671D01*
X90364170Y-56258921D01*
X90343653Y-56271218D01*
X90322029Y-56281446D01*
X90299507Y-56289504D01*
X90276303Y-56295316D01*
X90252642Y-56298826D01*
X90228750Y-56300000D01*
X89741250Y-56300000D01*
X89717358Y-56298826D01*
X89693697Y-56295316D01*
X89670493Y-56289504D01*
X89647971Y-56281446D01*
X89626347Y-56271218D01*
X89605830Y-56258921D01*
X89586617Y-56244671D01*
X89568893Y-56228607D01*
X89552829Y-56210883D01*
X89538579Y-56191670D01*
X89526282Y-56171153D01*
X89516054Y-56149529D01*
X89507996Y-56127007D01*
X89502184Y-56103803D01*
X89498674Y-56080142D01*
X89497500Y-56056250D01*
X89497500Y-55143750D01*
X89498674Y-55119858D01*
X89502184Y-55096197D01*
X89507996Y-55072993D01*
X89516054Y-55050471D01*
X89526282Y-55028847D01*
X89538579Y-55008330D01*
X89552829Y-54989117D01*
X89568893Y-54971393D01*
X89586617Y-54955329D01*
X89605830Y-54941079D01*
X89626347Y-54928782D01*
X89647971Y-54918554D01*
X89670493Y-54910496D01*
X89693697Y-54904684D01*
X89717358Y-54901174D01*
X89741250Y-54900000D01*
X90228750Y-54900000D01*
X90252642Y-54901174D01*
G37*
G36*
X82880142Y-94838674D02*
G01*
X82903803Y-94842184D01*
X82927007Y-94847996D01*
X82949529Y-94856054D01*
X82971153Y-94866282D01*
X82991670Y-94878579D01*
X83010883Y-94892829D01*
X83028607Y-94908893D01*
X83044671Y-94926617D01*
X83058921Y-94945830D01*
X83071218Y-94966347D01*
X83081446Y-94987971D01*
X83089504Y-95010493D01*
X83095316Y-95033697D01*
X83098826Y-95057358D01*
X83100000Y-95081250D01*
X83100000Y-95568750D01*
X83098826Y-95592642D01*
X83095316Y-95616303D01*
X83089504Y-95639507D01*
X83081446Y-95662029D01*
X83071218Y-95683653D01*
X83058921Y-95704170D01*
X83044671Y-95723383D01*
X83028607Y-95741107D01*
X83010883Y-95757171D01*
X82991670Y-95771421D01*
X82971153Y-95783718D01*
X82949529Y-95793946D01*
X82927007Y-95802004D01*
X82903803Y-95807816D01*
X82880142Y-95811326D01*
X82856250Y-95812500D01*
X81943750Y-95812500D01*
X81919858Y-95811326D01*
X81896197Y-95807816D01*
X81872993Y-95802004D01*
X81850471Y-95793946D01*
X81828847Y-95783718D01*
X81808330Y-95771421D01*
X81789117Y-95757171D01*
X81771393Y-95741107D01*
X81755329Y-95723383D01*
X81741079Y-95704170D01*
X81728782Y-95683653D01*
X81718554Y-95662029D01*
X81710496Y-95639507D01*
X81704684Y-95616303D01*
X81701174Y-95592642D01*
X81700000Y-95568750D01*
X81700000Y-95081250D01*
X81701174Y-95057358D01*
X81704684Y-95033697D01*
X81710496Y-95010493D01*
X81718554Y-94987971D01*
X81728782Y-94966347D01*
X81741079Y-94945830D01*
X81755329Y-94926617D01*
X81771393Y-94908893D01*
X81789117Y-94892829D01*
X81808330Y-94878579D01*
X81828847Y-94866282D01*
X81850471Y-94856054D01*
X81872993Y-94847996D01*
X81896197Y-94842184D01*
X81919858Y-94838674D01*
X81943750Y-94837500D01*
X82856250Y-94837500D01*
X82880142Y-94838674D01*
G37*
G36*
X82880142Y-96713674D02*
G01*
X82903803Y-96717184D01*
X82927007Y-96722996D01*
X82949529Y-96731054D01*
X82971153Y-96741282D01*
X82991670Y-96753579D01*
X83010883Y-96767829D01*
X83028607Y-96783893D01*
X83044671Y-96801617D01*
X83058921Y-96820830D01*
X83071218Y-96841347D01*
X83081446Y-96862971D01*
X83089504Y-96885493D01*
X83095316Y-96908697D01*
X83098826Y-96932358D01*
X83100000Y-96956250D01*
X83100000Y-97443750D01*
X83098826Y-97467642D01*
X83095316Y-97491303D01*
X83089504Y-97514507D01*
X83081446Y-97537029D01*
X83071218Y-97558653D01*
X83058921Y-97579170D01*
X83044671Y-97598383D01*
X83028607Y-97616107D01*
X83010883Y-97632171D01*
X82991670Y-97646421D01*
X82971153Y-97658718D01*
X82949529Y-97668946D01*
X82927007Y-97677004D01*
X82903803Y-97682816D01*
X82880142Y-97686326D01*
X82856250Y-97687500D01*
X81943750Y-97687500D01*
X81919858Y-97686326D01*
X81896197Y-97682816D01*
X81872993Y-97677004D01*
X81850471Y-97668946D01*
X81828847Y-97658718D01*
X81808330Y-97646421D01*
X81789117Y-97632171D01*
X81771393Y-97616107D01*
X81755329Y-97598383D01*
X81741079Y-97579170D01*
X81728782Y-97558653D01*
X81718554Y-97537029D01*
X81710496Y-97514507D01*
X81704684Y-97491303D01*
X81701174Y-97467642D01*
X81700000Y-97443750D01*
X81700000Y-96956250D01*
X81701174Y-96932358D01*
X81704684Y-96908697D01*
X81710496Y-96885493D01*
X81718554Y-96862971D01*
X81728782Y-96841347D01*
X81741079Y-96820830D01*
X81755329Y-96801617D01*
X81771393Y-96783893D01*
X81789117Y-96767829D01*
X81808330Y-96753579D01*
X81828847Y-96741282D01*
X81850471Y-96731054D01*
X81872993Y-96722996D01*
X81896197Y-96717184D01*
X81919858Y-96713674D01*
X81943750Y-96712500D01*
X82856250Y-96712500D01*
X82880142Y-96713674D01*
G37*
G36*
X85260642Y-96501174D02*
G01*
X85284303Y-96504684D01*
X85307507Y-96510496D01*
X85330029Y-96518554D01*
X85351653Y-96528782D01*
X85372170Y-96541079D01*
X85391383Y-96555329D01*
X85409107Y-96571393D01*
X85425171Y-96589117D01*
X85439421Y-96608330D01*
X85451718Y-96628847D01*
X85461946Y-96650471D01*
X85470004Y-96672993D01*
X85475816Y-96696197D01*
X85479326Y-96719858D01*
X85480500Y-96743750D01*
X85480500Y-97656250D01*
X85479326Y-97680142D01*
X85475816Y-97703803D01*
X85470004Y-97727007D01*
X85461946Y-97749529D01*
X85451718Y-97771153D01*
X85439421Y-97791670D01*
X85425171Y-97810883D01*
X85409107Y-97828607D01*
X85391383Y-97844671D01*
X85372170Y-97858921D01*
X85351653Y-97871218D01*
X85330029Y-97881446D01*
X85307507Y-97889504D01*
X85284303Y-97895316D01*
X85260642Y-97898826D01*
X85236750Y-97900000D01*
X84749250Y-97900000D01*
X84725358Y-97898826D01*
X84701697Y-97895316D01*
X84678493Y-97889504D01*
X84655971Y-97881446D01*
X84634347Y-97871218D01*
X84613830Y-97858921D01*
X84594617Y-97844671D01*
X84576893Y-97828607D01*
X84560829Y-97810883D01*
X84546579Y-97791670D01*
X84534282Y-97771153D01*
X84524054Y-97749529D01*
X84515996Y-97727007D01*
X84510184Y-97703803D01*
X84506674Y-97680142D01*
X84505500Y-97656250D01*
X84505500Y-96743750D01*
X84506674Y-96719858D01*
X84510184Y-96696197D01*
X84515996Y-96672993D01*
X84524054Y-96650471D01*
X84534282Y-96628847D01*
X84546579Y-96608330D01*
X84560829Y-96589117D01*
X84576893Y-96571393D01*
X84594617Y-96555329D01*
X84613830Y-96541079D01*
X84634347Y-96528782D01*
X84655971Y-96518554D01*
X84678493Y-96510496D01*
X84701697Y-96504684D01*
X84725358Y-96501174D01*
X84749250Y-96500000D01*
X85236750Y-96500000D01*
X85260642Y-96501174D01*
G37*
G36*
X87135642Y-96501174D02*
G01*
X87159303Y-96504684D01*
X87182507Y-96510496D01*
X87205029Y-96518554D01*
X87226653Y-96528782D01*
X87247170Y-96541079D01*
X87266383Y-96555329D01*
X87284107Y-96571393D01*
X87300171Y-96589117D01*
X87314421Y-96608330D01*
X87326718Y-96628847D01*
X87336946Y-96650471D01*
X87345004Y-96672993D01*
X87350816Y-96696197D01*
X87354326Y-96719858D01*
X87355500Y-96743750D01*
X87355500Y-97656250D01*
X87354326Y-97680142D01*
X87350816Y-97703803D01*
X87345004Y-97727007D01*
X87336946Y-97749529D01*
X87326718Y-97771153D01*
X87314421Y-97791670D01*
X87300171Y-97810883D01*
X87284107Y-97828607D01*
X87266383Y-97844671D01*
X87247170Y-97858921D01*
X87226653Y-97871218D01*
X87205029Y-97881446D01*
X87182507Y-97889504D01*
X87159303Y-97895316D01*
X87135642Y-97898826D01*
X87111750Y-97900000D01*
X86624250Y-97900000D01*
X86600358Y-97898826D01*
X86576697Y-97895316D01*
X86553493Y-97889504D01*
X86530971Y-97881446D01*
X86509347Y-97871218D01*
X86488830Y-97858921D01*
X86469617Y-97844671D01*
X86451893Y-97828607D01*
X86435829Y-97810883D01*
X86421579Y-97791670D01*
X86409282Y-97771153D01*
X86399054Y-97749529D01*
X86390996Y-97727007D01*
X86385184Y-97703803D01*
X86381674Y-97680142D01*
X86380500Y-97656250D01*
X86380500Y-96743750D01*
X86381674Y-96719858D01*
X86385184Y-96696197D01*
X86390996Y-96672993D01*
X86399054Y-96650471D01*
X86409282Y-96628847D01*
X86421579Y-96608330D01*
X86435829Y-96589117D01*
X86451893Y-96571393D01*
X86469617Y-96555329D01*
X86488830Y-96541079D01*
X86509347Y-96528782D01*
X86530971Y-96518554D01*
X86553493Y-96510496D01*
X86576697Y-96504684D01*
X86600358Y-96501174D01*
X86624250Y-96500000D01*
X87111750Y-96500000D01*
X87135642Y-96501174D01*
G37*
G36*
X52317642Y-79801174D02*
G01*
X52341303Y-79804684D01*
X52364507Y-79810496D01*
X52387029Y-79818554D01*
X52408653Y-79828782D01*
X52429170Y-79841079D01*
X52448383Y-79855329D01*
X52466107Y-79871393D01*
X52482171Y-79889117D01*
X52496421Y-79908330D01*
X52508718Y-79928847D01*
X52518946Y-79950471D01*
X52527004Y-79972993D01*
X52532816Y-79996197D01*
X52536326Y-80019858D01*
X52537500Y-80043750D01*
X52537500Y-80956250D01*
X52536326Y-80980142D01*
X52532816Y-81003803D01*
X52527004Y-81027007D01*
X52518946Y-81049529D01*
X52508718Y-81071153D01*
X52496421Y-81091670D01*
X52482171Y-81110883D01*
X52466107Y-81128607D01*
X52448383Y-81144671D01*
X52429170Y-81158921D01*
X52408653Y-81171218D01*
X52387029Y-81181446D01*
X52364507Y-81189504D01*
X52341303Y-81195316D01*
X52317642Y-81198826D01*
X52293750Y-81200000D01*
X51806250Y-81200000D01*
X51782358Y-81198826D01*
X51758697Y-81195316D01*
X51735493Y-81189504D01*
X51712971Y-81181446D01*
X51691347Y-81171218D01*
X51670830Y-81158921D01*
X51651617Y-81144671D01*
X51633893Y-81128607D01*
X51617829Y-81110883D01*
X51603579Y-81091670D01*
X51591282Y-81071153D01*
X51581054Y-81049529D01*
X51572996Y-81027007D01*
X51567184Y-81003803D01*
X51563674Y-80980142D01*
X51562500Y-80956250D01*
X51562500Y-80043750D01*
X51563674Y-80019858D01*
X51567184Y-79996197D01*
X51572996Y-79972993D01*
X51581054Y-79950471D01*
X51591282Y-79928847D01*
X51603579Y-79908330D01*
X51617829Y-79889117D01*
X51633893Y-79871393D01*
X51651617Y-79855329D01*
X51670830Y-79841079D01*
X51691347Y-79828782D01*
X51712971Y-79818554D01*
X51735493Y-79810496D01*
X51758697Y-79804684D01*
X51782358Y-79801174D01*
X51806250Y-79800000D01*
X52293750Y-79800000D01*
X52317642Y-79801174D01*
G37*
G36*
X54192642Y-79801174D02*
G01*
X54216303Y-79804684D01*
X54239507Y-79810496D01*
X54262029Y-79818554D01*
X54283653Y-79828782D01*
X54304170Y-79841079D01*
X54323383Y-79855329D01*
X54341107Y-79871393D01*
X54357171Y-79889117D01*
X54371421Y-79908330D01*
X54383718Y-79928847D01*
X54393946Y-79950471D01*
X54402004Y-79972993D01*
X54407816Y-79996197D01*
X54411326Y-80019858D01*
X54412500Y-80043750D01*
X54412500Y-80956250D01*
X54411326Y-80980142D01*
X54407816Y-81003803D01*
X54402004Y-81027007D01*
X54393946Y-81049529D01*
X54383718Y-81071153D01*
X54371421Y-81091670D01*
X54357171Y-81110883D01*
X54341107Y-81128607D01*
X54323383Y-81144671D01*
X54304170Y-81158921D01*
X54283653Y-81171218D01*
X54262029Y-81181446D01*
X54239507Y-81189504D01*
X54216303Y-81195316D01*
X54192642Y-81198826D01*
X54168750Y-81200000D01*
X53681250Y-81200000D01*
X53657358Y-81198826D01*
X53633697Y-81195316D01*
X53610493Y-81189504D01*
X53587971Y-81181446D01*
X53566347Y-81171218D01*
X53545830Y-81158921D01*
X53526617Y-81144671D01*
X53508893Y-81128607D01*
X53492829Y-81110883D01*
X53478579Y-81091670D01*
X53466282Y-81071153D01*
X53456054Y-81049529D01*
X53447996Y-81027007D01*
X53442184Y-81003803D01*
X53438674Y-80980142D01*
X53437500Y-80956250D01*
X53437500Y-80043750D01*
X53438674Y-80019858D01*
X53442184Y-79996197D01*
X53447996Y-79972993D01*
X53456054Y-79950471D01*
X53466282Y-79928847D01*
X53478579Y-79908330D01*
X53492829Y-79889117D01*
X53508893Y-79871393D01*
X53526617Y-79855329D01*
X53545830Y-79841079D01*
X53566347Y-79828782D01*
X53587971Y-79818554D01*
X53610493Y-79810496D01*
X53633697Y-79804684D01*
X53657358Y-79801174D01*
X53681250Y-79800000D01*
X54168750Y-79800000D01*
X54192642Y-79801174D01*
G37*
G36*
X52310142Y-83421174D02*
G01*
X52333803Y-83424684D01*
X52357007Y-83430496D01*
X52379529Y-83438554D01*
X52401153Y-83448782D01*
X52421670Y-83461079D01*
X52440883Y-83475329D01*
X52458607Y-83491393D01*
X52474671Y-83509117D01*
X52488921Y-83528330D01*
X52501218Y-83548847D01*
X52511446Y-83570471D01*
X52519504Y-83592993D01*
X52525316Y-83616197D01*
X52528826Y-83639858D01*
X52530000Y-83663750D01*
X52530000Y-84576250D01*
X52528826Y-84600142D01*
X52525316Y-84623803D01*
X52519504Y-84647007D01*
X52511446Y-84669529D01*
X52501218Y-84691153D01*
X52488921Y-84711670D01*
X52474671Y-84730883D01*
X52458607Y-84748607D01*
X52440883Y-84764671D01*
X52421670Y-84778921D01*
X52401153Y-84791218D01*
X52379529Y-84801446D01*
X52357007Y-84809504D01*
X52333803Y-84815316D01*
X52310142Y-84818826D01*
X52286250Y-84820000D01*
X51798750Y-84820000D01*
X51774858Y-84818826D01*
X51751197Y-84815316D01*
X51727993Y-84809504D01*
X51705471Y-84801446D01*
X51683847Y-84791218D01*
X51663330Y-84778921D01*
X51644117Y-84764671D01*
X51626393Y-84748607D01*
X51610329Y-84730883D01*
X51596079Y-84711670D01*
X51583782Y-84691153D01*
X51573554Y-84669529D01*
X51565496Y-84647007D01*
X51559684Y-84623803D01*
X51556174Y-84600142D01*
X51555000Y-84576250D01*
X51555000Y-83663750D01*
X51556174Y-83639858D01*
X51559684Y-83616197D01*
X51565496Y-83592993D01*
X51573554Y-83570471D01*
X51583782Y-83548847D01*
X51596079Y-83528330D01*
X51610329Y-83509117D01*
X51626393Y-83491393D01*
X51644117Y-83475329D01*
X51663330Y-83461079D01*
X51683847Y-83448782D01*
X51705471Y-83438554D01*
X51727993Y-83430496D01*
X51751197Y-83424684D01*
X51774858Y-83421174D01*
X51798750Y-83420000D01*
X52286250Y-83420000D01*
X52310142Y-83421174D01*
G37*
G36*
X54185142Y-83421174D02*
G01*
X54208803Y-83424684D01*
X54232007Y-83430496D01*
X54254529Y-83438554D01*
X54276153Y-83448782D01*
X54296670Y-83461079D01*
X54315883Y-83475329D01*
X54333607Y-83491393D01*
X54349671Y-83509117D01*
X54363921Y-83528330D01*
X54376218Y-83548847D01*
X54386446Y-83570471D01*
X54394504Y-83592993D01*
X54400316Y-83616197D01*
X54403826Y-83639858D01*
X54405000Y-83663750D01*
X54405000Y-84576250D01*
X54403826Y-84600142D01*
X54400316Y-84623803D01*
X54394504Y-84647007D01*
X54386446Y-84669529D01*
X54376218Y-84691153D01*
X54363921Y-84711670D01*
X54349671Y-84730883D01*
X54333607Y-84748607D01*
X54315883Y-84764671D01*
X54296670Y-84778921D01*
X54276153Y-84791218D01*
X54254529Y-84801446D01*
X54232007Y-84809504D01*
X54208803Y-84815316D01*
X54185142Y-84818826D01*
X54161250Y-84820000D01*
X53673750Y-84820000D01*
X53649858Y-84818826D01*
X53626197Y-84815316D01*
X53602993Y-84809504D01*
X53580471Y-84801446D01*
X53558847Y-84791218D01*
X53538330Y-84778921D01*
X53519117Y-84764671D01*
X53501393Y-84748607D01*
X53485329Y-84730883D01*
X53471079Y-84711670D01*
X53458782Y-84691153D01*
X53448554Y-84669529D01*
X53440496Y-84647007D01*
X53434684Y-84623803D01*
X53431174Y-84600142D01*
X53430000Y-84576250D01*
X53430000Y-83663750D01*
X53431174Y-83639858D01*
X53434684Y-83616197D01*
X53440496Y-83592993D01*
X53448554Y-83570471D01*
X53458782Y-83548847D01*
X53471079Y-83528330D01*
X53485329Y-83509117D01*
X53501393Y-83491393D01*
X53519117Y-83475329D01*
X53538330Y-83461079D01*
X53558847Y-83448782D01*
X53580471Y-83438554D01*
X53602993Y-83430496D01*
X53626197Y-83424684D01*
X53649858Y-83421174D01*
X53673750Y-83420000D01*
X54161250Y-83420000D01*
X54185142Y-83421174D01*
G37*
G36*
X52280142Y-86801174D02*
G01*
X52303803Y-86804684D01*
X52327007Y-86810496D01*
X52349529Y-86818554D01*
X52371153Y-86828782D01*
X52391670Y-86841079D01*
X52410883Y-86855329D01*
X52428607Y-86871393D01*
X52444671Y-86889117D01*
X52458921Y-86908330D01*
X52471218Y-86928847D01*
X52481446Y-86950471D01*
X52489504Y-86972993D01*
X52495316Y-86996197D01*
X52498826Y-87019858D01*
X52500000Y-87043750D01*
X52500000Y-87956250D01*
X52498826Y-87980142D01*
X52495316Y-88003803D01*
X52489504Y-88027007D01*
X52481446Y-88049529D01*
X52471218Y-88071153D01*
X52458921Y-88091670D01*
X52444671Y-88110883D01*
X52428607Y-88128607D01*
X52410883Y-88144671D01*
X52391670Y-88158921D01*
X52371153Y-88171218D01*
X52349529Y-88181446D01*
X52327007Y-88189504D01*
X52303803Y-88195316D01*
X52280142Y-88198826D01*
X52256250Y-88200000D01*
X51768750Y-88200000D01*
X51744858Y-88198826D01*
X51721197Y-88195316D01*
X51697993Y-88189504D01*
X51675471Y-88181446D01*
X51653847Y-88171218D01*
X51633330Y-88158921D01*
X51614117Y-88144671D01*
X51596393Y-88128607D01*
X51580329Y-88110883D01*
X51566079Y-88091670D01*
X51553782Y-88071153D01*
X51543554Y-88049529D01*
X51535496Y-88027007D01*
X51529684Y-88003803D01*
X51526174Y-87980142D01*
X51525000Y-87956250D01*
X51525000Y-87043750D01*
X51526174Y-87019858D01*
X51529684Y-86996197D01*
X51535496Y-86972993D01*
X51543554Y-86950471D01*
X51553782Y-86928847D01*
X51566079Y-86908330D01*
X51580329Y-86889117D01*
X51596393Y-86871393D01*
X51614117Y-86855329D01*
X51633330Y-86841079D01*
X51653847Y-86828782D01*
X51675471Y-86818554D01*
X51697993Y-86810496D01*
X51721197Y-86804684D01*
X51744858Y-86801174D01*
X51768750Y-86800000D01*
X52256250Y-86800000D01*
X52280142Y-86801174D01*
G37*
G36*
X54155142Y-86801174D02*
G01*
X54178803Y-86804684D01*
X54202007Y-86810496D01*
X54224529Y-86818554D01*
X54246153Y-86828782D01*
X54266670Y-86841079D01*
X54285883Y-86855329D01*
X54303607Y-86871393D01*
X54319671Y-86889117D01*
X54333921Y-86908330D01*
X54346218Y-86928847D01*
X54356446Y-86950471D01*
X54364504Y-86972993D01*
X54370316Y-86996197D01*
X54373826Y-87019858D01*
X54375000Y-87043750D01*
X54375000Y-87956250D01*
X54373826Y-87980142D01*
X54370316Y-88003803D01*
X54364504Y-88027007D01*
X54356446Y-88049529D01*
X54346218Y-88071153D01*
X54333921Y-88091670D01*
X54319671Y-88110883D01*
X54303607Y-88128607D01*
X54285883Y-88144671D01*
X54266670Y-88158921D01*
X54246153Y-88171218D01*
X54224529Y-88181446D01*
X54202007Y-88189504D01*
X54178803Y-88195316D01*
X54155142Y-88198826D01*
X54131250Y-88200000D01*
X53643750Y-88200000D01*
X53619858Y-88198826D01*
X53596197Y-88195316D01*
X53572993Y-88189504D01*
X53550471Y-88181446D01*
X53528847Y-88171218D01*
X53508330Y-88158921D01*
X53489117Y-88144671D01*
X53471393Y-88128607D01*
X53455329Y-88110883D01*
X53441079Y-88091670D01*
X53428782Y-88071153D01*
X53418554Y-88049529D01*
X53410496Y-88027007D01*
X53404684Y-88003803D01*
X53401174Y-87980142D01*
X53400000Y-87956250D01*
X53400000Y-87043750D01*
X53401174Y-87019858D01*
X53404684Y-86996197D01*
X53410496Y-86972993D01*
X53418554Y-86950471D01*
X53428782Y-86928847D01*
X53441079Y-86908330D01*
X53455329Y-86889117D01*
X53471393Y-86871393D01*
X53489117Y-86855329D01*
X53508330Y-86841079D01*
X53528847Y-86828782D01*
X53550471Y-86818554D01*
X53572993Y-86810496D01*
X53596197Y-86804684D01*
X53619858Y-86801174D01*
X53643750Y-86800000D01*
X54131250Y-86800000D01*
X54155142Y-86801174D01*
G37*
G36*
X54205142Y-76331174D02*
G01*
X54228803Y-76334684D01*
X54252007Y-76340496D01*
X54274529Y-76348554D01*
X54296153Y-76358782D01*
X54316670Y-76371079D01*
X54335883Y-76385329D01*
X54353607Y-76401393D01*
X54369671Y-76419117D01*
X54383921Y-76438330D01*
X54396218Y-76458847D01*
X54406446Y-76480471D01*
X54414504Y-76502993D01*
X54420316Y-76526197D01*
X54423826Y-76549858D01*
X54425000Y-76573750D01*
X54425000Y-77486250D01*
X54423826Y-77510142D01*
X54420316Y-77533803D01*
X54414504Y-77557007D01*
X54406446Y-77579529D01*
X54396218Y-77601153D01*
X54383921Y-77621670D01*
X54369671Y-77640883D01*
X54353607Y-77658607D01*
X54335883Y-77674671D01*
X54316670Y-77688921D01*
X54296153Y-77701218D01*
X54274529Y-77711446D01*
X54252007Y-77719504D01*
X54228803Y-77725316D01*
X54205142Y-77728826D01*
X54181250Y-77730000D01*
X53693750Y-77730000D01*
X53669858Y-77728826D01*
X53646197Y-77725316D01*
X53622993Y-77719504D01*
X53600471Y-77711446D01*
X53578847Y-77701218D01*
X53558330Y-77688921D01*
X53539117Y-77674671D01*
X53521393Y-77658607D01*
X53505329Y-77640883D01*
X53491079Y-77621670D01*
X53478782Y-77601153D01*
X53468554Y-77579529D01*
X53460496Y-77557007D01*
X53454684Y-77533803D01*
X53451174Y-77510142D01*
X53450000Y-77486250D01*
X53450000Y-76573750D01*
X53451174Y-76549858D01*
X53454684Y-76526197D01*
X53460496Y-76502993D01*
X53468554Y-76480471D01*
X53478782Y-76458847D01*
X53491079Y-76438330D01*
X53505329Y-76419117D01*
X53521393Y-76401393D01*
X53539117Y-76385329D01*
X53558330Y-76371079D01*
X53578847Y-76358782D01*
X53600471Y-76348554D01*
X53622993Y-76340496D01*
X53646197Y-76334684D01*
X53669858Y-76331174D01*
X53693750Y-76330000D01*
X54181250Y-76330000D01*
X54205142Y-76331174D01*
G37*
G36*
X52330142Y-76331174D02*
G01*
X52353803Y-76334684D01*
X52377007Y-76340496D01*
X52399529Y-76348554D01*
X52421153Y-76358782D01*
X52441670Y-76371079D01*
X52460883Y-76385329D01*
X52478607Y-76401393D01*
X52494671Y-76419117D01*
X52508921Y-76438330D01*
X52521218Y-76458847D01*
X52531446Y-76480471D01*
X52539504Y-76502993D01*
X52545316Y-76526197D01*
X52548826Y-76549858D01*
X52550000Y-76573750D01*
X52550000Y-77486250D01*
X52548826Y-77510142D01*
X52545316Y-77533803D01*
X52539504Y-77557007D01*
X52531446Y-77579529D01*
X52521218Y-77601153D01*
X52508921Y-77621670D01*
X52494671Y-77640883D01*
X52478607Y-77658607D01*
X52460883Y-77674671D01*
X52441670Y-77688921D01*
X52421153Y-77701218D01*
X52399529Y-77711446D01*
X52377007Y-77719504D01*
X52353803Y-77725316D01*
X52330142Y-77728826D01*
X52306250Y-77730000D01*
X51818750Y-77730000D01*
X51794858Y-77728826D01*
X51771197Y-77725316D01*
X51747993Y-77719504D01*
X51725471Y-77711446D01*
X51703847Y-77701218D01*
X51683330Y-77688921D01*
X51664117Y-77674671D01*
X51646393Y-77658607D01*
X51630329Y-77640883D01*
X51616079Y-77621670D01*
X51603782Y-77601153D01*
X51593554Y-77579529D01*
X51585496Y-77557007D01*
X51579684Y-77533803D01*
X51576174Y-77510142D01*
X51575000Y-77486250D01*
X51575000Y-76573750D01*
X51576174Y-76549858D01*
X51579684Y-76526197D01*
X51585496Y-76502993D01*
X51593554Y-76480471D01*
X51603782Y-76458847D01*
X51616079Y-76438330D01*
X51630329Y-76419117D01*
X51646393Y-76401393D01*
X51664117Y-76385329D01*
X51683330Y-76371079D01*
X51703847Y-76358782D01*
X51725471Y-76348554D01*
X51747993Y-76340496D01*
X51771197Y-76334684D01*
X51794858Y-76331174D01*
X51818750Y-76330000D01*
X52306250Y-76330000D01*
X52330142Y-76331174D01*
G37*
G36*
X85240142Y-90021174D02*
G01*
X85263803Y-90024684D01*
X85287007Y-90030496D01*
X85309529Y-90038554D01*
X85331153Y-90048782D01*
X85351670Y-90061079D01*
X85370883Y-90075329D01*
X85388607Y-90091393D01*
X85404671Y-90109117D01*
X85418921Y-90128330D01*
X85431218Y-90148847D01*
X85441446Y-90170471D01*
X85449504Y-90192993D01*
X85455316Y-90216197D01*
X85458826Y-90239858D01*
X85460000Y-90263750D01*
X85460000Y-91176250D01*
X85458826Y-91200142D01*
X85455316Y-91223803D01*
X85449504Y-91247007D01*
X85441446Y-91269529D01*
X85431218Y-91291153D01*
X85418921Y-91311670D01*
X85404671Y-91330883D01*
X85388607Y-91348607D01*
X85370883Y-91364671D01*
X85351670Y-91378921D01*
X85331153Y-91391218D01*
X85309529Y-91401446D01*
X85287007Y-91409504D01*
X85263803Y-91415316D01*
X85240142Y-91418826D01*
X85216250Y-91420000D01*
X84728750Y-91420000D01*
X84704858Y-91418826D01*
X84681197Y-91415316D01*
X84657993Y-91409504D01*
X84635471Y-91401446D01*
X84613847Y-91391218D01*
X84593330Y-91378921D01*
X84574117Y-91364671D01*
X84556393Y-91348607D01*
X84540329Y-91330883D01*
X84526079Y-91311670D01*
X84513782Y-91291153D01*
X84503554Y-91269529D01*
X84495496Y-91247007D01*
X84489684Y-91223803D01*
X84486174Y-91200142D01*
X84485000Y-91176250D01*
X84485000Y-90263750D01*
X84486174Y-90239858D01*
X84489684Y-90216197D01*
X84495496Y-90192993D01*
X84503554Y-90170471D01*
X84513782Y-90148847D01*
X84526079Y-90128330D01*
X84540329Y-90109117D01*
X84556393Y-90091393D01*
X84574117Y-90075329D01*
X84593330Y-90061079D01*
X84613847Y-90048782D01*
X84635471Y-90038554D01*
X84657993Y-90030496D01*
X84681197Y-90024684D01*
X84704858Y-90021174D01*
X84728750Y-90020000D01*
X85216250Y-90020000D01*
X85240142Y-90021174D01*
G37*
G36*
X87115142Y-90021174D02*
G01*
X87138803Y-90024684D01*
X87162007Y-90030496D01*
X87184529Y-90038554D01*
X87206153Y-90048782D01*
X87226670Y-90061079D01*
X87245883Y-90075329D01*
X87263607Y-90091393D01*
X87279671Y-90109117D01*
X87293921Y-90128330D01*
X87306218Y-90148847D01*
X87316446Y-90170471D01*
X87324504Y-90192993D01*
X87330316Y-90216197D01*
X87333826Y-90239858D01*
X87335000Y-90263750D01*
X87335000Y-91176250D01*
X87333826Y-91200142D01*
X87330316Y-91223803D01*
X87324504Y-91247007D01*
X87316446Y-91269529D01*
X87306218Y-91291153D01*
X87293921Y-91311670D01*
X87279671Y-91330883D01*
X87263607Y-91348607D01*
X87245883Y-91364671D01*
X87226670Y-91378921D01*
X87206153Y-91391218D01*
X87184529Y-91401446D01*
X87162007Y-91409504D01*
X87138803Y-91415316D01*
X87115142Y-91418826D01*
X87091250Y-91420000D01*
X86603750Y-91420000D01*
X86579858Y-91418826D01*
X86556197Y-91415316D01*
X86532993Y-91409504D01*
X86510471Y-91401446D01*
X86488847Y-91391218D01*
X86468330Y-91378921D01*
X86449117Y-91364671D01*
X86431393Y-91348607D01*
X86415329Y-91330883D01*
X86401079Y-91311670D01*
X86388782Y-91291153D01*
X86378554Y-91269529D01*
X86370496Y-91247007D01*
X86364684Y-91223803D01*
X86361174Y-91200142D01*
X86360000Y-91176250D01*
X86360000Y-90263750D01*
X86361174Y-90239858D01*
X86364684Y-90216197D01*
X86370496Y-90192993D01*
X86378554Y-90170471D01*
X86388782Y-90148847D01*
X86401079Y-90128330D01*
X86415329Y-90109117D01*
X86431393Y-90091393D01*
X86449117Y-90075329D01*
X86468330Y-90061079D01*
X86488847Y-90048782D01*
X86510471Y-90038554D01*
X86532993Y-90030496D01*
X86556197Y-90024684D01*
X86579858Y-90021174D01*
X86603750Y-90020000D01*
X87091250Y-90020000D01*
X87115142Y-90021174D01*
G37*
G36*
X82870142Y-90261174D02*
G01*
X82893803Y-90264684D01*
X82917007Y-90270496D01*
X82939529Y-90278554D01*
X82961153Y-90288782D01*
X82981670Y-90301079D01*
X83000883Y-90315329D01*
X83018607Y-90331393D01*
X83034671Y-90349117D01*
X83048921Y-90368330D01*
X83061218Y-90388847D01*
X83071446Y-90410471D01*
X83079504Y-90432993D01*
X83085316Y-90456197D01*
X83088826Y-90479858D01*
X83090000Y-90503750D01*
X83090000Y-90991250D01*
X83088826Y-91015142D01*
X83085316Y-91038803D01*
X83079504Y-91062007D01*
X83071446Y-91084529D01*
X83061218Y-91106153D01*
X83048921Y-91126670D01*
X83034671Y-91145883D01*
X83018607Y-91163607D01*
X83000883Y-91179671D01*
X82981670Y-91193921D01*
X82961153Y-91206218D01*
X82939529Y-91216446D01*
X82917007Y-91224504D01*
X82893803Y-91230316D01*
X82870142Y-91233826D01*
X82846250Y-91235000D01*
X81933750Y-91235000D01*
X81909858Y-91233826D01*
X81886197Y-91230316D01*
X81862993Y-91224504D01*
X81840471Y-91216446D01*
X81818847Y-91206218D01*
X81798330Y-91193921D01*
X81779117Y-91179671D01*
X81761393Y-91163607D01*
X81745329Y-91145883D01*
X81731079Y-91126670D01*
X81718782Y-91106153D01*
X81708554Y-91084529D01*
X81700496Y-91062007D01*
X81694684Y-91038803D01*
X81691174Y-91015142D01*
X81690000Y-90991250D01*
X81690000Y-90503750D01*
X81691174Y-90479858D01*
X81694684Y-90456197D01*
X81700496Y-90432993D01*
X81708554Y-90410471D01*
X81718782Y-90388847D01*
X81731079Y-90368330D01*
X81745329Y-90349117D01*
X81761393Y-90331393D01*
X81779117Y-90315329D01*
X81798330Y-90301079D01*
X81818847Y-90288782D01*
X81840471Y-90278554D01*
X81862993Y-90270496D01*
X81886197Y-90264684D01*
X81909858Y-90261174D01*
X81933750Y-90260000D01*
X82846250Y-90260000D01*
X82870142Y-90261174D01*
G37*
G36*
X82870142Y-88386174D02*
G01*
X82893803Y-88389684D01*
X82917007Y-88395496D01*
X82939529Y-88403554D01*
X82961153Y-88413782D01*
X82981670Y-88426079D01*
X83000883Y-88440329D01*
X83018607Y-88456393D01*
X83034671Y-88474117D01*
X83048921Y-88493330D01*
X83061218Y-88513847D01*
X83071446Y-88535471D01*
X83079504Y-88557993D01*
X83085316Y-88581197D01*
X83088826Y-88604858D01*
X83090000Y-88628750D01*
X83090000Y-89116250D01*
X83088826Y-89140142D01*
X83085316Y-89163803D01*
X83079504Y-89187007D01*
X83071446Y-89209529D01*
X83061218Y-89231153D01*
X83048921Y-89251670D01*
X83034671Y-89270883D01*
X83018607Y-89288607D01*
X83000883Y-89304671D01*
X82981670Y-89318921D01*
X82961153Y-89331218D01*
X82939529Y-89341446D01*
X82917007Y-89349504D01*
X82893803Y-89355316D01*
X82870142Y-89358826D01*
X82846250Y-89360000D01*
X81933750Y-89360000D01*
X81909858Y-89358826D01*
X81886197Y-89355316D01*
X81862993Y-89349504D01*
X81840471Y-89341446D01*
X81818847Y-89331218D01*
X81798330Y-89318921D01*
X81779117Y-89304671D01*
X81761393Y-89288607D01*
X81745329Y-89270883D01*
X81731079Y-89251670D01*
X81718782Y-89231153D01*
X81708554Y-89209529D01*
X81700496Y-89187007D01*
X81694684Y-89163803D01*
X81691174Y-89140142D01*
X81690000Y-89116250D01*
X81690000Y-88628750D01*
X81691174Y-88604858D01*
X81694684Y-88581197D01*
X81700496Y-88557993D01*
X81708554Y-88535471D01*
X81718782Y-88513847D01*
X81731079Y-88493330D01*
X81745329Y-88474117D01*
X81761393Y-88456393D01*
X81779117Y-88440329D01*
X81798330Y-88426079D01*
X81818847Y-88413782D01*
X81840471Y-88403554D01*
X81862993Y-88395496D01*
X81886197Y-88389684D01*
X81909858Y-88386174D01*
X81933750Y-88385000D01*
X82846250Y-88385000D01*
X82870142Y-88386174D01*
G37*
G36*
X111017143Y-85366175D02*
G01*
X111040804Y-85369685D01*
X111064008Y-85375497D01*
X111086530Y-85383555D01*
X111108154Y-85393783D01*
X111128671Y-85406080D01*
X111147884Y-85420330D01*
X111165608Y-85436394D01*
X111181672Y-85454118D01*
X111195922Y-85473331D01*
X111208219Y-85493848D01*
X111218447Y-85515472D01*
X111226505Y-85537994D01*
X111232317Y-85561198D01*
X111235827Y-85584859D01*
X111237001Y-85608751D01*
X111237001Y-86521251D01*
X111235827Y-86545143D01*
X111232317Y-86568804D01*
X111226505Y-86592008D01*
X111218447Y-86614530D01*
X111208219Y-86636154D01*
X111195922Y-86656671D01*
X111181672Y-86675884D01*
X111165608Y-86693608D01*
X111147884Y-86709672D01*
X111128671Y-86723922D01*
X111108154Y-86736219D01*
X111086530Y-86746447D01*
X111064008Y-86754505D01*
X111040804Y-86760317D01*
X111017143Y-86763827D01*
X110993251Y-86765001D01*
X110505751Y-86765001D01*
X110481859Y-86763827D01*
X110458198Y-86760317D01*
X110434994Y-86754505D01*
X110412472Y-86746447D01*
X110390848Y-86736219D01*
X110370331Y-86723922D01*
X110351118Y-86709672D01*
X110333394Y-86693608D01*
X110317330Y-86675884D01*
X110303080Y-86656671D01*
X110290783Y-86636154D01*
X110280555Y-86614530D01*
X110272497Y-86592008D01*
X110266685Y-86568804D01*
X110263175Y-86545143D01*
X110262001Y-86521251D01*
X110262001Y-85608751D01*
X110263175Y-85584859D01*
X110266685Y-85561198D01*
X110272497Y-85537994D01*
X110280555Y-85515472D01*
X110290783Y-85493848D01*
X110303080Y-85473331D01*
X110317330Y-85454118D01*
X110333394Y-85436394D01*
X110351118Y-85420330D01*
X110370331Y-85406080D01*
X110390848Y-85393783D01*
X110412472Y-85383555D01*
X110434994Y-85375497D01*
X110458198Y-85369685D01*
X110481859Y-85366175D01*
X110505751Y-85365001D01*
X110993251Y-85365001D01*
X111017143Y-85366175D01*
G37*
G36*
X112892143Y-85366175D02*
G01*
X112915804Y-85369685D01*
X112939008Y-85375497D01*
X112961530Y-85383555D01*
X112983154Y-85393783D01*
X113003671Y-85406080D01*
X113022884Y-85420330D01*
X113040608Y-85436394D01*
X113056672Y-85454118D01*
X113070922Y-85473331D01*
X113083219Y-85493848D01*
X113093447Y-85515472D01*
X113101505Y-85537994D01*
X113107317Y-85561198D01*
X113110827Y-85584859D01*
X113112001Y-85608751D01*
X113112001Y-86521251D01*
X113110827Y-86545143D01*
X113107317Y-86568804D01*
X113101505Y-86592008D01*
X113093447Y-86614530D01*
X113083219Y-86636154D01*
X113070922Y-86656671D01*
X113056672Y-86675884D01*
X113040608Y-86693608D01*
X113022884Y-86709672D01*
X113003671Y-86723922D01*
X112983154Y-86736219D01*
X112961530Y-86746447D01*
X112939008Y-86754505D01*
X112915804Y-86760317D01*
X112892143Y-86763827D01*
X112868251Y-86765001D01*
X112380751Y-86765001D01*
X112356859Y-86763827D01*
X112333198Y-86760317D01*
X112309994Y-86754505D01*
X112287472Y-86746447D01*
X112265848Y-86736219D01*
X112245331Y-86723922D01*
X112226118Y-86709672D01*
X112208394Y-86693608D01*
X112192330Y-86675884D01*
X112178080Y-86656671D01*
X112165783Y-86636154D01*
X112155555Y-86614530D01*
X112147497Y-86592008D01*
X112141685Y-86568804D01*
X112138175Y-86545143D01*
X112137001Y-86521251D01*
X112137001Y-85608751D01*
X112138175Y-85584859D01*
X112141685Y-85561198D01*
X112147497Y-85537994D01*
X112155555Y-85515472D01*
X112165783Y-85493848D01*
X112178080Y-85473331D01*
X112192330Y-85454118D01*
X112208394Y-85436394D01*
X112226118Y-85420330D01*
X112245331Y-85406080D01*
X112265848Y-85393783D01*
X112287472Y-85383555D01*
X112309994Y-85375497D01*
X112333198Y-85369685D01*
X112356859Y-85366175D01*
X112380751Y-85365001D01*
X112868251Y-85365001D01*
X112892143Y-85366175D01*
G37*
G36*
X112892143Y-88316175D02*
G01*
X112915804Y-88319685D01*
X112939008Y-88325497D01*
X112961530Y-88333555D01*
X112983154Y-88343783D01*
X113003671Y-88356080D01*
X113022884Y-88370330D01*
X113040608Y-88386394D01*
X113056672Y-88404118D01*
X113070922Y-88423331D01*
X113083219Y-88443848D01*
X113093447Y-88465472D01*
X113101505Y-88487994D01*
X113107317Y-88511198D01*
X113110827Y-88534859D01*
X113112001Y-88558751D01*
X113112001Y-89471251D01*
X113110827Y-89495143D01*
X113107317Y-89518804D01*
X113101505Y-89542008D01*
X113093447Y-89564530D01*
X113083219Y-89586154D01*
X113070922Y-89606671D01*
X113056672Y-89625884D01*
X113040608Y-89643608D01*
X113022884Y-89659672D01*
X113003671Y-89673922D01*
X112983154Y-89686219D01*
X112961530Y-89696447D01*
X112939008Y-89704505D01*
X112915804Y-89710317D01*
X112892143Y-89713827D01*
X112868251Y-89715001D01*
X112380751Y-89715001D01*
X112356859Y-89713827D01*
X112333198Y-89710317D01*
X112309994Y-89704505D01*
X112287472Y-89696447D01*
X112265848Y-89686219D01*
X112245331Y-89673922D01*
X112226118Y-89659672D01*
X112208394Y-89643608D01*
X112192330Y-89625884D01*
X112178080Y-89606671D01*
X112165783Y-89586154D01*
X112155555Y-89564530D01*
X112147497Y-89542008D01*
X112141685Y-89518804D01*
X112138175Y-89495143D01*
X112137001Y-89471251D01*
X112137001Y-88558751D01*
X112138175Y-88534859D01*
X112141685Y-88511198D01*
X112147497Y-88487994D01*
X112155555Y-88465472D01*
X112165783Y-88443848D01*
X112178080Y-88423331D01*
X112192330Y-88404118D01*
X112208394Y-88386394D01*
X112226118Y-88370330D01*
X112245331Y-88356080D01*
X112265848Y-88343783D01*
X112287472Y-88333555D01*
X112309994Y-88325497D01*
X112333198Y-88319685D01*
X112356859Y-88316175D01*
X112380751Y-88315001D01*
X112868251Y-88315001D01*
X112892143Y-88316175D01*
G37*
G36*
X111017143Y-88316175D02*
G01*
X111040804Y-88319685D01*
X111064008Y-88325497D01*
X111086530Y-88333555D01*
X111108154Y-88343783D01*
X111128671Y-88356080D01*
X111147884Y-88370330D01*
X111165608Y-88386394D01*
X111181672Y-88404118D01*
X111195922Y-88423331D01*
X111208219Y-88443848D01*
X111218447Y-88465472D01*
X111226505Y-88487994D01*
X111232317Y-88511198D01*
X111235827Y-88534859D01*
X111237001Y-88558751D01*
X111237001Y-89471251D01*
X111235827Y-89495143D01*
X111232317Y-89518804D01*
X111226505Y-89542008D01*
X111218447Y-89564530D01*
X111208219Y-89586154D01*
X111195922Y-89606671D01*
X111181672Y-89625884D01*
X111165608Y-89643608D01*
X111147884Y-89659672D01*
X111128671Y-89673922D01*
X111108154Y-89686219D01*
X111086530Y-89696447D01*
X111064008Y-89704505D01*
X111040804Y-89710317D01*
X111017143Y-89713827D01*
X110993251Y-89715001D01*
X110505751Y-89715001D01*
X110481859Y-89713827D01*
X110458198Y-89710317D01*
X110434994Y-89704505D01*
X110412472Y-89696447D01*
X110390848Y-89686219D01*
X110370331Y-89673922D01*
X110351118Y-89659672D01*
X110333394Y-89643608D01*
X110317330Y-89625884D01*
X110303080Y-89606671D01*
X110290783Y-89586154D01*
X110280555Y-89564530D01*
X110272497Y-89542008D01*
X110266685Y-89518804D01*
X110263175Y-89495143D01*
X110262001Y-89471251D01*
X110262001Y-88558751D01*
X110263175Y-88534859D01*
X110266685Y-88511198D01*
X110272497Y-88487994D01*
X110280555Y-88465472D01*
X110290783Y-88443848D01*
X110303080Y-88423331D01*
X110317330Y-88404118D01*
X110333394Y-88386394D01*
X110351118Y-88370330D01*
X110370331Y-88356080D01*
X110390848Y-88343783D01*
X110412472Y-88333555D01*
X110434994Y-88325497D01*
X110458198Y-88319685D01*
X110481859Y-88316175D01*
X110505751Y-88315001D01*
X110993251Y-88315001D01*
X111017143Y-88316175D01*
G37*
G36*
X110836142Y-82105174D02*
G01*
X110859803Y-82108684D01*
X110883007Y-82114496D01*
X110905529Y-82122554D01*
X110927153Y-82132782D01*
X110947670Y-82145079D01*
X110966883Y-82159329D01*
X110984607Y-82175393D01*
X111000671Y-82193117D01*
X111014921Y-82212330D01*
X111027218Y-82232847D01*
X111037446Y-82254471D01*
X111045504Y-82276993D01*
X111051316Y-82300197D01*
X111054826Y-82323858D01*
X111056000Y-82347750D01*
X111056000Y-83260250D01*
X111054826Y-83284142D01*
X111051316Y-83307803D01*
X111045504Y-83331007D01*
X111037446Y-83353529D01*
X111027218Y-83375153D01*
X111014921Y-83395670D01*
X111000671Y-83414883D01*
X110984607Y-83432607D01*
X110966883Y-83448671D01*
X110947670Y-83462921D01*
X110927153Y-83475218D01*
X110905529Y-83485446D01*
X110883007Y-83493504D01*
X110859803Y-83499316D01*
X110836142Y-83502826D01*
X110812250Y-83504000D01*
X110324750Y-83504000D01*
X110300858Y-83502826D01*
X110277197Y-83499316D01*
X110253993Y-83493504D01*
X110231471Y-83485446D01*
X110209847Y-83475218D01*
X110189330Y-83462921D01*
X110170117Y-83448671D01*
X110152393Y-83432607D01*
X110136329Y-83414883D01*
X110122079Y-83395670D01*
X110109782Y-83375153D01*
X110099554Y-83353529D01*
X110091496Y-83331007D01*
X110085684Y-83307803D01*
X110082174Y-83284142D01*
X110081000Y-83260250D01*
X110081000Y-82347750D01*
X110082174Y-82323858D01*
X110085684Y-82300197D01*
X110091496Y-82276993D01*
X110099554Y-82254471D01*
X110109782Y-82232847D01*
X110122079Y-82212330D01*
X110136329Y-82193117D01*
X110152393Y-82175393D01*
X110170117Y-82159329D01*
X110189330Y-82145079D01*
X110209847Y-82132782D01*
X110231471Y-82122554D01*
X110253993Y-82114496D01*
X110277197Y-82108684D01*
X110300858Y-82105174D01*
X110324750Y-82104000D01*
X110812250Y-82104000D01*
X110836142Y-82105174D01*
G37*
G36*
X112711142Y-82105174D02*
G01*
X112734803Y-82108684D01*
X112758007Y-82114496D01*
X112780529Y-82122554D01*
X112802153Y-82132782D01*
X112822670Y-82145079D01*
X112841883Y-82159329D01*
X112859607Y-82175393D01*
X112875671Y-82193117D01*
X112889921Y-82212330D01*
X112902218Y-82232847D01*
X112912446Y-82254471D01*
X112920504Y-82276993D01*
X112926316Y-82300197D01*
X112929826Y-82323858D01*
X112931000Y-82347750D01*
X112931000Y-83260250D01*
X112929826Y-83284142D01*
X112926316Y-83307803D01*
X112920504Y-83331007D01*
X112912446Y-83353529D01*
X112902218Y-83375153D01*
X112889921Y-83395670D01*
X112875671Y-83414883D01*
X112859607Y-83432607D01*
X112841883Y-83448671D01*
X112822670Y-83462921D01*
X112802153Y-83475218D01*
X112780529Y-83485446D01*
X112758007Y-83493504D01*
X112734803Y-83499316D01*
X112711142Y-83502826D01*
X112687250Y-83504000D01*
X112199750Y-83504000D01*
X112175858Y-83502826D01*
X112152197Y-83499316D01*
X112128993Y-83493504D01*
X112106471Y-83485446D01*
X112084847Y-83475218D01*
X112064330Y-83462921D01*
X112045117Y-83448671D01*
X112027393Y-83432607D01*
X112011329Y-83414883D01*
X111997079Y-83395670D01*
X111984782Y-83375153D01*
X111974554Y-83353529D01*
X111966496Y-83331007D01*
X111960684Y-83307803D01*
X111957174Y-83284142D01*
X111956000Y-83260250D01*
X111956000Y-82347750D01*
X111957174Y-82323858D01*
X111960684Y-82300197D01*
X111966496Y-82276993D01*
X111974554Y-82254471D01*
X111984782Y-82232847D01*
X111997079Y-82212330D01*
X112011329Y-82193117D01*
X112027393Y-82175393D01*
X112045117Y-82159329D01*
X112064330Y-82145079D01*
X112084847Y-82132782D01*
X112106471Y-82122554D01*
X112128993Y-82114496D01*
X112152197Y-82108684D01*
X112175858Y-82105174D01*
X112199750Y-82104000D01*
X112687250Y-82104000D01*
X112711142Y-82105174D01*
G37*
G36*
X121679642Y-54927174D02*
G01*
X121703303Y-54930684D01*
X121726507Y-54936496D01*
X121749029Y-54944554D01*
X121770653Y-54954782D01*
X121791170Y-54967079D01*
X121810383Y-54981329D01*
X121828107Y-54997393D01*
X121844171Y-55015117D01*
X121858421Y-55034330D01*
X121870718Y-55054847D01*
X121880946Y-55076471D01*
X121889004Y-55098993D01*
X121894816Y-55122197D01*
X121898326Y-55145858D01*
X121899500Y-55169750D01*
X121899500Y-56082250D01*
X121898326Y-56106142D01*
X121894816Y-56129803D01*
X121889004Y-56153007D01*
X121880946Y-56175529D01*
X121870718Y-56197153D01*
X121858421Y-56217670D01*
X121844171Y-56236883D01*
X121828107Y-56254607D01*
X121810383Y-56270671D01*
X121791170Y-56284921D01*
X121770653Y-56297218D01*
X121749029Y-56307446D01*
X121726507Y-56315504D01*
X121703303Y-56321316D01*
X121679642Y-56324826D01*
X121655750Y-56326000D01*
X121168250Y-56326000D01*
X121144358Y-56324826D01*
X121120697Y-56321316D01*
X121097493Y-56315504D01*
X121074971Y-56307446D01*
X121053347Y-56297218D01*
X121032830Y-56284921D01*
X121013617Y-56270671D01*
X120995893Y-56254607D01*
X120979829Y-56236883D01*
X120965579Y-56217670D01*
X120953282Y-56197153D01*
X120943054Y-56175529D01*
X120934996Y-56153007D01*
X120929184Y-56129803D01*
X120925674Y-56106142D01*
X120924500Y-56082250D01*
X120924500Y-55169750D01*
X120925674Y-55145858D01*
X120929184Y-55122197D01*
X120934996Y-55098993D01*
X120943054Y-55076471D01*
X120953282Y-55054847D01*
X120965579Y-55034330D01*
X120979829Y-55015117D01*
X120995893Y-54997393D01*
X121013617Y-54981329D01*
X121032830Y-54967079D01*
X121053347Y-54954782D01*
X121074971Y-54944554D01*
X121097493Y-54936496D01*
X121120697Y-54930684D01*
X121144358Y-54927174D01*
X121168250Y-54926000D01*
X121655750Y-54926000D01*
X121679642Y-54927174D01*
G37*
G36*
X123554642Y-54927174D02*
G01*
X123578303Y-54930684D01*
X123601507Y-54936496D01*
X123624029Y-54944554D01*
X123645653Y-54954782D01*
X123666170Y-54967079D01*
X123685383Y-54981329D01*
X123703107Y-54997393D01*
X123719171Y-55015117D01*
X123733421Y-55034330D01*
X123745718Y-55054847D01*
X123755946Y-55076471D01*
X123764004Y-55098993D01*
X123769816Y-55122197D01*
X123773326Y-55145858D01*
X123774500Y-55169750D01*
X123774500Y-56082250D01*
X123773326Y-56106142D01*
X123769816Y-56129803D01*
X123764004Y-56153007D01*
X123755946Y-56175529D01*
X123745718Y-56197153D01*
X123733421Y-56217670D01*
X123719171Y-56236883D01*
X123703107Y-56254607D01*
X123685383Y-56270671D01*
X123666170Y-56284921D01*
X123645653Y-56297218D01*
X123624029Y-56307446D01*
X123601507Y-56315504D01*
X123578303Y-56321316D01*
X123554642Y-56324826D01*
X123530750Y-56326000D01*
X123043250Y-56326000D01*
X123019358Y-56324826D01*
X122995697Y-56321316D01*
X122972493Y-56315504D01*
X122949971Y-56307446D01*
X122928347Y-56297218D01*
X122907830Y-56284921D01*
X122888617Y-56270671D01*
X122870893Y-56254607D01*
X122854829Y-56236883D01*
X122840579Y-56217670D01*
X122828282Y-56197153D01*
X122818054Y-56175529D01*
X122809996Y-56153007D01*
X122804184Y-56129803D01*
X122800674Y-56106142D01*
X122799500Y-56082250D01*
X122799500Y-55169750D01*
X122800674Y-55145858D01*
X122804184Y-55122197D01*
X122809996Y-55098993D01*
X122818054Y-55076471D01*
X122828282Y-55054847D01*
X122840579Y-55034330D01*
X122854829Y-55015117D01*
X122870893Y-54997393D01*
X122888617Y-54981329D01*
X122907830Y-54967079D01*
X122928347Y-54954782D01*
X122949971Y-54944554D01*
X122972493Y-54936496D01*
X122995697Y-54930684D01*
X123019358Y-54927174D01*
X123043250Y-54926000D01*
X123530750Y-54926000D01*
X123554642Y-54927174D01*
G37*
G36*
X85182142Y-87693174D02*
G01*
X85205803Y-87696684D01*
X85229007Y-87702496D01*
X85251529Y-87710554D01*
X85273153Y-87720782D01*
X85293670Y-87733079D01*
X85312883Y-87747329D01*
X85330607Y-87763393D01*
X85346671Y-87781117D01*
X85360921Y-87800330D01*
X85373218Y-87820847D01*
X85383446Y-87842471D01*
X85391504Y-87864993D01*
X85397316Y-87888197D01*
X85400826Y-87911858D01*
X85402000Y-87935750D01*
X85402000Y-88848250D01*
X85400826Y-88872142D01*
X85397316Y-88895803D01*
X85391504Y-88919007D01*
X85383446Y-88941529D01*
X85373218Y-88963153D01*
X85360921Y-88983670D01*
X85346671Y-89002883D01*
X85330607Y-89020607D01*
X85312883Y-89036671D01*
X85293670Y-89050921D01*
X85273153Y-89063218D01*
X85251529Y-89073446D01*
X85229007Y-89081504D01*
X85205803Y-89087316D01*
X85182142Y-89090826D01*
X85158250Y-89092000D01*
X84670750Y-89092000D01*
X84646858Y-89090826D01*
X84623197Y-89087316D01*
X84599993Y-89081504D01*
X84577471Y-89073446D01*
X84555847Y-89063218D01*
X84535330Y-89050921D01*
X84516117Y-89036671D01*
X84498393Y-89020607D01*
X84482329Y-89002883D01*
X84468079Y-88983670D01*
X84455782Y-88963153D01*
X84445554Y-88941529D01*
X84437496Y-88919007D01*
X84431684Y-88895803D01*
X84428174Y-88872142D01*
X84427000Y-88848250D01*
X84427000Y-87935750D01*
X84428174Y-87911858D01*
X84431684Y-87888197D01*
X84437496Y-87864993D01*
X84445554Y-87842471D01*
X84455782Y-87820847D01*
X84468079Y-87800330D01*
X84482329Y-87781117D01*
X84498393Y-87763393D01*
X84516117Y-87747329D01*
X84535330Y-87733079D01*
X84555847Y-87720782D01*
X84577471Y-87710554D01*
X84599993Y-87702496D01*
X84623197Y-87696684D01*
X84646858Y-87693174D01*
X84670750Y-87692000D01*
X85158250Y-87692000D01*
X85182142Y-87693174D01*
G37*
G36*
X87057142Y-87693174D02*
G01*
X87080803Y-87696684D01*
X87104007Y-87702496D01*
X87126529Y-87710554D01*
X87148153Y-87720782D01*
X87168670Y-87733079D01*
X87187883Y-87747329D01*
X87205607Y-87763393D01*
X87221671Y-87781117D01*
X87235921Y-87800330D01*
X87248218Y-87820847D01*
X87258446Y-87842471D01*
X87266504Y-87864993D01*
X87272316Y-87888197D01*
X87275826Y-87911858D01*
X87277000Y-87935750D01*
X87277000Y-88848250D01*
X87275826Y-88872142D01*
X87272316Y-88895803D01*
X87266504Y-88919007D01*
X87258446Y-88941529D01*
X87248218Y-88963153D01*
X87235921Y-88983670D01*
X87221671Y-89002883D01*
X87205607Y-89020607D01*
X87187883Y-89036671D01*
X87168670Y-89050921D01*
X87148153Y-89063218D01*
X87126529Y-89073446D01*
X87104007Y-89081504D01*
X87080803Y-89087316D01*
X87057142Y-89090826D01*
X87033250Y-89092000D01*
X86545750Y-89092000D01*
X86521858Y-89090826D01*
X86498197Y-89087316D01*
X86474993Y-89081504D01*
X86452471Y-89073446D01*
X86430847Y-89063218D01*
X86410330Y-89050921D01*
X86391117Y-89036671D01*
X86373393Y-89020607D01*
X86357329Y-89002883D01*
X86343079Y-88983670D01*
X86330782Y-88963153D01*
X86320554Y-88941529D01*
X86312496Y-88919007D01*
X86306684Y-88895803D01*
X86303174Y-88872142D01*
X86302000Y-88848250D01*
X86302000Y-87935750D01*
X86303174Y-87911858D01*
X86306684Y-87888197D01*
X86312496Y-87864993D01*
X86320554Y-87842471D01*
X86330782Y-87820847D01*
X86343079Y-87800330D01*
X86357329Y-87781117D01*
X86373393Y-87763393D01*
X86391117Y-87747329D01*
X86410330Y-87733079D01*
X86430847Y-87720782D01*
X86452471Y-87710554D01*
X86474993Y-87702496D01*
X86498197Y-87696684D01*
X86521858Y-87693174D01*
X86545750Y-87692000D01*
X87033250Y-87692000D01*
X87057142Y-87693174D01*
G37*
G36*
X88835142Y-78549174D02*
G01*
X88858803Y-78552684D01*
X88882007Y-78558496D01*
X88904529Y-78566554D01*
X88926153Y-78576782D01*
X88946670Y-78589079D01*
X88965883Y-78603329D01*
X88983607Y-78619393D01*
X88999671Y-78637117D01*
X89013921Y-78656330D01*
X89026218Y-78676847D01*
X89036446Y-78698471D01*
X89044504Y-78720993D01*
X89050316Y-78744197D01*
X89053826Y-78767858D01*
X89055000Y-78791750D01*
X89055000Y-79704250D01*
X89053826Y-79728142D01*
X89050316Y-79751803D01*
X89044504Y-79775007D01*
X89036446Y-79797529D01*
X89026218Y-79819153D01*
X89013921Y-79839670D01*
X88999671Y-79858883D01*
X88983607Y-79876607D01*
X88965883Y-79892671D01*
X88946670Y-79906921D01*
X88926153Y-79919218D01*
X88904529Y-79929446D01*
X88882007Y-79937504D01*
X88858803Y-79943316D01*
X88835142Y-79946826D01*
X88811250Y-79948000D01*
X88323750Y-79948000D01*
X88299858Y-79946826D01*
X88276197Y-79943316D01*
X88252993Y-79937504D01*
X88230471Y-79929446D01*
X88208847Y-79919218D01*
X88188330Y-79906921D01*
X88169117Y-79892671D01*
X88151393Y-79876607D01*
X88135329Y-79858883D01*
X88121079Y-79839670D01*
X88108782Y-79819153D01*
X88098554Y-79797529D01*
X88090496Y-79775007D01*
X88084684Y-79751803D01*
X88081174Y-79728142D01*
X88080000Y-79704250D01*
X88080000Y-78791750D01*
X88081174Y-78767858D01*
X88084684Y-78744197D01*
X88090496Y-78720993D01*
X88098554Y-78698471D01*
X88108782Y-78676847D01*
X88121079Y-78656330D01*
X88135329Y-78637117D01*
X88151393Y-78619393D01*
X88169117Y-78603329D01*
X88188330Y-78589079D01*
X88208847Y-78576782D01*
X88230471Y-78566554D01*
X88252993Y-78558496D01*
X88276197Y-78552684D01*
X88299858Y-78549174D01*
X88323750Y-78548000D01*
X88811250Y-78548000D01*
X88835142Y-78549174D01*
G37*
G36*
X86960142Y-78549174D02*
G01*
X86983803Y-78552684D01*
X87007007Y-78558496D01*
X87029529Y-78566554D01*
X87051153Y-78576782D01*
X87071670Y-78589079D01*
X87090883Y-78603329D01*
X87108607Y-78619393D01*
X87124671Y-78637117D01*
X87138921Y-78656330D01*
X87151218Y-78676847D01*
X87161446Y-78698471D01*
X87169504Y-78720993D01*
X87175316Y-78744197D01*
X87178826Y-78767858D01*
X87180000Y-78791750D01*
X87180000Y-79704250D01*
X87178826Y-79728142D01*
X87175316Y-79751803D01*
X87169504Y-79775007D01*
X87161446Y-79797529D01*
X87151218Y-79819153D01*
X87138921Y-79839670D01*
X87124671Y-79858883D01*
X87108607Y-79876607D01*
X87090883Y-79892671D01*
X87071670Y-79906921D01*
X87051153Y-79919218D01*
X87029529Y-79929446D01*
X87007007Y-79937504D01*
X86983803Y-79943316D01*
X86960142Y-79946826D01*
X86936250Y-79948000D01*
X86448750Y-79948000D01*
X86424858Y-79946826D01*
X86401197Y-79943316D01*
X86377993Y-79937504D01*
X86355471Y-79929446D01*
X86333847Y-79919218D01*
X86313330Y-79906921D01*
X86294117Y-79892671D01*
X86276393Y-79876607D01*
X86260329Y-79858883D01*
X86246079Y-79839670D01*
X86233782Y-79819153D01*
X86223554Y-79797529D01*
X86215496Y-79775007D01*
X86209684Y-79751803D01*
X86206174Y-79728142D01*
X86205000Y-79704250D01*
X86205000Y-78791750D01*
X86206174Y-78767858D01*
X86209684Y-78744197D01*
X86215496Y-78720993D01*
X86223554Y-78698471D01*
X86233782Y-78676847D01*
X86246079Y-78656330D01*
X86260329Y-78637117D01*
X86276393Y-78619393D01*
X86294117Y-78603329D01*
X86313330Y-78589079D01*
X86333847Y-78576782D01*
X86355471Y-78566554D01*
X86377993Y-78558496D01*
X86401197Y-78552684D01*
X86424858Y-78549174D01*
X86448750Y-78548000D01*
X86936250Y-78548000D01*
X86960142Y-78549174D01*
G37*
M02*
