G04 #@! TF.GenerationSoftware,KiCad,Pcbnew,(5.1.5)-3*
G04 #@! TF.CreationDate,2020-06-09T15:43:22-07:00*
G04 #@! TF.ProjectId,MTTP Charge Controller,4d545450-2043-4686-9172-676520436f6e,rev?*
G04 #@! TF.SameCoordinates,Original*
G04 #@! TF.FileFunction,Legend,Top*
G04 #@! TF.FilePolarity,Positive*
%FSLAX46Y46*%
G04 Gerber Fmt 4.6, Leading zero omitted, Abs format (unit mm)*
G04 Created by KiCad (PCBNEW (5.1.5)-3) date 2020-06-09 15:43:22*
%MOMM*%
%LPD*%
G04 APERTURE LIST*
%ADD10C,0.120000*%
%ADD11C,0.152400*%
%ADD12C,0.150000*%
G04 APERTURE END LIST*
D10*
X110008000Y-79750000D02*
X112808000Y-79750000D01*
X116808000Y-79750000D02*
X119608000Y-79750000D01*
X116808000Y-57150000D02*
X119608000Y-57150000D01*
X119608000Y-57150000D02*
X119608000Y-79750000D01*
X110008000Y-57150000D02*
X110008000Y-79750000D01*
X110008000Y-57150000D02*
X112808000Y-57150000D01*
X63754000Y-69088000D02*
X63754000Y-66548000D01*
X63754000Y-66548000D02*
X61084000Y-66548000D01*
X61084000Y-69088000D02*
X61084000Y-107318000D01*
X61084000Y-63878000D02*
X61084000Y-66548000D01*
X76454000Y-66548000D02*
X79124000Y-66548000D01*
X76454000Y-66548000D02*
X76454000Y-104648000D01*
X76454000Y-104648000D02*
X79124000Y-104648000D01*
X63754000Y-69088000D02*
X61084000Y-69088000D01*
X63754000Y-69088000D02*
X63754000Y-104648000D01*
X63754000Y-104648000D02*
X61084000Y-104648000D01*
X61084000Y-107318000D02*
X79124000Y-107318000D01*
X79124000Y-107318000D02*
X79124000Y-63878000D01*
X79124000Y-63878000D02*
X61084000Y-63878000D01*
X57720000Y-59282064D02*
X57720000Y-58077936D01*
X59540000Y-59282064D02*
X59540000Y-58077936D01*
X86189078Y-95706000D02*
X85671922Y-95706000D01*
X86189078Y-94286000D02*
X85671922Y-94286000D01*
X96650000Y-61810000D02*
X99000000Y-61810000D01*
X103470000Y-61810000D02*
X101120000Y-61810000D01*
X103470000Y-56054437D02*
X103470000Y-61810000D01*
X96650000Y-56054437D02*
X96650000Y-61810000D01*
X97714437Y-54990000D02*
X99000000Y-54990000D01*
X102405563Y-54990000D02*
X101120000Y-54990000D01*
X102405563Y-54990000D02*
X103470000Y-56054437D01*
X97714437Y-54990000D02*
X96650000Y-56054437D01*
X101907500Y-53962500D02*
X101907500Y-54750000D01*
X102301250Y-54356250D02*
X101513750Y-54356250D01*
X119576000Y-100018000D02*
X119576000Y-96968000D01*
X119576000Y-91498000D02*
X119576000Y-94548000D01*
X112120437Y-91498000D02*
X119576000Y-91498000D01*
X112120437Y-100018000D02*
X119576000Y-100018000D01*
X111056000Y-98953563D02*
X111056000Y-96968000D01*
X111056000Y-92562437D02*
X111056000Y-94548000D01*
X111056000Y-92562437D02*
X112120437Y-91498000D01*
X111056000Y-98953563D02*
X112120437Y-100018000D01*
X109816000Y-93548000D02*
X110816000Y-93548000D01*
X110316000Y-93048000D02*
X110316000Y-94048000D01*
X57838000Y-79576000D02*
X55153000Y-79576000D01*
X55153000Y-79576000D02*
X55153000Y-81496000D01*
X55153000Y-81496000D02*
X57838000Y-81496000D01*
X55211000Y-85060000D02*
X57896000Y-85060000D01*
X55211000Y-83140000D02*
X55211000Y-85060000D01*
X57896000Y-83140000D02*
X55211000Y-83140000D01*
X55211000Y-88460000D02*
X57896000Y-88460000D01*
X55211000Y-86540000D02*
X55211000Y-88460000D01*
X57896000Y-86540000D02*
X55211000Y-86540000D01*
X57817500Y-76040000D02*
X55132500Y-76040000D01*
X55132500Y-76040000D02*
X55132500Y-77960000D01*
X55132500Y-77960000D02*
X57817500Y-77960000D01*
X107800000Y-75604000D02*
X105560000Y-75604000D01*
X105560000Y-75604000D02*
X105560000Y-79844000D01*
X105560000Y-79844000D02*
X107800000Y-79844000D01*
X107800000Y-79844000D02*
X107800000Y-75604000D01*
X106680000Y-73684000D02*
X106680000Y-75604000D01*
X106680000Y-81764000D02*
X106680000Y-79844000D01*
X107800000Y-76324000D02*
X105560000Y-76324000D01*
X107800000Y-76444000D02*
X105560000Y-76444000D01*
X107800000Y-76204000D02*
X105560000Y-76204000D01*
X86018000Y-75334000D02*
X86018000Y-77574000D01*
X86018000Y-77574000D02*
X90258000Y-77574000D01*
X90258000Y-77574000D02*
X90258000Y-75334000D01*
X90258000Y-75334000D02*
X86018000Y-75334000D01*
X84098000Y-76454000D02*
X86018000Y-76454000D01*
X92178000Y-76454000D02*
X90258000Y-76454000D01*
X86738000Y-75334000D02*
X86738000Y-77574000D01*
X86858000Y-75334000D02*
X86858000Y-77574000D01*
X86618000Y-75334000D02*
X86618000Y-77574000D01*
X95508000Y-85748000D02*
X95508000Y-87988000D01*
X95748000Y-85748000D02*
X95748000Y-87988000D01*
X95628000Y-85748000D02*
X95628000Y-87988000D01*
X101068000Y-86868000D02*
X99148000Y-86868000D01*
X92988000Y-86868000D02*
X94908000Y-86868000D01*
X99148000Y-85748000D02*
X94908000Y-85748000D01*
X99148000Y-87988000D02*
X99148000Y-85748000D01*
X94908000Y-87988000D02*
X99148000Y-87988000D01*
X94908000Y-85748000D02*
X94908000Y-87988000D01*
X84836000Y-52350000D02*
X84836000Y-55150000D01*
X84836000Y-52350000D02*
X62236000Y-52350000D01*
X84836000Y-61950000D02*
X62236000Y-61950000D01*
X84836000Y-59150000D02*
X84836000Y-61950000D01*
X62236000Y-59150000D02*
X62236000Y-61950000D01*
X62236000Y-52350000D02*
X62236000Y-55150000D01*
X109160000Y-103572000D02*
X109160000Y-106232000D01*
X116840000Y-103572000D02*
X109160000Y-103572000D01*
X116840000Y-106232000D02*
X109160000Y-106232000D01*
X116840000Y-103572000D02*
X116840000Y-106232000D01*
X118110000Y-103572000D02*
X119440000Y-103572000D01*
X119440000Y-103572000D02*
X119440000Y-104902000D01*
X85038000Y-68338000D02*
X88688000Y-68338000D01*
X102478000Y-68338000D02*
X98828000Y-68338000D01*
X88688000Y-70258000D02*
X98828000Y-70258000D01*
X88688000Y-66418000D02*
X88688000Y-70258000D01*
X98828000Y-66418000D02*
X88688000Y-66418000D01*
X98828000Y-70258000D02*
X98828000Y-66418000D01*
X125110000Y-63764000D02*
X121270000Y-63764000D01*
X121270000Y-63764000D02*
X121270000Y-73904000D01*
X121270000Y-73904000D02*
X125110000Y-73904000D01*
X125110000Y-73904000D02*
X125110000Y-63764000D01*
X123190000Y-60114000D02*
X123190000Y-63764000D01*
X123190000Y-77554000D02*
X123190000Y-73904000D01*
D11*
X96100900Y-78651100D02*
X91859100Y-78651100D01*
X91859100Y-83908900D02*
X96100900Y-83908900D01*
D10*
X91181078Y-56310000D02*
X90663922Y-56310000D01*
X91181078Y-54890000D02*
X90663922Y-54890000D01*
X83110000Y-96003922D02*
X83110000Y-96521078D01*
X81690000Y-96003922D02*
X81690000Y-96521078D01*
X85671922Y-96490000D02*
X86189078Y-96490000D01*
X85671922Y-97910000D02*
X86189078Y-97910000D01*
X53344578Y-79808000D02*
X52827422Y-79808000D01*
X53344578Y-81228000D02*
X52827422Y-81228000D01*
X53344578Y-84830000D02*
X52827422Y-84830000D01*
X53344578Y-83410000D02*
X52827422Y-83410000D01*
X53344578Y-86790000D02*
X52827422Y-86790000D01*
X53344578Y-88210000D02*
X52827422Y-88210000D01*
X53344578Y-77672000D02*
X52827422Y-77672000D01*
X53344578Y-76252000D02*
X52827422Y-76252000D01*
X85651422Y-90010000D02*
X86168578Y-90010000D01*
X85651422Y-91430000D02*
X86168578Y-91430000D01*
X81680000Y-89551422D02*
X81680000Y-90068578D01*
X83100000Y-89551422D02*
X83100000Y-90068578D01*
X111428423Y-85355001D02*
X111945579Y-85355001D01*
X111428423Y-86775001D02*
X111945579Y-86775001D01*
X111428423Y-89725001D02*
X111945579Y-89725001D01*
X111428423Y-88305001D02*
X111945579Y-88305001D01*
X111764578Y-82094000D02*
X111247422Y-82094000D01*
X111764578Y-83514000D02*
X111247422Y-83514000D01*
X122090922Y-54916000D02*
X122608078Y-54916000D01*
X122090922Y-56336000D02*
X122608078Y-56336000D01*
X85593422Y-87682000D02*
X86110578Y-87682000D01*
X85593422Y-89102000D02*
X86110578Y-89102000D01*
X87371422Y-79958000D02*
X87888578Y-79958000D01*
X87371422Y-78538000D02*
X87888578Y-78538000D01*
X89911422Y-64060000D02*
X90428578Y-64060000D01*
X89911422Y-65480000D02*
X90428578Y-65480000D01*
X81728000Y-72898000D02*
X81728000Y-71568000D01*
X81728000Y-71568000D02*
X83058000Y-71568000D01*
X84328000Y-71568000D02*
X89468000Y-71568000D01*
X89468000Y-74228000D02*
X89468000Y-71568000D01*
X84328000Y-74228000D02*
X89468000Y-74228000D01*
X84328000Y-74228000D02*
X84328000Y-71568000D01*
X94996000Y-74228000D02*
X94996000Y-71568000D01*
X94996000Y-74228000D02*
X100136000Y-74228000D01*
X100136000Y-74228000D02*
X100136000Y-71568000D01*
X94996000Y-71568000D02*
X100136000Y-71568000D01*
X92396000Y-71568000D02*
X93726000Y-71568000D01*
X92396000Y-72898000D02*
X92396000Y-71568000D01*
X100778000Y-78994000D02*
X103438000Y-78994000D01*
X100778000Y-78994000D02*
X100778000Y-84134000D01*
X100778000Y-84134000D02*
X103438000Y-84134000D01*
X103438000Y-78994000D02*
X103438000Y-84134000D01*
X103438000Y-76394000D02*
X103438000Y-77724000D01*
X102108000Y-76394000D02*
X103438000Y-76394000D01*
X90932000Y-63078000D02*
X92432000Y-63078000D01*
X90932000Y-63078000D02*
X89432000Y-63078000D01*
X90932000Y-59858000D02*
X92432000Y-59858000D01*
X90932000Y-59858000D02*
X88007000Y-59858000D01*
D12*
X114502666Y-68328571D02*
X114169333Y-68328571D01*
X114169333Y-68852380D02*
X114169333Y-67852380D01*
X114645523Y-67852380D01*
X114978857Y-67947619D02*
X115026476Y-67900000D01*
X115121714Y-67852380D01*
X115359809Y-67852380D01*
X115455047Y-67900000D01*
X115502666Y-67947619D01*
X115550285Y-68042857D01*
X115550285Y-68138095D01*
X115502666Y-68280952D01*
X114931238Y-68852380D01*
X115550285Y-68852380D01*
X98131333Y-98496380D02*
X97655142Y-98496380D01*
X97655142Y-97496380D01*
X98988476Y-98496380D02*
X98417047Y-98496380D01*
X98702761Y-98496380D02*
X98702761Y-97496380D01*
X98607523Y-97639238D01*
X98512285Y-97734476D01*
X98417047Y-97782095D01*
X69389714Y-62904666D02*
X69865904Y-62904666D01*
X69294476Y-63190380D02*
X69627809Y-62190380D01*
X69961142Y-63190380D01*
X70818285Y-63190380D02*
X70246857Y-63190380D01*
X70532571Y-63190380D02*
X70532571Y-62190380D01*
X70437333Y-62333238D01*
X70342095Y-62428476D01*
X70246857Y-62476095D01*
X58761333Y-55729142D02*
X58713714Y-55776761D01*
X58570857Y-55824380D01*
X58475619Y-55824380D01*
X58332761Y-55776761D01*
X58237523Y-55681523D01*
X58189904Y-55586285D01*
X58142285Y-55395809D01*
X58142285Y-55252952D01*
X58189904Y-55062476D01*
X58237523Y-54967238D01*
X58332761Y-54872000D01*
X58475619Y-54824380D01*
X58570857Y-54824380D01*
X58713714Y-54872000D01*
X58761333Y-54919619D01*
X59713714Y-55824380D02*
X59142285Y-55824380D01*
X59428000Y-55824380D02*
X59428000Y-54824380D01*
X59332761Y-54967238D01*
X59237523Y-55062476D01*
X59142285Y-55110095D01*
X88733333Y-95353142D02*
X88685714Y-95400761D01*
X88542857Y-95448380D01*
X88447619Y-95448380D01*
X88304761Y-95400761D01*
X88209523Y-95305523D01*
X88161904Y-95210285D01*
X88114285Y-95019809D01*
X88114285Y-94876952D01*
X88161904Y-94686476D01*
X88209523Y-94591238D01*
X88304761Y-94496000D01*
X88447619Y-94448380D01*
X88542857Y-94448380D01*
X88685714Y-94496000D01*
X88733333Y-94543619D01*
X89114285Y-94543619D02*
X89161904Y-94496000D01*
X89257142Y-94448380D01*
X89495238Y-94448380D01*
X89590476Y-94496000D01*
X89638095Y-94543619D01*
X89685714Y-94638857D01*
X89685714Y-94734095D01*
X89638095Y-94876952D01*
X89066666Y-95448380D01*
X89685714Y-95448380D01*
X99909333Y-53189142D02*
X99861714Y-53236761D01*
X99718857Y-53284380D01*
X99623619Y-53284380D01*
X99480761Y-53236761D01*
X99385523Y-53141523D01*
X99337904Y-53046285D01*
X99290285Y-52855809D01*
X99290285Y-52712952D01*
X99337904Y-52522476D01*
X99385523Y-52427238D01*
X99480761Y-52332000D01*
X99623619Y-52284380D01*
X99718857Y-52284380D01*
X99861714Y-52332000D01*
X99909333Y-52379619D01*
X100814095Y-52284380D02*
X100337904Y-52284380D01*
X100290285Y-52760571D01*
X100337904Y-52712952D01*
X100433142Y-52665333D01*
X100671238Y-52665333D01*
X100766476Y-52712952D01*
X100814095Y-52760571D01*
X100861714Y-52855809D01*
X100861714Y-53093904D01*
X100814095Y-53189142D01*
X100766476Y-53236761D01*
X100671238Y-53284380D01*
X100433142Y-53284380D01*
X100337904Y-53236761D01*
X100290285Y-53189142D01*
X115149333Y-90915142D02*
X115101714Y-90962761D01*
X114958857Y-91010380D01*
X114863619Y-91010380D01*
X114720761Y-90962761D01*
X114625523Y-90867523D01*
X114577904Y-90772285D01*
X114530285Y-90581809D01*
X114530285Y-90438952D01*
X114577904Y-90248476D01*
X114625523Y-90153238D01*
X114720761Y-90058000D01*
X114863619Y-90010380D01*
X114958857Y-90010380D01*
X115101714Y-90058000D01*
X115149333Y-90105619D01*
X115625523Y-91010380D02*
X115816000Y-91010380D01*
X115911238Y-90962761D01*
X115958857Y-90915142D01*
X116054095Y-90772285D01*
X116101714Y-90581809D01*
X116101714Y-90200857D01*
X116054095Y-90105619D01*
X116006476Y-90058000D01*
X115911238Y-90010380D01*
X115720761Y-90010380D01*
X115625523Y-90058000D01*
X115577904Y-90105619D01*
X115530285Y-90200857D01*
X115530285Y-90438952D01*
X115577904Y-90534190D01*
X115625523Y-90581809D01*
X115720761Y-90629428D01*
X115911238Y-90629428D01*
X116006476Y-90581809D01*
X116054095Y-90534190D01*
X116101714Y-90438952D01*
X58951904Y-80970380D02*
X58951904Y-79970380D01*
X59190000Y-79970380D01*
X59332857Y-80018000D01*
X59428095Y-80113238D01*
X59475714Y-80208476D01*
X59523333Y-80398952D01*
X59523333Y-80541809D01*
X59475714Y-80732285D01*
X59428095Y-80827523D01*
X59332857Y-80922761D01*
X59190000Y-80970380D01*
X58951904Y-80970380D01*
X60475714Y-80970380D02*
X59904285Y-80970380D01*
X60190000Y-80970380D02*
X60190000Y-79970380D01*
X60094761Y-80113238D01*
X59999523Y-80208476D01*
X59904285Y-80256095D01*
X58995404Y-84552380D02*
X58995404Y-83552380D01*
X59233500Y-83552380D01*
X59376357Y-83600000D01*
X59471595Y-83695238D01*
X59519214Y-83790476D01*
X59566833Y-83980952D01*
X59566833Y-84123809D01*
X59519214Y-84314285D01*
X59471595Y-84409523D01*
X59376357Y-84504761D01*
X59233500Y-84552380D01*
X58995404Y-84552380D01*
X59947785Y-83647619D02*
X59995404Y-83600000D01*
X60090642Y-83552380D01*
X60328738Y-83552380D01*
X60423976Y-83600000D01*
X60471595Y-83647619D01*
X60519214Y-83742857D01*
X60519214Y-83838095D01*
X60471595Y-83980952D01*
X59900166Y-84552380D01*
X60519214Y-84552380D01*
X59147904Y-87828380D02*
X59147904Y-86828380D01*
X59386000Y-86828380D01*
X59528857Y-86876000D01*
X59624095Y-86971238D01*
X59671714Y-87066476D01*
X59719333Y-87256952D01*
X59719333Y-87399809D01*
X59671714Y-87590285D01*
X59624095Y-87685523D01*
X59528857Y-87780761D01*
X59386000Y-87828380D01*
X59147904Y-87828380D01*
X60052666Y-86828380D02*
X60671714Y-86828380D01*
X60338380Y-87209333D01*
X60481238Y-87209333D01*
X60576476Y-87256952D01*
X60624095Y-87304571D01*
X60671714Y-87399809D01*
X60671714Y-87637904D01*
X60624095Y-87733142D01*
X60576476Y-87780761D01*
X60481238Y-87828380D01*
X60195523Y-87828380D01*
X60100285Y-87780761D01*
X60052666Y-87733142D01*
X58841904Y-77452380D02*
X58841904Y-76452380D01*
X59080000Y-76452380D01*
X59222857Y-76500000D01*
X59318095Y-76595238D01*
X59365714Y-76690476D01*
X59413333Y-76880952D01*
X59413333Y-77023809D01*
X59365714Y-77214285D01*
X59318095Y-77309523D01*
X59222857Y-77404761D01*
X59080000Y-77452380D01*
X58841904Y-77452380D01*
X60270476Y-76785714D02*
X60270476Y-77452380D01*
X60032380Y-76404761D02*
X59794285Y-77119047D01*
X60413333Y-77119047D01*
X107132380Y-78970095D02*
X106132380Y-78970095D01*
X106132380Y-78732000D01*
X106180000Y-78589142D01*
X106275238Y-78493904D01*
X106370476Y-78446285D01*
X106560952Y-78398666D01*
X106703809Y-78398666D01*
X106894285Y-78446285D01*
X106989523Y-78493904D01*
X107084761Y-78589142D01*
X107132380Y-78732000D01*
X107132380Y-78970095D01*
X106132380Y-77493904D02*
X106132380Y-77970095D01*
X106608571Y-78017714D01*
X106560952Y-77970095D01*
X106513333Y-77874857D01*
X106513333Y-77636761D01*
X106560952Y-77541523D01*
X106608571Y-77493904D01*
X106703809Y-77446285D01*
X106941904Y-77446285D01*
X107037142Y-77493904D01*
X107084761Y-77541523D01*
X107132380Y-77636761D01*
X107132380Y-77874857D01*
X107084761Y-77970095D01*
X107037142Y-78017714D01*
X108932380Y-72905904D02*
X107932380Y-72905904D01*
X108932380Y-72334476D02*
X108360952Y-72763047D01*
X107932380Y-72334476D02*
X108503809Y-72905904D01*
X87653904Y-76906380D02*
X87653904Y-75906380D01*
X87892000Y-75906380D01*
X88034857Y-75954000D01*
X88130095Y-76049238D01*
X88177714Y-76144476D01*
X88225333Y-76334952D01*
X88225333Y-76477809D01*
X88177714Y-76668285D01*
X88130095Y-76763523D01*
X88034857Y-76858761D01*
X87892000Y-76906380D01*
X87653904Y-76906380D01*
X89082476Y-75906380D02*
X88892000Y-75906380D01*
X88796761Y-75954000D01*
X88749142Y-76001619D01*
X88653904Y-76144476D01*
X88606285Y-76334952D01*
X88606285Y-76715904D01*
X88653904Y-76811142D01*
X88701523Y-76858761D01*
X88796761Y-76906380D01*
X88987238Y-76906380D01*
X89082476Y-76858761D01*
X89130095Y-76811142D01*
X89177714Y-76715904D01*
X89177714Y-76477809D01*
X89130095Y-76382571D01*
X89082476Y-76334952D01*
X88987238Y-76287333D01*
X88796761Y-76287333D01*
X88701523Y-76334952D01*
X88653904Y-76382571D01*
X88606285Y-76477809D01*
X82796095Y-75106380D02*
X82796095Y-74106380D01*
X83367523Y-75106380D02*
X82938952Y-74534952D01*
X83367523Y-74106380D02*
X82796095Y-74677809D01*
X96543904Y-87320380D02*
X96543904Y-86320380D01*
X96782000Y-86320380D01*
X96924857Y-86368000D01*
X97020095Y-86463238D01*
X97067714Y-86558476D01*
X97115333Y-86748952D01*
X97115333Y-86891809D01*
X97067714Y-87082285D01*
X97020095Y-87177523D01*
X96924857Y-87272761D01*
X96782000Y-87320380D01*
X96543904Y-87320380D01*
X97448666Y-86320380D02*
X98115333Y-86320380D01*
X97686761Y-87320380D01*
X91686095Y-85520380D02*
X91686095Y-84520380D01*
X92257523Y-85520380D02*
X91828952Y-84948952D01*
X92257523Y-84520380D02*
X91686095Y-85091809D01*
X73418666Y-57124571D02*
X73085333Y-57124571D01*
X73085333Y-57648380D02*
X73085333Y-56648380D01*
X73561523Y-56648380D01*
X74466285Y-57648380D02*
X73894857Y-57648380D01*
X74180571Y-57648380D02*
X74180571Y-56648380D01*
X74085333Y-56791238D01*
X73990095Y-56886476D01*
X73894857Y-56934095D01*
X53260666Y-53300380D02*
X53260666Y-54014666D01*
X53213047Y-54157523D01*
X53117809Y-54252761D01*
X52974952Y-54300380D01*
X52879714Y-54300380D01*
X54260666Y-54300380D02*
X53689238Y-54300380D01*
X53974952Y-54300380D02*
X53974952Y-53300380D01*
X53879714Y-53443238D01*
X53784476Y-53538476D01*
X53689238Y-53586095D01*
X128698666Y-53554380D02*
X128698666Y-54268666D01*
X128651047Y-54411523D01*
X128555809Y-54506761D01*
X128412952Y-54554380D01*
X128317714Y-54554380D01*
X129127238Y-53649619D02*
X129174857Y-53602000D01*
X129270095Y-53554380D01*
X129508190Y-53554380D01*
X129603428Y-53602000D01*
X129651047Y-53649619D01*
X129698666Y-53744857D01*
X129698666Y-53840095D01*
X129651047Y-53982952D01*
X129079619Y-54554380D01*
X129698666Y-54554380D01*
X121078666Y-104354380D02*
X121078666Y-105068666D01*
X121031047Y-105211523D01*
X120935809Y-105306761D01*
X120792952Y-105354380D01*
X120697714Y-105354380D01*
X121459619Y-104354380D02*
X122078666Y-104354380D01*
X121745333Y-104735333D01*
X121888190Y-104735333D01*
X121983428Y-104782952D01*
X122031047Y-104830571D01*
X122078666Y-104925809D01*
X122078666Y-105163904D01*
X122031047Y-105259142D01*
X121983428Y-105306761D01*
X121888190Y-105354380D01*
X121602476Y-105354380D01*
X121507238Y-105306761D01*
X121459619Y-105259142D01*
X93559333Y-68778380D02*
X93226000Y-68302190D01*
X92987904Y-68778380D02*
X92987904Y-67778380D01*
X93368857Y-67778380D01*
X93464095Y-67826000D01*
X93511714Y-67873619D01*
X93559333Y-67968857D01*
X93559333Y-68111714D01*
X93511714Y-68206952D01*
X93464095Y-68254571D01*
X93368857Y-68302190D01*
X92987904Y-68302190D01*
X94130761Y-68206952D02*
X94035523Y-68159333D01*
X93987904Y-68111714D01*
X93940285Y-68016476D01*
X93940285Y-67968857D01*
X93987904Y-67873619D01*
X94035523Y-67826000D01*
X94130761Y-67778380D01*
X94321238Y-67778380D01*
X94416476Y-67826000D01*
X94464095Y-67873619D01*
X94511714Y-67968857D01*
X94511714Y-68016476D01*
X94464095Y-68111714D01*
X94416476Y-68159333D01*
X94321238Y-68206952D01*
X94130761Y-68206952D01*
X94035523Y-68254571D01*
X93987904Y-68302190D01*
X93940285Y-68397428D01*
X93940285Y-68587904D01*
X93987904Y-68683142D01*
X94035523Y-68730761D01*
X94130761Y-68778380D01*
X94321238Y-68778380D01*
X94416476Y-68730761D01*
X94464095Y-68683142D01*
X94511714Y-68587904D01*
X94511714Y-68397428D01*
X94464095Y-68302190D01*
X94416476Y-68254571D01*
X94321238Y-68206952D01*
X123612380Y-69326857D02*
X123136190Y-69660190D01*
X123612380Y-69898285D02*
X122612380Y-69898285D01*
X122612380Y-69517333D01*
X122660000Y-69422095D01*
X122707619Y-69374476D01*
X122802857Y-69326857D01*
X122945714Y-69326857D01*
X123040952Y-69374476D01*
X123088571Y-69422095D01*
X123136190Y-69517333D01*
X123136190Y-69898285D01*
X123612380Y-68374476D02*
X123612380Y-68945904D01*
X123612380Y-68660190D02*
X122612380Y-68660190D01*
X122755238Y-68755428D01*
X122850476Y-68850666D01*
X122898095Y-68945904D01*
X122612380Y-67755428D02*
X122612380Y-67660190D01*
X122660000Y-67564952D01*
X122707619Y-67517333D01*
X122802857Y-67469714D01*
X122993333Y-67422095D01*
X123231428Y-67422095D01*
X123421904Y-67469714D01*
X123517142Y-67517333D01*
X123564761Y-67564952D01*
X123612380Y-67660190D01*
X123612380Y-67755428D01*
X123564761Y-67850666D01*
X123517142Y-67898285D01*
X123421904Y-67945904D01*
X123231428Y-67993523D01*
X122993333Y-67993523D01*
X122802857Y-67945904D01*
X122707619Y-67898285D01*
X122660000Y-67850666D01*
X122612380Y-67755428D01*
X93218095Y-80732380D02*
X93218095Y-81541904D01*
X93265714Y-81637142D01*
X93313333Y-81684761D01*
X93408571Y-81732380D01*
X93599047Y-81732380D01*
X93694285Y-81684761D01*
X93741904Y-81637142D01*
X93789523Y-81541904D01*
X93789523Y-80732380D01*
X94218095Y-80827619D02*
X94265714Y-80780000D01*
X94360952Y-80732380D01*
X94599047Y-80732380D01*
X94694285Y-80780000D01*
X94741904Y-80827619D01*
X94789523Y-80922857D01*
X94789523Y-81018095D01*
X94741904Y-81160952D01*
X94170476Y-81732380D01*
X94789523Y-81732380D01*
X91262200Y-77125580D02*
X91262200Y-77363676D01*
X91024104Y-77268438D02*
X91262200Y-77363676D01*
X91500295Y-77268438D01*
X91119342Y-77554152D02*
X91262200Y-77363676D01*
X91405057Y-77554152D01*
X91262200Y-77125580D02*
X91262200Y-77363676D01*
X91024104Y-77268438D02*
X91262200Y-77363676D01*
X91500295Y-77268438D01*
X91119342Y-77554152D02*
X91262200Y-77363676D01*
X91405057Y-77554152D01*
X90855833Y-54352380D02*
X90522500Y-53876190D01*
X90284404Y-54352380D02*
X90284404Y-53352380D01*
X90665357Y-53352380D01*
X90760595Y-53400000D01*
X90808214Y-53447619D01*
X90855833Y-53542857D01*
X90855833Y-53685714D01*
X90808214Y-53780952D01*
X90760595Y-53828571D01*
X90665357Y-53876190D01*
X90284404Y-53876190D01*
X91189166Y-53352380D02*
X91855833Y-53352380D01*
X91427261Y-54352380D01*
X82233333Y-94352380D02*
X81900000Y-93876190D01*
X81661904Y-94352380D02*
X81661904Y-93352380D01*
X82042857Y-93352380D01*
X82138095Y-93400000D01*
X82185714Y-93447619D01*
X82233333Y-93542857D01*
X82233333Y-93685714D01*
X82185714Y-93780952D01*
X82138095Y-93828571D01*
X82042857Y-93876190D01*
X81661904Y-93876190D01*
X83138095Y-93352380D02*
X82661904Y-93352380D01*
X82614285Y-93828571D01*
X82661904Y-93780952D01*
X82757142Y-93733333D01*
X82995238Y-93733333D01*
X83090476Y-93780952D01*
X83138095Y-93828571D01*
X83185714Y-93923809D01*
X83185714Y-94161904D01*
X83138095Y-94257142D01*
X83090476Y-94304761D01*
X82995238Y-94352380D01*
X82757142Y-94352380D01*
X82661904Y-94304761D01*
X82614285Y-94257142D01*
X88801333Y-97734380D02*
X88468000Y-97258190D01*
X88229904Y-97734380D02*
X88229904Y-96734380D01*
X88610857Y-96734380D01*
X88706095Y-96782000D01*
X88753714Y-96829619D01*
X88801333Y-96924857D01*
X88801333Y-97067714D01*
X88753714Y-97162952D01*
X88706095Y-97210571D01*
X88610857Y-97258190D01*
X88229904Y-97258190D01*
X89658476Y-96734380D02*
X89468000Y-96734380D01*
X89372761Y-96782000D01*
X89325142Y-96829619D01*
X89229904Y-96972476D01*
X89182285Y-97162952D01*
X89182285Y-97543904D01*
X89229904Y-97639142D01*
X89277523Y-97686761D01*
X89372761Y-97734380D01*
X89563238Y-97734380D01*
X89658476Y-97686761D01*
X89706095Y-97639142D01*
X89753714Y-97543904D01*
X89753714Y-97305809D01*
X89706095Y-97210571D01*
X89658476Y-97162952D01*
X89563238Y-97115333D01*
X89372761Y-97115333D01*
X89277523Y-97162952D01*
X89229904Y-97210571D01*
X89182285Y-97305809D01*
X52831833Y-82720380D02*
X52498500Y-82244190D01*
X52260404Y-82720380D02*
X52260404Y-81720380D01*
X52641357Y-81720380D01*
X52736595Y-81768000D01*
X52784214Y-81815619D01*
X52831833Y-81910857D01*
X52831833Y-82053714D01*
X52784214Y-82148952D01*
X52736595Y-82196571D01*
X52641357Y-82244190D01*
X52260404Y-82244190D01*
X53784214Y-82720380D02*
X53212785Y-82720380D01*
X53498500Y-82720380D02*
X53498500Y-81720380D01*
X53403261Y-81863238D01*
X53308023Y-81958476D01*
X53212785Y-82006095D01*
X52939333Y-86304380D02*
X52606000Y-85828190D01*
X52367904Y-86304380D02*
X52367904Y-85304380D01*
X52748857Y-85304380D01*
X52844095Y-85352000D01*
X52891714Y-85399619D01*
X52939333Y-85494857D01*
X52939333Y-85637714D01*
X52891714Y-85732952D01*
X52844095Y-85780571D01*
X52748857Y-85828190D01*
X52367904Y-85828190D01*
X53320285Y-85399619D02*
X53367904Y-85352000D01*
X53463142Y-85304380D01*
X53701238Y-85304380D01*
X53796476Y-85352000D01*
X53844095Y-85399619D01*
X53891714Y-85494857D01*
X53891714Y-85590095D01*
X53844095Y-85732952D01*
X53272666Y-86304380D01*
X53891714Y-86304380D01*
X52969333Y-89802380D02*
X52636000Y-89326190D01*
X52397904Y-89802380D02*
X52397904Y-88802380D01*
X52778857Y-88802380D01*
X52874095Y-88850000D01*
X52921714Y-88897619D01*
X52969333Y-88992857D01*
X52969333Y-89135714D01*
X52921714Y-89230952D01*
X52874095Y-89278571D01*
X52778857Y-89326190D01*
X52397904Y-89326190D01*
X53302666Y-88802380D02*
X53921714Y-88802380D01*
X53588380Y-89183333D01*
X53731238Y-89183333D01*
X53826476Y-89230952D01*
X53874095Y-89278571D01*
X53921714Y-89373809D01*
X53921714Y-89611904D01*
X53874095Y-89707142D01*
X53826476Y-89754761D01*
X53731238Y-89802380D01*
X53445523Y-89802380D01*
X53350285Y-89754761D01*
X53302666Y-89707142D01*
X52919333Y-79064380D02*
X52586000Y-78588190D01*
X52347904Y-79064380D02*
X52347904Y-78064380D01*
X52728857Y-78064380D01*
X52824095Y-78112000D01*
X52871714Y-78159619D01*
X52919333Y-78254857D01*
X52919333Y-78397714D01*
X52871714Y-78492952D01*
X52824095Y-78540571D01*
X52728857Y-78588190D01*
X52347904Y-78588190D01*
X53776476Y-78397714D02*
X53776476Y-79064380D01*
X53538380Y-78016761D02*
X53300285Y-78731047D01*
X53919333Y-78731047D01*
X88479333Y-91130380D02*
X88146000Y-90654190D01*
X87907904Y-91130380D02*
X87907904Y-90130380D01*
X88288857Y-90130380D01*
X88384095Y-90178000D01*
X88431714Y-90225619D01*
X88479333Y-90320857D01*
X88479333Y-90463714D01*
X88431714Y-90558952D01*
X88384095Y-90606571D01*
X88288857Y-90654190D01*
X87907904Y-90654190D01*
X88955523Y-91130380D02*
X89146000Y-91130380D01*
X89241238Y-91082761D01*
X89288857Y-91035142D01*
X89384095Y-90892285D01*
X89431714Y-90701809D01*
X89431714Y-90320857D01*
X89384095Y-90225619D01*
X89336476Y-90178000D01*
X89241238Y-90130380D01*
X89050761Y-90130380D01*
X88955523Y-90178000D01*
X88907904Y-90225619D01*
X88860285Y-90320857D01*
X88860285Y-90558952D01*
X88907904Y-90654190D01*
X88955523Y-90701809D01*
X89050761Y-90749428D01*
X89241238Y-90749428D01*
X89336476Y-90701809D01*
X89384095Y-90654190D01*
X89431714Y-90558952D01*
X81827142Y-87564880D02*
X81493809Y-87088690D01*
X81255714Y-87564880D02*
X81255714Y-86564880D01*
X81636666Y-86564880D01*
X81731904Y-86612500D01*
X81779523Y-86660119D01*
X81827142Y-86755357D01*
X81827142Y-86898214D01*
X81779523Y-86993452D01*
X81731904Y-87041071D01*
X81636666Y-87088690D01*
X81255714Y-87088690D01*
X82779523Y-87564880D02*
X82208095Y-87564880D01*
X82493809Y-87564880D02*
X82493809Y-86564880D01*
X82398571Y-86707738D01*
X82303333Y-86802976D01*
X82208095Y-86850595D01*
X83731904Y-87564880D02*
X83160476Y-87564880D01*
X83446190Y-87564880D02*
X83446190Y-86564880D01*
X83350952Y-86707738D01*
X83255714Y-86802976D01*
X83160476Y-86850595D01*
X115149333Y-86463142D02*
X115101714Y-86510761D01*
X114958857Y-86558380D01*
X114863619Y-86558380D01*
X114720761Y-86510761D01*
X114625523Y-86415523D01*
X114577904Y-86320285D01*
X114530285Y-86129809D01*
X114530285Y-85986952D01*
X114577904Y-85796476D01*
X114625523Y-85701238D01*
X114720761Y-85606000D01*
X114863619Y-85558380D01*
X114958857Y-85558380D01*
X115101714Y-85606000D01*
X115149333Y-85653619D01*
X115482666Y-85558380D02*
X116101714Y-85558380D01*
X115768380Y-85939333D01*
X115911238Y-85939333D01*
X116006476Y-85986952D01*
X116054095Y-86034571D01*
X116101714Y-86129809D01*
X116101714Y-86367904D01*
X116054095Y-86463142D01*
X116006476Y-86510761D01*
X115911238Y-86558380D01*
X115625523Y-86558380D01*
X115530285Y-86510761D01*
X115482666Y-86463142D01*
X115149333Y-89257142D02*
X115101714Y-89304761D01*
X114958857Y-89352380D01*
X114863619Y-89352380D01*
X114720761Y-89304761D01*
X114625523Y-89209523D01*
X114577904Y-89114285D01*
X114530285Y-88923809D01*
X114530285Y-88780952D01*
X114577904Y-88590476D01*
X114625523Y-88495238D01*
X114720761Y-88400000D01*
X114863619Y-88352380D01*
X114958857Y-88352380D01*
X115101714Y-88400000D01*
X115149333Y-88447619D01*
X116006476Y-88685714D02*
X116006476Y-89352380D01*
X115768380Y-88304761D02*
X115530285Y-89019047D01*
X116149333Y-89019047D01*
X115149333Y-83161142D02*
X115101714Y-83208761D01*
X114958857Y-83256380D01*
X114863619Y-83256380D01*
X114720761Y-83208761D01*
X114625523Y-83113523D01*
X114577904Y-83018285D01*
X114530285Y-82827809D01*
X114530285Y-82684952D01*
X114577904Y-82494476D01*
X114625523Y-82399238D01*
X114720761Y-82304000D01*
X114863619Y-82256380D01*
X114958857Y-82256380D01*
X115101714Y-82304000D01*
X115149333Y-82351619D01*
X116006476Y-82256380D02*
X115816000Y-82256380D01*
X115720761Y-82304000D01*
X115673142Y-82351619D01*
X115577904Y-82494476D01*
X115530285Y-82684952D01*
X115530285Y-83065904D01*
X115577904Y-83161142D01*
X115625523Y-83208761D01*
X115720761Y-83256380D01*
X115911238Y-83256380D01*
X116006476Y-83208761D01*
X116054095Y-83161142D01*
X116101714Y-83065904D01*
X116101714Y-82827809D01*
X116054095Y-82732571D01*
X116006476Y-82684952D01*
X115911238Y-82637333D01*
X115720761Y-82637333D01*
X115625523Y-82684952D01*
X115577904Y-82732571D01*
X115530285Y-82827809D01*
X122358333Y-54205142D02*
X122310714Y-54252761D01*
X122167857Y-54300380D01*
X122072619Y-54300380D01*
X121929761Y-54252761D01*
X121834523Y-54157523D01*
X121786904Y-54062285D01*
X121739285Y-53871809D01*
X121739285Y-53728952D01*
X121786904Y-53538476D01*
X121834523Y-53443238D01*
X121929761Y-53348000D01*
X122072619Y-53300380D01*
X122167857Y-53300380D01*
X122310714Y-53348000D01*
X122358333Y-53395619D01*
X122691666Y-53300380D02*
X123358333Y-53300380D01*
X122929761Y-54300380D01*
X88479333Y-88749142D02*
X88431714Y-88796761D01*
X88288857Y-88844380D01*
X88193619Y-88844380D01*
X88050761Y-88796761D01*
X87955523Y-88701523D01*
X87907904Y-88606285D01*
X87860285Y-88415809D01*
X87860285Y-88272952D01*
X87907904Y-88082476D01*
X87955523Y-87987238D01*
X88050761Y-87892000D01*
X88193619Y-87844380D01*
X88288857Y-87844380D01*
X88431714Y-87892000D01*
X88479333Y-87939619D01*
X89050761Y-88272952D02*
X88955523Y-88225333D01*
X88907904Y-88177714D01*
X88860285Y-88082476D01*
X88860285Y-88034857D01*
X88907904Y-87939619D01*
X88955523Y-87892000D01*
X89050761Y-87844380D01*
X89241238Y-87844380D01*
X89336476Y-87892000D01*
X89384095Y-87939619D01*
X89431714Y-88034857D01*
X89431714Y-88082476D01*
X89384095Y-88177714D01*
X89336476Y-88225333D01*
X89241238Y-88272952D01*
X89050761Y-88272952D01*
X88955523Y-88320571D01*
X88907904Y-88368190D01*
X88860285Y-88463428D01*
X88860285Y-88653904D01*
X88907904Y-88749142D01*
X88955523Y-88796761D01*
X89050761Y-88844380D01*
X89241238Y-88844380D01*
X89336476Y-88796761D01*
X89384095Y-88749142D01*
X89431714Y-88653904D01*
X89431714Y-88463428D01*
X89384095Y-88368190D01*
X89336476Y-88320571D01*
X89241238Y-88272952D01*
X83685142Y-79605142D02*
X83637523Y-79652761D01*
X83494666Y-79700380D01*
X83399428Y-79700380D01*
X83256571Y-79652761D01*
X83161333Y-79557523D01*
X83113714Y-79462285D01*
X83066095Y-79271809D01*
X83066095Y-79128952D01*
X83113714Y-78938476D01*
X83161333Y-78843238D01*
X83256571Y-78748000D01*
X83399428Y-78700380D01*
X83494666Y-78700380D01*
X83637523Y-78748000D01*
X83685142Y-78795619D01*
X84637523Y-79700380D02*
X84066095Y-79700380D01*
X84351809Y-79700380D02*
X84351809Y-78700380D01*
X84256571Y-78843238D01*
X84161333Y-78938476D01*
X84066095Y-78986095D01*
X85256571Y-78700380D02*
X85351809Y-78700380D01*
X85447047Y-78748000D01*
X85494666Y-78795619D01*
X85542285Y-78890857D01*
X85589904Y-79081333D01*
X85589904Y-79319428D01*
X85542285Y-79509904D01*
X85494666Y-79605142D01*
X85447047Y-79652761D01*
X85351809Y-79700380D01*
X85256571Y-79700380D01*
X85161333Y-79652761D01*
X85113714Y-79605142D01*
X85066095Y-79509904D01*
X85018476Y-79319428D01*
X85018476Y-79081333D01*
X85066095Y-78890857D01*
X85113714Y-78795619D01*
X85161333Y-78748000D01*
X85256571Y-78700380D01*
X86225142Y-65476380D02*
X85891809Y-65000190D01*
X85653714Y-65476380D02*
X85653714Y-64476380D01*
X86034666Y-64476380D01*
X86129904Y-64524000D01*
X86177523Y-64571619D01*
X86225142Y-64666857D01*
X86225142Y-64809714D01*
X86177523Y-64904952D01*
X86129904Y-64952571D01*
X86034666Y-65000190D01*
X85653714Y-65000190D01*
X87177523Y-65476380D02*
X86606095Y-65476380D01*
X86891809Y-65476380D02*
X86891809Y-64476380D01*
X86796571Y-64619238D01*
X86701333Y-64714476D01*
X86606095Y-64762095D01*
X87558476Y-64571619D02*
X87606095Y-64524000D01*
X87701333Y-64476380D01*
X87939428Y-64476380D01*
X88034666Y-64524000D01*
X88082285Y-64571619D01*
X88129904Y-64666857D01*
X88129904Y-64762095D01*
X88082285Y-64904952D01*
X87510857Y-65476380D01*
X88129904Y-65476380D01*
X80835619Y-72993238D02*
X80788000Y-73088476D01*
X80692761Y-73183714D01*
X80549904Y-73326571D01*
X80502285Y-73421809D01*
X80502285Y-73517047D01*
X80740380Y-73469428D02*
X80692761Y-73564666D01*
X80597523Y-73659904D01*
X80407047Y-73707523D01*
X80073714Y-73707523D01*
X79883238Y-73659904D01*
X79788000Y-73564666D01*
X79740380Y-73469428D01*
X79740380Y-73278952D01*
X79788000Y-73183714D01*
X79883238Y-73088476D01*
X80073714Y-73040857D01*
X80407047Y-73040857D01*
X80597523Y-73088476D01*
X80692761Y-73183714D01*
X80740380Y-73278952D01*
X80740380Y-73469428D01*
X80740380Y-72088476D02*
X80740380Y-72659904D01*
X80740380Y-72374190D02*
X79740380Y-72374190D01*
X79883238Y-72469428D01*
X79978476Y-72564666D01*
X80026095Y-72659904D01*
X91503619Y-72993238D02*
X91456000Y-73088476D01*
X91360761Y-73183714D01*
X91217904Y-73326571D01*
X91170285Y-73421809D01*
X91170285Y-73517047D01*
X91408380Y-73469428D02*
X91360761Y-73564666D01*
X91265523Y-73659904D01*
X91075047Y-73707523D01*
X90741714Y-73707523D01*
X90551238Y-73659904D01*
X90456000Y-73564666D01*
X90408380Y-73469428D01*
X90408380Y-73278952D01*
X90456000Y-73183714D01*
X90551238Y-73088476D01*
X90741714Y-73040857D01*
X91075047Y-73040857D01*
X91265523Y-73088476D01*
X91360761Y-73183714D01*
X91408380Y-73278952D01*
X91408380Y-73469428D01*
X90503619Y-72659904D02*
X90456000Y-72612285D01*
X90408380Y-72517047D01*
X90408380Y-72278952D01*
X90456000Y-72183714D01*
X90503619Y-72136095D01*
X90598857Y-72088476D01*
X90694095Y-72088476D01*
X90836952Y-72136095D01*
X91408380Y-72707523D01*
X91408380Y-72088476D01*
X102012761Y-75501619D02*
X101917523Y-75454000D01*
X101822285Y-75358761D01*
X101679428Y-75215904D01*
X101584190Y-75168285D01*
X101488952Y-75168285D01*
X101536571Y-75406380D02*
X101441333Y-75358761D01*
X101346095Y-75263523D01*
X101298476Y-75073047D01*
X101298476Y-74739714D01*
X101346095Y-74549238D01*
X101441333Y-74454000D01*
X101536571Y-74406380D01*
X101727047Y-74406380D01*
X101822285Y-74454000D01*
X101917523Y-74549238D01*
X101965142Y-74739714D01*
X101965142Y-75073047D01*
X101917523Y-75263523D01*
X101822285Y-75358761D01*
X101727047Y-75406380D01*
X101536571Y-75406380D01*
X102298476Y-74406380D02*
X102917523Y-74406380D01*
X102584190Y-74787333D01*
X102727047Y-74787333D01*
X102822285Y-74834952D01*
X102869904Y-74882571D01*
X102917523Y-74977809D01*
X102917523Y-75215904D01*
X102869904Y-75311142D01*
X102822285Y-75358761D01*
X102727047Y-75406380D01*
X102441333Y-75406380D01*
X102346095Y-75358761D01*
X102298476Y-75311142D01*
X90170095Y-58470380D02*
X90170095Y-59279904D01*
X90217714Y-59375142D01*
X90265333Y-59422761D01*
X90360571Y-59470380D01*
X90551047Y-59470380D01*
X90646285Y-59422761D01*
X90693904Y-59375142D01*
X90741523Y-59279904D01*
X90741523Y-58470380D01*
X91741523Y-59470380D02*
X91170095Y-59470380D01*
X91455809Y-59470380D02*
X91455809Y-58470380D01*
X91360571Y-58613238D01*
X91265333Y-58708476D01*
X91170095Y-58756095D01*
M02*
