M48
; DRILL file {KiCad (5.1.5)-3} date 6/9/2020 3:43:24 PM
; FORMAT={-:-/ absolute / metric / decimal}
; #@! TF.CreationDate,2020-06-09T15:43:24-07:00
; #@! TF.GenerationSoftware,Kicad,Pcbnew,(5.1.5)-3
FMAT,2
METRIC
T1C0.400
T2C0.800
T3C1.000
T4C1.200
T5C1.500
T6C1.501
%
G90
G05
T1
X71.374Y-82.042
X74.168Y-78.994
X74.168Y-107.696
X82.55Y-92.456
X86.106Y-62.23
X91.03Y-62.177
X91.186Y-84.836
X91.186Y-89.408
X94.742Y-60.452
X97.282Y-77.978
X98.679Y-81.915
X114.046Y-88.9
X120.142Y-55.626
X120.142Y-71.374
T2
X91.948Y-86.868
X102.108Y-86.868
X83.058Y-76.454
X93.218Y-76.454
X106.68Y-72.644
X106.68Y-82.804
T3
X83.058Y-72.898
X85.598Y-72.898
X88.138Y-72.898
X62.484Y-67.818
X62.484Y-70.358
X62.484Y-72.898
X62.484Y-75.438
X62.484Y-77.978
X62.484Y-80.518
X62.484Y-83.058
X62.484Y-85.598
X62.484Y-88.138
X62.484Y-90.678
X62.484Y-93.218
X62.484Y-95.758
X62.484Y-98.298
X62.484Y-100.838
X62.484Y-103.378
X77.724Y-67.818
X77.724Y-70.358
X77.724Y-72.898
X77.724Y-75.438
X77.724Y-77.978
X77.724Y-80.518
X77.724Y-83.058
X77.724Y-85.598
X77.724Y-88.138
X77.724Y-90.678
X77.724Y-93.218
X77.724Y-95.758
X77.724Y-98.298
X77.724Y-100.838
X77.724Y-103.378
X110.49Y-104.902
X113.03Y-104.902
X115.57Y-104.902
X118.11Y-104.902
X93.726Y-72.898
X96.266Y-72.898
X98.806Y-72.898
X102.108Y-77.724
X102.108Y-80.264
X102.108Y-82.804
T4
X123.19Y-58.674
X123.19Y-78.994
X83.598Y-68.338
X103.918Y-68.338
T5
X114.808Y-57.15
X114.808Y-79.75
X93.862Y-91.694
X102.362Y-91.794
X102.362Y-104.194
X62.236Y-57.15
X84.836Y-57.15
T6
X53.65Y-57.32
X53.65Y-62.4
X129.032Y-56.896
X129.032Y-61.976
T5
G00X93.862Y-104.194
M15
G01X93.862Y-104.194
M16
G05
T0
M30
