G04 #@! TF.GenerationSoftware,KiCad,Pcbnew,(5.1.5)-3*
G04 #@! TF.CreationDate,2020-06-09T15:43:22-07:00*
G04 #@! TF.ProjectId,MTTP Charge Controller,4d545450-2043-4686-9172-676520436f6e,rev?*
G04 #@! TF.SameCoordinates,Original*
G04 #@! TF.FileFunction,Soldermask,Bot*
G04 #@! TF.FilePolarity,Negative*
%FSLAX46Y46*%
G04 Gerber Fmt 4.6, Leading zero omitted, Abs format (unit mm)*
G04 Created by KiCad (PCBNEW (5.1.5)-3) date 2020-06-09 15:43:22*
%MOMM*%
%LPD*%
G04 APERTURE LIST*
%ADD10C,0.100000*%
G04 APERTURE END LIST*
D10*
G36*
X104063000Y-105895000D02*
G01*
X100661000Y-105895000D01*
X100661000Y-102493000D01*
X104063000Y-102493000D01*
X104063000Y-105895000D01*
G37*
G36*
X94358162Y-102558368D02*
G01*
X94667724Y-102686593D01*
X94667725Y-102686594D01*
X94946324Y-102872747D01*
X95183253Y-103109676D01*
X95306537Y-103294184D01*
X95369407Y-103388276D01*
X95497632Y-103697838D01*
X95563000Y-104026465D01*
X95563000Y-104361535D01*
X95497632Y-104690162D01*
X95369407Y-104999724D01*
X95369406Y-104999725D01*
X95183253Y-105278324D01*
X94946324Y-105515253D01*
X94816719Y-105601852D01*
X94667724Y-105701407D01*
X94358162Y-105829632D01*
X94029535Y-105895000D01*
X93694465Y-105895000D01*
X93365838Y-105829632D01*
X93056276Y-105701407D01*
X92907281Y-105601852D01*
X92777676Y-105515253D01*
X92540747Y-105278324D01*
X92354594Y-104999725D01*
X92354593Y-104999724D01*
X92226368Y-104690162D01*
X92161000Y-104361535D01*
X92161000Y-104026465D01*
X92226368Y-103697838D01*
X92354593Y-103388276D01*
X92417463Y-103294184D01*
X92540747Y-103109676D01*
X92777676Y-102872747D01*
X93056275Y-102686594D01*
X93056276Y-102686593D01*
X93365838Y-102558368D01*
X93694465Y-102493000D01*
X94029535Y-102493000D01*
X94358162Y-102558368D01*
G37*
G36*
X119011000Y-105803000D02*
G01*
X117209000Y-105803000D01*
X117209000Y-104001000D01*
X119011000Y-104001000D01*
X119011000Y-105803000D01*
G37*
G36*
X115683512Y-104005927D02*
G01*
X115832812Y-104035624D01*
X115996784Y-104103544D01*
X116144354Y-104202147D01*
X116269853Y-104327646D01*
X116368456Y-104475216D01*
X116436376Y-104639188D01*
X116471000Y-104813259D01*
X116471000Y-104990741D01*
X116436376Y-105164812D01*
X116368456Y-105328784D01*
X116269853Y-105476354D01*
X116144354Y-105601853D01*
X115996784Y-105700456D01*
X115832812Y-105768376D01*
X115683512Y-105798073D01*
X115658742Y-105803000D01*
X115481258Y-105803000D01*
X115456488Y-105798073D01*
X115307188Y-105768376D01*
X115143216Y-105700456D01*
X114995646Y-105601853D01*
X114870147Y-105476354D01*
X114771544Y-105328784D01*
X114703624Y-105164812D01*
X114669000Y-104990741D01*
X114669000Y-104813259D01*
X114703624Y-104639188D01*
X114771544Y-104475216D01*
X114870147Y-104327646D01*
X114995646Y-104202147D01*
X115143216Y-104103544D01*
X115307188Y-104035624D01*
X115456488Y-104005927D01*
X115481258Y-104001000D01*
X115658742Y-104001000D01*
X115683512Y-104005927D01*
G37*
G36*
X113143512Y-104005927D02*
G01*
X113292812Y-104035624D01*
X113456784Y-104103544D01*
X113604354Y-104202147D01*
X113729853Y-104327646D01*
X113828456Y-104475216D01*
X113896376Y-104639188D01*
X113931000Y-104813259D01*
X113931000Y-104990741D01*
X113896376Y-105164812D01*
X113828456Y-105328784D01*
X113729853Y-105476354D01*
X113604354Y-105601853D01*
X113456784Y-105700456D01*
X113292812Y-105768376D01*
X113143512Y-105798073D01*
X113118742Y-105803000D01*
X112941258Y-105803000D01*
X112916488Y-105798073D01*
X112767188Y-105768376D01*
X112603216Y-105700456D01*
X112455646Y-105601853D01*
X112330147Y-105476354D01*
X112231544Y-105328784D01*
X112163624Y-105164812D01*
X112129000Y-104990741D01*
X112129000Y-104813259D01*
X112163624Y-104639188D01*
X112231544Y-104475216D01*
X112330147Y-104327646D01*
X112455646Y-104202147D01*
X112603216Y-104103544D01*
X112767188Y-104035624D01*
X112916488Y-104005927D01*
X112941258Y-104001000D01*
X113118742Y-104001000D01*
X113143512Y-104005927D01*
G37*
G36*
X110603512Y-104005927D02*
G01*
X110752812Y-104035624D01*
X110916784Y-104103544D01*
X111064354Y-104202147D01*
X111189853Y-104327646D01*
X111288456Y-104475216D01*
X111356376Y-104639188D01*
X111391000Y-104813259D01*
X111391000Y-104990741D01*
X111356376Y-105164812D01*
X111288456Y-105328784D01*
X111189853Y-105476354D01*
X111064354Y-105601853D01*
X110916784Y-105700456D01*
X110752812Y-105768376D01*
X110603512Y-105798073D01*
X110578742Y-105803000D01*
X110401258Y-105803000D01*
X110376488Y-105798073D01*
X110227188Y-105768376D01*
X110063216Y-105700456D01*
X109915646Y-105601853D01*
X109790147Y-105476354D01*
X109691544Y-105328784D01*
X109623624Y-105164812D01*
X109589000Y-104990741D01*
X109589000Y-104813259D01*
X109623624Y-104639188D01*
X109691544Y-104475216D01*
X109790147Y-104327646D01*
X109915646Y-104202147D01*
X110063216Y-104103544D01*
X110227188Y-104035624D01*
X110376488Y-104005927D01*
X110401258Y-104001000D01*
X110578742Y-104001000D01*
X110603512Y-104005927D01*
G37*
G36*
X77972228Y-102559703D02*
G01*
X78127100Y-102623853D01*
X78266481Y-102716985D01*
X78385015Y-102835519D01*
X78478147Y-102974900D01*
X78542297Y-103129772D01*
X78575000Y-103294184D01*
X78575000Y-103461816D01*
X78542297Y-103626228D01*
X78478147Y-103781100D01*
X78385015Y-103920481D01*
X78266481Y-104039015D01*
X78127100Y-104132147D01*
X77972228Y-104196297D01*
X77807816Y-104229000D01*
X77640184Y-104229000D01*
X77475772Y-104196297D01*
X77320900Y-104132147D01*
X77181519Y-104039015D01*
X77062985Y-103920481D01*
X76969853Y-103781100D01*
X76905703Y-103626228D01*
X76873000Y-103461816D01*
X76873000Y-103294184D01*
X76905703Y-103129772D01*
X76969853Y-102974900D01*
X77062985Y-102835519D01*
X77181519Y-102716985D01*
X77320900Y-102623853D01*
X77475772Y-102559703D01*
X77640184Y-102527000D01*
X77807816Y-102527000D01*
X77972228Y-102559703D01*
G37*
G36*
X62732228Y-102559703D02*
G01*
X62887100Y-102623853D01*
X63026481Y-102716985D01*
X63145015Y-102835519D01*
X63238147Y-102974900D01*
X63302297Y-103129772D01*
X63335000Y-103294184D01*
X63335000Y-103461816D01*
X63302297Y-103626228D01*
X63238147Y-103781100D01*
X63145015Y-103920481D01*
X63026481Y-104039015D01*
X62887100Y-104132147D01*
X62732228Y-104196297D01*
X62567816Y-104229000D01*
X62400184Y-104229000D01*
X62235772Y-104196297D01*
X62080900Y-104132147D01*
X61941519Y-104039015D01*
X61822985Y-103920481D01*
X61729853Y-103781100D01*
X61665703Y-103626228D01*
X61633000Y-103461816D01*
X61633000Y-103294184D01*
X61665703Y-103129772D01*
X61729853Y-102974900D01*
X61822985Y-102835519D01*
X61941519Y-102716985D01*
X62080900Y-102623853D01*
X62235772Y-102559703D01*
X62400184Y-102527000D01*
X62567816Y-102527000D01*
X62732228Y-102559703D01*
G37*
G36*
X77972228Y-100019703D02*
G01*
X78127100Y-100083853D01*
X78266481Y-100176985D01*
X78385015Y-100295519D01*
X78478147Y-100434900D01*
X78542297Y-100589772D01*
X78575000Y-100754184D01*
X78575000Y-100921816D01*
X78542297Y-101086228D01*
X78478147Y-101241100D01*
X78385015Y-101380481D01*
X78266481Y-101499015D01*
X78127100Y-101592147D01*
X77972228Y-101656297D01*
X77807816Y-101689000D01*
X77640184Y-101689000D01*
X77475772Y-101656297D01*
X77320900Y-101592147D01*
X77181519Y-101499015D01*
X77062985Y-101380481D01*
X76969853Y-101241100D01*
X76905703Y-101086228D01*
X76873000Y-100921816D01*
X76873000Y-100754184D01*
X76905703Y-100589772D01*
X76969853Y-100434900D01*
X77062985Y-100295519D01*
X77181519Y-100176985D01*
X77320900Y-100083853D01*
X77475772Y-100019703D01*
X77640184Y-99987000D01*
X77807816Y-99987000D01*
X77972228Y-100019703D01*
G37*
G36*
X62732228Y-100019703D02*
G01*
X62887100Y-100083853D01*
X63026481Y-100176985D01*
X63145015Y-100295519D01*
X63238147Y-100434900D01*
X63302297Y-100589772D01*
X63335000Y-100754184D01*
X63335000Y-100921816D01*
X63302297Y-101086228D01*
X63238147Y-101241100D01*
X63145015Y-101380481D01*
X63026481Y-101499015D01*
X62887100Y-101592147D01*
X62732228Y-101656297D01*
X62567816Y-101689000D01*
X62400184Y-101689000D01*
X62235772Y-101656297D01*
X62080900Y-101592147D01*
X61941519Y-101499015D01*
X61822985Y-101380481D01*
X61729853Y-101241100D01*
X61665703Y-101086228D01*
X61633000Y-100921816D01*
X61633000Y-100754184D01*
X61665703Y-100589772D01*
X61729853Y-100434900D01*
X61822985Y-100295519D01*
X61941519Y-100176985D01*
X62080900Y-100083853D01*
X62235772Y-100019703D01*
X62400184Y-99987000D01*
X62567816Y-99987000D01*
X62732228Y-100019703D01*
G37*
G36*
X62732228Y-97479703D02*
G01*
X62887100Y-97543853D01*
X63026481Y-97636985D01*
X63145015Y-97755519D01*
X63238147Y-97894900D01*
X63302297Y-98049772D01*
X63335000Y-98214184D01*
X63335000Y-98381816D01*
X63302297Y-98546228D01*
X63238147Y-98701100D01*
X63145015Y-98840481D01*
X63026481Y-98959015D01*
X62887100Y-99052147D01*
X62732228Y-99116297D01*
X62567816Y-99149000D01*
X62400184Y-99149000D01*
X62235772Y-99116297D01*
X62080900Y-99052147D01*
X61941519Y-98959015D01*
X61822985Y-98840481D01*
X61729853Y-98701100D01*
X61665703Y-98546228D01*
X61633000Y-98381816D01*
X61633000Y-98214184D01*
X61665703Y-98049772D01*
X61729853Y-97894900D01*
X61822985Y-97755519D01*
X61941519Y-97636985D01*
X62080900Y-97543853D01*
X62235772Y-97479703D01*
X62400184Y-97447000D01*
X62567816Y-97447000D01*
X62732228Y-97479703D01*
G37*
G36*
X77972228Y-97479703D02*
G01*
X78127100Y-97543853D01*
X78266481Y-97636985D01*
X78385015Y-97755519D01*
X78478147Y-97894900D01*
X78542297Y-98049772D01*
X78575000Y-98214184D01*
X78575000Y-98381816D01*
X78542297Y-98546228D01*
X78478147Y-98701100D01*
X78385015Y-98840481D01*
X78266481Y-98959015D01*
X78127100Y-99052147D01*
X77972228Y-99116297D01*
X77807816Y-99149000D01*
X77640184Y-99149000D01*
X77475772Y-99116297D01*
X77320900Y-99052147D01*
X77181519Y-98959015D01*
X77062985Y-98840481D01*
X76969853Y-98701100D01*
X76905703Y-98546228D01*
X76873000Y-98381816D01*
X76873000Y-98214184D01*
X76905703Y-98049772D01*
X76969853Y-97894900D01*
X77062985Y-97755519D01*
X77181519Y-97636985D01*
X77320900Y-97543853D01*
X77475772Y-97479703D01*
X77640184Y-97447000D01*
X77807816Y-97447000D01*
X77972228Y-97479703D01*
G37*
G36*
X77972228Y-94939703D02*
G01*
X78127100Y-95003853D01*
X78266481Y-95096985D01*
X78385015Y-95215519D01*
X78478147Y-95354900D01*
X78542297Y-95509772D01*
X78575000Y-95674184D01*
X78575000Y-95841816D01*
X78542297Y-96006228D01*
X78478147Y-96161100D01*
X78385015Y-96300481D01*
X78266481Y-96419015D01*
X78127100Y-96512147D01*
X77972228Y-96576297D01*
X77807816Y-96609000D01*
X77640184Y-96609000D01*
X77475772Y-96576297D01*
X77320900Y-96512147D01*
X77181519Y-96419015D01*
X77062985Y-96300481D01*
X76969853Y-96161100D01*
X76905703Y-96006228D01*
X76873000Y-95841816D01*
X76873000Y-95674184D01*
X76905703Y-95509772D01*
X76969853Y-95354900D01*
X77062985Y-95215519D01*
X77181519Y-95096985D01*
X77320900Y-95003853D01*
X77475772Y-94939703D01*
X77640184Y-94907000D01*
X77807816Y-94907000D01*
X77972228Y-94939703D01*
G37*
G36*
X62732228Y-94939703D02*
G01*
X62887100Y-95003853D01*
X63026481Y-95096985D01*
X63145015Y-95215519D01*
X63238147Y-95354900D01*
X63302297Y-95509772D01*
X63335000Y-95674184D01*
X63335000Y-95841816D01*
X63302297Y-96006228D01*
X63238147Y-96161100D01*
X63145015Y-96300481D01*
X63026481Y-96419015D01*
X62887100Y-96512147D01*
X62732228Y-96576297D01*
X62567816Y-96609000D01*
X62400184Y-96609000D01*
X62235772Y-96576297D01*
X62080900Y-96512147D01*
X61941519Y-96419015D01*
X61822985Y-96300481D01*
X61729853Y-96161100D01*
X61665703Y-96006228D01*
X61633000Y-95841816D01*
X61633000Y-95674184D01*
X61665703Y-95509772D01*
X61729853Y-95354900D01*
X61822985Y-95215519D01*
X61941519Y-95096985D01*
X62080900Y-95003853D01*
X62235772Y-94939703D01*
X62400184Y-94907000D01*
X62567816Y-94907000D01*
X62732228Y-94939703D01*
G37*
G36*
X62732228Y-92399703D02*
G01*
X62887100Y-92463853D01*
X63026481Y-92556985D01*
X63145015Y-92675519D01*
X63238147Y-92814900D01*
X63302297Y-92969772D01*
X63335000Y-93134184D01*
X63335000Y-93301816D01*
X63302297Y-93466228D01*
X63238147Y-93621100D01*
X63145015Y-93760481D01*
X63026481Y-93879015D01*
X62887100Y-93972147D01*
X62732228Y-94036297D01*
X62567816Y-94069000D01*
X62400184Y-94069000D01*
X62235772Y-94036297D01*
X62080900Y-93972147D01*
X61941519Y-93879015D01*
X61822985Y-93760481D01*
X61729853Y-93621100D01*
X61665703Y-93466228D01*
X61633000Y-93301816D01*
X61633000Y-93134184D01*
X61665703Y-92969772D01*
X61729853Y-92814900D01*
X61822985Y-92675519D01*
X61941519Y-92556985D01*
X62080900Y-92463853D01*
X62235772Y-92399703D01*
X62400184Y-92367000D01*
X62567816Y-92367000D01*
X62732228Y-92399703D01*
G37*
G36*
X77972228Y-92399703D02*
G01*
X78127100Y-92463853D01*
X78266481Y-92556985D01*
X78385015Y-92675519D01*
X78478147Y-92814900D01*
X78542297Y-92969772D01*
X78575000Y-93134184D01*
X78575000Y-93301816D01*
X78542297Y-93466228D01*
X78478147Y-93621100D01*
X78385015Y-93760481D01*
X78266481Y-93879015D01*
X78127100Y-93972147D01*
X77972228Y-94036297D01*
X77807816Y-94069000D01*
X77640184Y-94069000D01*
X77475772Y-94036297D01*
X77320900Y-93972147D01*
X77181519Y-93879015D01*
X77062985Y-93760481D01*
X76969853Y-93621100D01*
X76905703Y-93466228D01*
X76873000Y-93301816D01*
X76873000Y-93134184D01*
X76905703Y-92969772D01*
X76969853Y-92814900D01*
X77062985Y-92675519D01*
X77181519Y-92556985D01*
X77320900Y-92463853D01*
X77475772Y-92399703D01*
X77640184Y-92367000D01*
X77807816Y-92367000D01*
X77972228Y-92399703D01*
G37*
G36*
X102858162Y-90158368D02*
G01*
X103167724Y-90286593D01*
X103167725Y-90286594D01*
X103446324Y-90472747D01*
X103683253Y-90709676D01*
X103807637Y-90895830D01*
X103869407Y-90988276D01*
X103997632Y-91297838D01*
X104063000Y-91626465D01*
X104063000Y-91961535D01*
X103997632Y-92290162D01*
X103869407Y-92599724D01*
X103869406Y-92599725D01*
X103683253Y-92878324D01*
X103446324Y-93115253D01*
X103260170Y-93239637D01*
X103167724Y-93301407D01*
X102858162Y-93429632D01*
X102529535Y-93495000D01*
X102194465Y-93495000D01*
X101865838Y-93429632D01*
X101556276Y-93301407D01*
X101463830Y-93239637D01*
X101277676Y-93115253D01*
X101040747Y-92878324D01*
X100854594Y-92599725D01*
X100854593Y-92599724D01*
X100726368Y-92290162D01*
X100661000Y-91961535D01*
X100661000Y-91626465D01*
X100726368Y-91297838D01*
X100854593Y-90988276D01*
X100916363Y-90895830D01*
X101040747Y-90709676D01*
X101277676Y-90472747D01*
X101556275Y-90286594D01*
X101556276Y-90286593D01*
X101865838Y-90158368D01*
X102194465Y-90093000D01*
X102529535Y-90093000D01*
X102858162Y-90158368D01*
G37*
G36*
X95563000Y-93395000D02*
G01*
X92161000Y-93395000D01*
X92161000Y-89993000D01*
X95563000Y-89993000D01*
X95563000Y-93395000D01*
G37*
G36*
X77972228Y-89859703D02*
G01*
X78127100Y-89923853D01*
X78266481Y-90016985D01*
X78385015Y-90135519D01*
X78478147Y-90274900D01*
X78542297Y-90429772D01*
X78575000Y-90594184D01*
X78575000Y-90761816D01*
X78542297Y-90926228D01*
X78478147Y-91081100D01*
X78385015Y-91220481D01*
X78266481Y-91339015D01*
X78127100Y-91432147D01*
X77972228Y-91496297D01*
X77807816Y-91529000D01*
X77640184Y-91529000D01*
X77475772Y-91496297D01*
X77320900Y-91432147D01*
X77181519Y-91339015D01*
X77062985Y-91220481D01*
X76969853Y-91081100D01*
X76905703Y-90926228D01*
X76873000Y-90761816D01*
X76873000Y-90594184D01*
X76905703Y-90429772D01*
X76969853Y-90274900D01*
X77062985Y-90135519D01*
X77181519Y-90016985D01*
X77320900Y-89923853D01*
X77475772Y-89859703D01*
X77640184Y-89827000D01*
X77807816Y-89827000D01*
X77972228Y-89859703D01*
G37*
G36*
X62732228Y-89859703D02*
G01*
X62887100Y-89923853D01*
X63026481Y-90016985D01*
X63145015Y-90135519D01*
X63238147Y-90274900D01*
X63302297Y-90429772D01*
X63335000Y-90594184D01*
X63335000Y-90761816D01*
X63302297Y-90926228D01*
X63238147Y-91081100D01*
X63145015Y-91220481D01*
X63026481Y-91339015D01*
X62887100Y-91432147D01*
X62732228Y-91496297D01*
X62567816Y-91529000D01*
X62400184Y-91529000D01*
X62235772Y-91496297D01*
X62080900Y-91432147D01*
X61941519Y-91339015D01*
X61822985Y-91220481D01*
X61729853Y-91081100D01*
X61665703Y-90926228D01*
X61633000Y-90761816D01*
X61633000Y-90594184D01*
X61665703Y-90429772D01*
X61729853Y-90274900D01*
X61822985Y-90135519D01*
X61941519Y-90016985D01*
X62080900Y-89923853D01*
X62235772Y-89859703D01*
X62400184Y-89827000D01*
X62567816Y-89827000D01*
X62732228Y-89859703D01*
G37*
G36*
X77972228Y-87319703D02*
G01*
X78127100Y-87383853D01*
X78266481Y-87476985D01*
X78385015Y-87595519D01*
X78478147Y-87734900D01*
X78542297Y-87889772D01*
X78575000Y-88054184D01*
X78575000Y-88221816D01*
X78542297Y-88386228D01*
X78478147Y-88541100D01*
X78385015Y-88680481D01*
X78266481Y-88799015D01*
X78127100Y-88892147D01*
X77972228Y-88956297D01*
X77807816Y-88989000D01*
X77640184Y-88989000D01*
X77475772Y-88956297D01*
X77320900Y-88892147D01*
X77181519Y-88799015D01*
X77062985Y-88680481D01*
X76969853Y-88541100D01*
X76905703Y-88386228D01*
X76873000Y-88221816D01*
X76873000Y-88054184D01*
X76905703Y-87889772D01*
X76969853Y-87734900D01*
X77062985Y-87595519D01*
X77181519Y-87476985D01*
X77320900Y-87383853D01*
X77475772Y-87319703D01*
X77640184Y-87287000D01*
X77807816Y-87287000D01*
X77972228Y-87319703D01*
G37*
G36*
X62732228Y-87319703D02*
G01*
X62887100Y-87383853D01*
X63026481Y-87476985D01*
X63145015Y-87595519D01*
X63238147Y-87734900D01*
X63302297Y-87889772D01*
X63335000Y-88054184D01*
X63335000Y-88221816D01*
X63302297Y-88386228D01*
X63238147Y-88541100D01*
X63145015Y-88680481D01*
X63026481Y-88799015D01*
X62887100Y-88892147D01*
X62732228Y-88956297D01*
X62567816Y-88989000D01*
X62400184Y-88989000D01*
X62235772Y-88956297D01*
X62080900Y-88892147D01*
X61941519Y-88799015D01*
X61822985Y-88680481D01*
X61729853Y-88541100D01*
X61665703Y-88386228D01*
X61633000Y-88221816D01*
X61633000Y-88054184D01*
X61665703Y-87889772D01*
X61729853Y-87734900D01*
X61822985Y-87595519D01*
X61941519Y-87476985D01*
X62080900Y-87383853D01*
X62235772Y-87319703D01*
X62400184Y-87287000D01*
X62567816Y-87287000D01*
X62732228Y-87319703D01*
G37*
G36*
X102356228Y-86049703D02*
G01*
X102511100Y-86113853D01*
X102650481Y-86206985D01*
X102769015Y-86325519D01*
X102862147Y-86464900D01*
X102926297Y-86619772D01*
X102959000Y-86784184D01*
X102959000Y-86951816D01*
X102926297Y-87116228D01*
X102862147Y-87271100D01*
X102769015Y-87410481D01*
X102650481Y-87529015D01*
X102511100Y-87622147D01*
X102356228Y-87686297D01*
X102191816Y-87719000D01*
X102024184Y-87719000D01*
X101859772Y-87686297D01*
X101704900Y-87622147D01*
X101565519Y-87529015D01*
X101446985Y-87410481D01*
X101353853Y-87271100D01*
X101289703Y-87116228D01*
X101257000Y-86951816D01*
X101257000Y-86784184D01*
X101289703Y-86619772D01*
X101353853Y-86464900D01*
X101446985Y-86325519D01*
X101565519Y-86206985D01*
X101704900Y-86113853D01*
X101859772Y-86049703D01*
X102024184Y-86017000D01*
X102191816Y-86017000D01*
X102356228Y-86049703D01*
G37*
G36*
X92799000Y-87719000D02*
G01*
X91097000Y-87719000D01*
X91097000Y-86017000D01*
X92799000Y-86017000D01*
X92799000Y-87719000D01*
G37*
G36*
X77972228Y-84779703D02*
G01*
X78127100Y-84843853D01*
X78266481Y-84936985D01*
X78385015Y-85055519D01*
X78478147Y-85194900D01*
X78542297Y-85349772D01*
X78575000Y-85514184D01*
X78575000Y-85681816D01*
X78542297Y-85846228D01*
X78478147Y-86001100D01*
X78385015Y-86140481D01*
X78266481Y-86259015D01*
X78127100Y-86352147D01*
X77972228Y-86416297D01*
X77807816Y-86449000D01*
X77640184Y-86449000D01*
X77475772Y-86416297D01*
X77320900Y-86352147D01*
X77181519Y-86259015D01*
X77062985Y-86140481D01*
X76969853Y-86001100D01*
X76905703Y-85846228D01*
X76873000Y-85681816D01*
X76873000Y-85514184D01*
X76905703Y-85349772D01*
X76969853Y-85194900D01*
X77062985Y-85055519D01*
X77181519Y-84936985D01*
X77320900Y-84843853D01*
X77475772Y-84779703D01*
X77640184Y-84747000D01*
X77807816Y-84747000D01*
X77972228Y-84779703D01*
G37*
G36*
X62732228Y-84779703D02*
G01*
X62887100Y-84843853D01*
X63026481Y-84936985D01*
X63145015Y-85055519D01*
X63238147Y-85194900D01*
X63302297Y-85349772D01*
X63335000Y-85514184D01*
X63335000Y-85681816D01*
X63302297Y-85846228D01*
X63238147Y-86001100D01*
X63145015Y-86140481D01*
X63026481Y-86259015D01*
X62887100Y-86352147D01*
X62732228Y-86416297D01*
X62567816Y-86449000D01*
X62400184Y-86449000D01*
X62235772Y-86416297D01*
X62080900Y-86352147D01*
X61941519Y-86259015D01*
X61822985Y-86140481D01*
X61729853Y-86001100D01*
X61665703Y-85846228D01*
X61633000Y-85681816D01*
X61633000Y-85514184D01*
X61665703Y-85349772D01*
X61729853Y-85194900D01*
X61822985Y-85055519D01*
X61941519Y-84936985D01*
X62080900Y-84843853D01*
X62235772Y-84779703D01*
X62400184Y-84747000D01*
X62567816Y-84747000D01*
X62732228Y-84779703D01*
G37*
G36*
X62732228Y-82239703D02*
G01*
X62887100Y-82303853D01*
X63026481Y-82396985D01*
X63145015Y-82515519D01*
X63238147Y-82654900D01*
X63302297Y-82809772D01*
X63335000Y-82974184D01*
X63335000Y-83141816D01*
X63302297Y-83306228D01*
X63238147Y-83461100D01*
X63145015Y-83600481D01*
X63026481Y-83719015D01*
X62887100Y-83812147D01*
X62732228Y-83876297D01*
X62567816Y-83909000D01*
X62400184Y-83909000D01*
X62235772Y-83876297D01*
X62080900Y-83812147D01*
X61941519Y-83719015D01*
X61822985Y-83600481D01*
X61729853Y-83461100D01*
X61665703Y-83306228D01*
X61633000Y-83141816D01*
X61633000Y-82974184D01*
X61665703Y-82809772D01*
X61729853Y-82654900D01*
X61822985Y-82515519D01*
X61941519Y-82396985D01*
X62080900Y-82303853D01*
X62235772Y-82239703D01*
X62400184Y-82207000D01*
X62567816Y-82207000D01*
X62732228Y-82239703D01*
G37*
G36*
X77972228Y-82239703D02*
G01*
X78127100Y-82303853D01*
X78266481Y-82396985D01*
X78385015Y-82515519D01*
X78478147Y-82654900D01*
X78542297Y-82809772D01*
X78575000Y-82974184D01*
X78575000Y-83141816D01*
X78542297Y-83306228D01*
X78478147Y-83461100D01*
X78385015Y-83600481D01*
X78266481Y-83719015D01*
X78127100Y-83812147D01*
X77972228Y-83876297D01*
X77807816Y-83909000D01*
X77640184Y-83909000D01*
X77475772Y-83876297D01*
X77320900Y-83812147D01*
X77181519Y-83719015D01*
X77062985Y-83600481D01*
X76969853Y-83461100D01*
X76905703Y-83306228D01*
X76873000Y-83141816D01*
X76873000Y-82974184D01*
X76905703Y-82809772D01*
X76969853Y-82654900D01*
X77062985Y-82515519D01*
X77181519Y-82396985D01*
X77320900Y-82303853D01*
X77475772Y-82239703D01*
X77640184Y-82207000D01*
X77807816Y-82207000D01*
X77972228Y-82239703D01*
G37*
G36*
X102221512Y-81907927D02*
G01*
X102370812Y-81937624D01*
X102534784Y-82005544D01*
X102682354Y-82104147D01*
X102807853Y-82229646D01*
X102906456Y-82377216D01*
X102974376Y-82541188D01*
X103009000Y-82715259D01*
X103009000Y-82892741D01*
X102974376Y-83066812D01*
X102906456Y-83230784D01*
X102807853Y-83378354D01*
X102682354Y-83503853D01*
X102534784Y-83602456D01*
X102370812Y-83670376D01*
X102221512Y-83700073D01*
X102196742Y-83705000D01*
X102019258Y-83705000D01*
X101994488Y-83700073D01*
X101845188Y-83670376D01*
X101681216Y-83602456D01*
X101533646Y-83503853D01*
X101408147Y-83378354D01*
X101309544Y-83230784D01*
X101241624Y-83066812D01*
X101207000Y-82892741D01*
X101207000Y-82715259D01*
X101241624Y-82541188D01*
X101309544Y-82377216D01*
X101408147Y-82229646D01*
X101533646Y-82104147D01*
X101681216Y-82005544D01*
X101845188Y-81937624D01*
X101994488Y-81907927D01*
X102019258Y-81903000D01*
X102196742Y-81903000D01*
X102221512Y-81907927D01*
G37*
G36*
X106928228Y-81985703D02*
G01*
X107083100Y-82049853D01*
X107222481Y-82142985D01*
X107341015Y-82261519D01*
X107434147Y-82400900D01*
X107498297Y-82555772D01*
X107531000Y-82720184D01*
X107531000Y-82887816D01*
X107498297Y-83052228D01*
X107434147Y-83207100D01*
X107341015Y-83346481D01*
X107222481Y-83465015D01*
X107083100Y-83558147D01*
X106928228Y-83622297D01*
X106763816Y-83655000D01*
X106596184Y-83655000D01*
X106431772Y-83622297D01*
X106276900Y-83558147D01*
X106137519Y-83465015D01*
X106018985Y-83346481D01*
X105925853Y-83207100D01*
X105861703Y-83052228D01*
X105829000Y-82887816D01*
X105829000Y-82720184D01*
X105861703Y-82555772D01*
X105925853Y-82400900D01*
X106018985Y-82261519D01*
X106137519Y-82142985D01*
X106276900Y-82049853D01*
X106431772Y-81985703D01*
X106596184Y-81953000D01*
X106763816Y-81953000D01*
X106928228Y-81985703D01*
G37*
G36*
X62732228Y-79699703D02*
G01*
X62887100Y-79763853D01*
X63026481Y-79856985D01*
X63145015Y-79975519D01*
X63238147Y-80114900D01*
X63302297Y-80269772D01*
X63335000Y-80434184D01*
X63335000Y-80601816D01*
X63302297Y-80766228D01*
X63238147Y-80921100D01*
X63145015Y-81060481D01*
X63026481Y-81179015D01*
X62887100Y-81272147D01*
X62732228Y-81336297D01*
X62567816Y-81369000D01*
X62400184Y-81369000D01*
X62235772Y-81336297D01*
X62080900Y-81272147D01*
X61941519Y-81179015D01*
X61822985Y-81060481D01*
X61729853Y-80921100D01*
X61665703Y-80766228D01*
X61633000Y-80601816D01*
X61633000Y-80434184D01*
X61665703Y-80269772D01*
X61729853Y-80114900D01*
X61822985Y-79975519D01*
X61941519Y-79856985D01*
X62080900Y-79763853D01*
X62235772Y-79699703D01*
X62400184Y-79667000D01*
X62567816Y-79667000D01*
X62732228Y-79699703D01*
G37*
G36*
X77972228Y-79699703D02*
G01*
X78127100Y-79763853D01*
X78266481Y-79856985D01*
X78385015Y-79975519D01*
X78478147Y-80114900D01*
X78542297Y-80269772D01*
X78575000Y-80434184D01*
X78575000Y-80601816D01*
X78542297Y-80766228D01*
X78478147Y-80921100D01*
X78385015Y-81060481D01*
X78266481Y-81179015D01*
X78127100Y-81272147D01*
X77972228Y-81336297D01*
X77807816Y-81369000D01*
X77640184Y-81369000D01*
X77475772Y-81336297D01*
X77320900Y-81272147D01*
X77181519Y-81179015D01*
X77062985Y-81060481D01*
X76969853Y-80921100D01*
X76905703Y-80766228D01*
X76873000Y-80601816D01*
X76873000Y-80434184D01*
X76905703Y-80269772D01*
X76969853Y-80114900D01*
X77062985Y-79975519D01*
X77181519Y-79856985D01*
X77320900Y-79763853D01*
X77475772Y-79699703D01*
X77640184Y-79667000D01*
X77807816Y-79667000D01*
X77972228Y-79699703D01*
G37*
G36*
X115097645Y-78226228D02*
G01*
X115260410Y-78258604D01*
X115542674Y-78375521D01*
X115796705Y-78545259D01*
X116012741Y-78761295D01*
X116182479Y-79015326D01*
X116224682Y-79117214D01*
X116299396Y-79297591D01*
X116359000Y-79597239D01*
X116359000Y-79902761D01*
X116339421Y-80001189D01*
X116299396Y-80202410D01*
X116182479Y-80484674D01*
X116012741Y-80738705D01*
X115796705Y-80954741D01*
X115542674Y-81124479D01*
X115260410Y-81241396D01*
X115110585Y-81271198D01*
X114960761Y-81301000D01*
X114655239Y-81301000D01*
X114505415Y-81271198D01*
X114355590Y-81241396D01*
X114073326Y-81124479D01*
X113819295Y-80954741D01*
X113603259Y-80738705D01*
X113433521Y-80484674D01*
X113316604Y-80202410D01*
X113276579Y-80001189D01*
X113257000Y-79902761D01*
X113257000Y-79597239D01*
X113316604Y-79297591D01*
X113391318Y-79117214D01*
X113433521Y-79015326D01*
X113603259Y-78761295D01*
X113819295Y-78545259D01*
X114073326Y-78375521D01*
X114355590Y-78258604D01*
X114518355Y-78226228D01*
X114655239Y-78199000D01*
X114960761Y-78199000D01*
X115097645Y-78226228D01*
G37*
G36*
X102221512Y-79367927D02*
G01*
X102370812Y-79397624D01*
X102534784Y-79465544D01*
X102682354Y-79564147D01*
X102807853Y-79689646D01*
X102906456Y-79837216D01*
X102974376Y-80001188D01*
X103009000Y-80175259D01*
X103009000Y-80352741D01*
X102974376Y-80526812D01*
X102906456Y-80690784D01*
X102807853Y-80838354D01*
X102682354Y-80963853D01*
X102534784Y-81062456D01*
X102370812Y-81130376D01*
X102221512Y-81160073D01*
X102196742Y-81165000D01*
X102019258Y-81165000D01*
X101994488Y-81160073D01*
X101845188Y-81130376D01*
X101681216Y-81062456D01*
X101533646Y-80963853D01*
X101408147Y-80838354D01*
X101309544Y-80690784D01*
X101241624Y-80526812D01*
X101207000Y-80352741D01*
X101207000Y-80175259D01*
X101241624Y-80001188D01*
X101309544Y-79837216D01*
X101408147Y-79689646D01*
X101533646Y-79564147D01*
X101681216Y-79465544D01*
X101845188Y-79397624D01*
X101994488Y-79367927D01*
X102019258Y-79363000D01*
X102196742Y-79363000D01*
X102221512Y-79367927D01*
G37*
G36*
X123554903Y-77791075D02*
G01*
X123782571Y-77885378D01*
X123987466Y-78022285D01*
X124161715Y-78196534D01*
X124298622Y-78401429D01*
X124298623Y-78401431D01*
X124347935Y-78520481D01*
X124392925Y-78629097D01*
X124441000Y-78870787D01*
X124441000Y-79117213D01*
X124392925Y-79358903D01*
X124298622Y-79586571D01*
X124161715Y-79791466D01*
X123987466Y-79965715D01*
X123782571Y-80102622D01*
X123782570Y-80102623D01*
X123782569Y-80102623D01*
X123554903Y-80196925D01*
X123313214Y-80245000D01*
X123066786Y-80245000D01*
X122825097Y-80196925D01*
X122597431Y-80102623D01*
X122597430Y-80102623D01*
X122597429Y-80102622D01*
X122392534Y-79965715D01*
X122218285Y-79791466D01*
X122081378Y-79586571D01*
X121987075Y-79358903D01*
X121939000Y-79117213D01*
X121939000Y-78870787D01*
X121987075Y-78629097D01*
X122032065Y-78520481D01*
X122081377Y-78401431D01*
X122081378Y-78401429D01*
X122218285Y-78196534D01*
X122392534Y-78022285D01*
X122597429Y-77885378D01*
X122825097Y-77791075D01*
X123066786Y-77743000D01*
X123313214Y-77743000D01*
X123554903Y-77791075D01*
G37*
G36*
X77972228Y-77159703D02*
G01*
X78127100Y-77223853D01*
X78266481Y-77316985D01*
X78385015Y-77435519D01*
X78478147Y-77574900D01*
X78542297Y-77729772D01*
X78575000Y-77894184D01*
X78575000Y-78061816D01*
X78542297Y-78226228D01*
X78478147Y-78381100D01*
X78385015Y-78520481D01*
X78266481Y-78639015D01*
X78127100Y-78732147D01*
X77972228Y-78796297D01*
X77807816Y-78829000D01*
X77640184Y-78829000D01*
X77475772Y-78796297D01*
X77320900Y-78732147D01*
X77181519Y-78639015D01*
X77062985Y-78520481D01*
X76969853Y-78381100D01*
X76905703Y-78226228D01*
X76873000Y-78061816D01*
X76873000Y-77894184D01*
X76905703Y-77729772D01*
X76969853Y-77574900D01*
X77062985Y-77435519D01*
X77181519Y-77316985D01*
X77320900Y-77223853D01*
X77475772Y-77159703D01*
X77640184Y-77127000D01*
X77807816Y-77127000D01*
X77972228Y-77159703D01*
G37*
G36*
X62732228Y-77159703D02*
G01*
X62887100Y-77223853D01*
X63026481Y-77316985D01*
X63145015Y-77435519D01*
X63238147Y-77574900D01*
X63302297Y-77729772D01*
X63335000Y-77894184D01*
X63335000Y-78061816D01*
X63302297Y-78226228D01*
X63238147Y-78381100D01*
X63145015Y-78520481D01*
X63026481Y-78639015D01*
X62887100Y-78732147D01*
X62732228Y-78796297D01*
X62567816Y-78829000D01*
X62400184Y-78829000D01*
X62235772Y-78796297D01*
X62080900Y-78732147D01*
X61941519Y-78639015D01*
X61822985Y-78520481D01*
X61729853Y-78381100D01*
X61665703Y-78226228D01*
X61633000Y-78061816D01*
X61633000Y-77894184D01*
X61665703Y-77729772D01*
X61729853Y-77574900D01*
X61822985Y-77435519D01*
X61941519Y-77316985D01*
X62080900Y-77223853D01*
X62235772Y-77159703D01*
X62400184Y-77127000D01*
X62567816Y-77127000D01*
X62732228Y-77159703D01*
G37*
G36*
X103009000Y-78625000D02*
G01*
X101207000Y-78625000D01*
X101207000Y-76823000D01*
X103009000Y-76823000D01*
X103009000Y-78625000D01*
G37*
G36*
X93466228Y-75635703D02*
G01*
X93621100Y-75699853D01*
X93760481Y-75792985D01*
X93879015Y-75911519D01*
X93972147Y-76050900D01*
X94036297Y-76205772D01*
X94069000Y-76370184D01*
X94069000Y-76537816D01*
X94036297Y-76702228D01*
X93972147Y-76857100D01*
X93879015Y-76996481D01*
X93760481Y-77115015D01*
X93621100Y-77208147D01*
X93466228Y-77272297D01*
X93301816Y-77305000D01*
X93134184Y-77305000D01*
X92969772Y-77272297D01*
X92814900Y-77208147D01*
X92675519Y-77115015D01*
X92556985Y-76996481D01*
X92463853Y-76857100D01*
X92399703Y-76702228D01*
X92367000Y-76537816D01*
X92367000Y-76370184D01*
X92399703Y-76205772D01*
X92463853Y-76050900D01*
X92556985Y-75911519D01*
X92675519Y-75792985D01*
X92814900Y-75699853D01*
X92969772Y-75635703D01*
X93134184Y-75603000D01*
X93301816Y-75603000D01*
X93466228Y-75635703D01*
G37*
G36*
X83909000Y-77305000D02*
G01*
X82207000Y-77305000D01*
X82207000Y-75603000D01*
X83909000Y-75603000D01*
X83909000Y-77305000D01*
G37*
G36*
X77972228Y-74619703D02*
G01*
X78127100Y-74683853D01*
X78266481Y-74776985D01*
X78385015Y-74895519D01*
X78478147Y-75034900D01*
X78542297Y-75189772D01*
X78575000Y-75354184D01*
X78575000Y-75521816D01*
X78542297Y-75686228D01*
X78478147Y-75841100D01*
X78385015Y-75980481D01*
X78266481Y-76099015D01*
X78127100Y-76192147D01*
X77972228Y-76256297D01*
X77807816Y-76289000D01*
X77640184Y-76289000D01*
X77475772Y-76256297D01*
X77320900Y-76192147D01*
X77181519Y-76099015D01*
X77062985Y-75980481D01*
X76969853Y-75841100D01*
X76905703Y-75686228D01*
X76873000Y-75521816D01*
X76873000Y-75354184D01*
X76905703Y-75189772D01*
X76969853Y-75034900D01*
X77062985Y-74895519D01*
X77181519Y-74776985D01*
X77320900Y-74683853D01*
X77475772Y-74619703D01*
X77640184Y-74587000D01*
X77807816Y-74587000D01*
X77972228Y-74619703D01*
G37*
G36*
X62732228Y-74619703D02*
G01*
X62887100Y-74683853D01*
X63026481Y-74776985D01*
X63145015Y-74895519D01*
X63238147Y-75034900D01*
X63302297Y-75189772D01*
X63335000Y-75354184D01*
X63335000Y-75521816D01*
X63302297Y-75686228D01*
X63238147Y-75841100D01*
X63145015Y-75980481D01*
X63026481Y-76099015D01*
X62887100Y-76192147D01*
X62732228Y-76256297D01*
X62567816Y-76289000D01*
X62400184Y-76289000D01*
X62235772Y-76256297D01*
X62080900Y-76192147D01*
X61941519Y-76099015D01*
X61822985Y-75980481D01*
X61729853Y-75841100D01*
X61665703Y-75686228D01*
X61633000Y-75521816D01*
X61633000Y-75354184D01*
X61665703Y-75189772D01*
X61729853Y-75034900D01*
X61822985Y-74895519D01*
X61941519Y-74776985D01*
X62080900Y-74683853D01*
X62235772Y-74619703D01*
X62400184Y-74587000D01*
X62567816Y-74587000D01*
X62732228Y-74619703D01*
G37*
G36*
X96379512Y-72001927D02*
G01*
X96528812Y-72031624D01*
X96692784Y-72099544D01*
X96840354Y-72198147D01*
X96965853Y-72323646D01*
X97064456Y-72471216D01*
X97132376Y-72635188D01*
X97167000Y-72809259D01*
X97167000Y-72986741D01*
X97132376Y-73160812D01*
X97064456Y-73324784D01*
X96965853Y-73472354D01*
X96840354Y-73597853D01*
X96692784Y-73696456D01*
X96528812Y-73764376D01*
X96379512Y-73794073D01*
X96354742Y-73799000D01*
X96177258Y-73799000D01*
X96152488Y-73794073D01*
X96003188Y-73764376D01*
X95839216Y-73696456D01*
X95691646Y-73597853D01*
X95566147Y-73472354D01*
X95467544Y-73324784D01*
X95399624Y-73160812D01*
X95365000Y-72986741D01*
X95365000Y-72809259D01*
X95399624Y-72635188D01*
X95467544Y-72471216D01*
X95566147Y-72323646D01*
X95691646Y-72198147D01*
X95839216Y-72099544D01*
X96003188Y-72031624D01*
X96152488Y-72001927D01*
X96177258Y-71997000D01*
X96354742Y-71997000D01*
X96379512Y-72001927D01*
G37*
G36*
X94627000Y-73799000D02*
G01*
X92825000Y-73799000D01*
X92825000Y-71997000D01*
X94627000Y-71997000D01*
X94627000Y-73799000D01*
G37*
G36*
X83959000Y-73799000D02*
G01*
X82157000Y-73799000D01*
X82157000Y-71997000D01*
X83959000Y-71997000D01*
X83959000Y-73799000D01*
G37*
G36*
X98919512Y-72001927D02*
G01*
X99068812Y-72031624D01*
X99232784Y-72099544D01*
X99380354Y-72198147D01*
X99505853Y-72323646D01*
X99604456Y-72471216D01*
X99672376Y-72635188D01*
X99707000Y-72809259D01*
X99707000Y-72986741D01*
X99672376Y-73160812D01*
X99604456Y-73324784D01*
X99505853Y-73472354D01*
X99380354Y-73597853D01*
X99232784Y-73696456D01*
X99068812Y-73764376D01*
X98919512Y-73794073D01*
X98894742Y-73799000D01*
X98717258Y-73799000D01*
X98692488Y-73794073D01*
X98543188Y-73764376D01*
X98379216Y-73696456D01*
X98231646Y-73597853D01*
X98106147Y-73472354D01*
X98007544Y-73324784D01*
X97939624Y-73160812D01*
X97905000Y-72986741D01*
X97905000Y-72809259D01*
X97939624Y-72635188D01*
X98007544Y-72471216D01*
X98106147Y-72323646D01*
X98231646Y-72198147D01*
X98379216Y-72099544D01*
X98543188Y-72031624D01*
X98692488Y-72001927D01*
X98717258Y-71997000D01*
X98894742Y-71997000D01*
X98919512Y-72001927D01*
G37*
G36*
X85711512Y-72001927D02*
G01*
X85860812Y-72031624D01*
X86024784Y-72099544D01*
X86172354Y-72198147D01*
X86297853Y-72323646D01*
X86396456Y-72471216D01*
X86464376Y-72635188D01*
X86499000Y-72809259D01*
X86499000Y-72986741D01*
X86464376Y-73160812D01*
X86396456Y-73324784D01*
X86297853Y-73472354D01*
X86172354Y-73597853D01*
X86024784Y-73696456D01*
X85860812Y-73764376D01*
X85711512Y-73794073D01*
X85686742Y-73799000D01*
X85509258Y-73799000D01*
X85484488Y-73794073D01*
X85335188Y-73764376D01*
X85171216Y-73696456D01*
X85023646Y-73597853D01*
X84898147Y-73472354D01*
X84799544Y-73324784D01*
X84731624Y-73160812D01*
X84697000Y-72986741D01*
X84697000Y-72809259D01*
X84731624Y-72635188D01*
X84799544Y-72471216D01*
X84898147Y-72323646D01*
X85023646Y-72198147D01*
X85171216Y-72099544D01*
X85335188Y-72031624D01*
X85484488Y-72001927D01*
X85509258Y-71997000D01*
X85686742Y-71997000D01*
X85711512Y-72001927D01*
G37*
G36*
X88251512Y-72001927D02*
G01*
X88400812Y-72031624D01*
X88564784Y-72099544D01*
X88712354Y-72198147D01*
X88837853Y-72323646D01*
X88936456Y-72471216D01*
X89004376Y-72635188D01*
X89039000Y-72809259D01*
X89039000Y-72986741D01*
X89004376Y-73160812D01*
X88936456Y-73324784D01*
X88837853Y-73472354D01*
X88712354Y-73597853D01*
X88564784Y-73696456D01*
X88400812Y-73764376D01*
X88251512Y-73794073D01*
X88226742Y-73799000D01*
X88049258Y-73799000D01*
X88024488Y-73794073D01*
X87875188Y-73764376D01*
X87711216Y-73696456D01*
X87563646Y-73597853D01*
X87438147Y-73472354D01*
X87339544Y-73324784D01*
X87271624Y-73160812D01*
X87237000Y-72986741D01*
X87237000Y-72809259D01*
X87271624Y-72635188D01*
X87339544Y-72471216D01*
X87438147Y-72323646D01*
X87563646Y-72198147D01*
X87711216Y-72099544D01*
X87875188Y-72031624D01*
X88024488Y-72001927D01*
X88049258Y-71997000D01*
X88226742Y-71997000D01*
X88251512Y-72001927D01*
G37*
G36*
X62732228Y-72079703D02*
G01*
X62887100Y-72143853D01*
X63026481Y-72236985D01*
X63145015Y-72355519D01*
X63238147Y-72494900D01*
X63302297Y-72649772D01*
X63335000Y-72814184D01*
X63335000Y-72981816D01*
X63302297Y-73146228D01*
X63238147Y-73301100D01*
X63145015Y-73440481D01*
X63026481Y-73559015D01*
X62887100Y-73652147D01*
X62732228Y-73716297D01*
X62567816Y-73749000D01*
X62400184Y-73749000D01*
X62235772Y-73716297D01*
X62080900Y-73652147D01*
X61941519Y-73559015D01*
X61822985Y-73440481D01*
X61729853Y-73301100D01*
X61665703Y-73146228D01*
X61633000Y-72981816D01*
X61633000Y-72814184D01*
X61665703Y-72649772D01*
X61729853Y-72494900D01*
X61822985Y-72355519D01*
X61941519Y-72236985D01*
X62080900Y-72143853D01*
X62235772Y-72079703D01*
X62400184Y-72047000D01*
X62567816Y-72047000D01*
X62732228Y-72079703D01*
G37*
G36*
X77972228Y-72079703D02*
G01*
X78127100Y-72143853D01*
X78266481Y-72236985D01*
X78385015Y-72355519D01*
X78478147Y-72494900D01*
X78542297Y-72649772D01*
X78575000Y-72814184D01*
X78575000Y-72981816D01*
X78542297Y-73146228D01*
X78478147Y-73301100D01*
X78385015Y-73440481D01*
X78266481Y-73559015D01*
X78127100Y-73652147D01*
X77972228Y-73716297D01*
X77807816Y-73749000D01*
X77640184Y-73749000D01*
X77475772Y-73716297D01*
X77320900Y-73652147D01*
X77181519Y-73559015D01*
X77062985Y-73440481D01*
X76969853Y-73301100D01*
X76905703Y-73146228D01*
X76873000Y-72981816D01*
X76873000Y-72814184D01*
X76905703Y-72649772D01*
X76969853Y-72494900D01*
X77062985Y-72355519D01*
X77181519Y-72236985D01*
X77320900Y-72143853D01*
X77475772Y-72079703D01*
X77640184Y-72047000D01*
X77807816Y-72047000D01*
X77972228Y-72079703D01*
G37*
G36*
X107531000Y-73495000D02*
G01*
X105829000Y-73495000D01*
X105829000Y-71793000D01*
X107531000Y-71793000D01*
X107531000Y-73495000D01*
G37*
G36*
X77972228Y-69539703D02*
G01*
X78127100Y-69603853D01*
X78266481Y-69696985D01*
X78385015Y-69815519D01*
X78478147Y-69954900D01*
X78542297Y-70109772D01*
X78575000Y-70274184D01*
X78575000Y-70441816D01*
X78542297Y-70606228D01*
X78478147Y-70761100D01*
X78385015Y-70900481D01*
X78266481Y-71019015D01*
X78127100Y-71112147D01*
X77972228Y-71176297D01*
X77807816Y-71209000D01*
X77640184Y-71209000D01*
X77475772Y-71176297D01*
X77320900Y-71112147D01*
X77181519Y-71019015D01*
X77062985Y-70900481D01*
X76969853Y-70761100D01*
X76905703Y-70606228D01*
X76873000Y-70441816D01*
X76873000Y-70274184D01*
X76905703Y-70109772D01*
X76969853Y-69954900D01*
X77062985Y-69815519D01*
X77181519Y-69696985D01*
X77320900Y-69603853D01*
X77475772Y-69539703D01*
X77640184Y-69507000D01*
X77807816Y-69507000D01*
X77972228Y-69539703D01*
G37*
G36*
X62732228Y-69539703D02*
G01*
X62887100Y-69603853D01*
X63026481Y-69696985D01*
X63145015Y-69815519D01*
X63238147Y-69954900D01*
X63302297Y-70109772D01*
X63335000Y-70274184D01*
X63335000Y-70441816D01*
X63302297Y-70606228D01*
X63238147Y-70761100D01*
X63145015Y-70900481D01*
X63026481Y-71019015D01*
X62887100Y-71112147D01*
X62732228Y-71176297D01*
X62567816Y-71209000D01*
X62400184Y-71209000D01*
X62235772Y-71176297D01*
X62080900Y-71112147D01*
X61941519Y-71019015D01*
X61822985Y-70900481D01*
X61729853Y-70761100D01*
X61665703Y-70606228D01*
X61633000Y-70441816D01*
X61633000Y-70274184D01*
X61665703Y-70109772D01*
X61729853Y-69954900D01*
X61822985Y-69815519D01*
X61941519Y-69696985D01*
X62080900Y-69603853D01*
X62235772Y-69539703D01*
X62400184Y-69507000D01*
X62567816Y-69507000D01*
X62732228Y-69539703D01*
G37*
G36*
X104282903Y-67135075D02*
G01*
X104510571Y-67229378D01*
X104715466Y-67366285D01*
X104889715Y-67540534D01*
X104909251Y-67569772D01*
X105026623Y-67745431D01*
X105120925Y-67973097D01*
X105169000Y-68214787D01*
X105169000Y-68461213D01*
X105120925Y-68702903D01*
X105026622Y-68930571D01*
X104889715Y-69135466D01*
X104715466Y-69309715D01*
X104510571Y-69446622D01*
X104510570Y-69446623D01*
X104510569Y-69446623D01*
X104282903Y-69540925D01*
X104041214Y-69589000D01*
X103794786Y-69589000D01*
X103553097Y-69540925D01*
X103325431Y-69446623D01*
X103325430Y-69446623D01*
X103325429Y-69446622D01*
X103120534Y-69309715D01*
X102946285Y-69135466D01*
X102809378Y-68930571D01*
X102715075Y-68702903D01*
X102667000Y-68461213D01*
X102667000Y-68214787D01*
X102715075Y-67973097D01*
X102809377Y-67745431D01*
X102926749Y-67569772D01*
X102946285Y-67540534D01*
X103120534Y-67366285D01*
X103325429Y-67229378D01*
X103553097Y-67135075D01*
X103794786Y-67087000D01*
X104041214Y-67087000D01*
X104282903Y-67135075D01*
G37*
G36*
X83962903Y-67135075D02*
G01*
X84190571Y-67229378D01*
X84395466Y-67366285D01*
X84569715Y-67540534D01*
X84589251Y-67569772D01*
X84706623Y-67745431D01*
X84800925Y-67973097D01*
X84849000Y-68214787D01*
X84849000Y-68461213D01*
X84800925Y-68702903D01*
X84706622Y-68930571D01*
X84569715Y-69135466D01*
X84395466Y-69309715D01*
X84190571Y-69446622D01*
X84190570Y-69446623D01*
X84190569Y-69446623D01*
X83962903Y-69540925D01*
X83721214Y-69589000D01*
X83474786Y-69589000D01*
X83233097Y-69540925D01*
X83005431Y-69446623D01*
X83005430Y-69446623D01*
X83005429Y-69446622D01*
X82800534Y-69309715D01*
X82626285Y-69135466D01*
X82489378Y-68930571D01*
X82395075Y-68702903D01*
X82347000Y-68461213D01*
X82347000Y-68214787D01*
X82395075Y-67973097D01*
X82489377Y-67745431D01*
X82606749Y-67569772D01*
X82626285Y-67540534D01*
X82800534Y-67366285D01*
X83005429Y-67229378D01*
X83233097Y-67135075D01*
X83474786Y-67087000D01*
X83721214Y-67087000D01*
X83962903Y-67135075D01*
G37*
G36*
X77972228Y-66999703D02*
G01*
X78127100Y-67063853D01*
X78266481Y-67156985D01*
X78385015Y-67275519D01*
X78478147Y-67414900D01*
X78542297Y-67569772D01*
X78575000Y-67734184D01*
X78575000Y-67901816D01*
X78542297Y-68066228D01*
X78478147Y-68221100D01*
X78385015Y-68360481D01*
X78266481Y-68479015D01*
X78127100Y-68572147D01*
X77972228Y-68636297D01*
X77807816Y-68669000D01*
X77640184Y-68669000D01*
X77475772Y-68636297D01*
X77320900Y-68572147D01*
X77181519Y-68479015D01*
X77062985Y-68360481D01*
X76969853Y-68221100D01*
X76905703Y-68066228D01*
X76873000Y-67901816D01*
X76873000Y-67734184D01*
X76905703Y-67569772D01*
X76969853Y-67414900D01*
X77062985Y-67275519D01*
X77181519Y-67156985D01*
X77320900Y-67063853D01*
X77475772Y-66999703D01*
X77640184Y-66967000D01*
X77807816Y-66967000D01*
X77972228Y-66999703D01*
G37*
G36*
X63335000Y-68669000D02*
G01*
X61633000Y-68669000D01*
X61633000Y-66967000D01*
X63335000Y-66967000D01*
X63335000Y-68669000D01*
G37*
G36*
X55451060Y-64201060D02*
G01*
X51848940Y-64201060D01*
X51848940Y-60598940D01*
X55451060Y-60598940D01*
X55451060Y-64201060D01*
G37*
G36*
X129258905Y-60184789D02*
G01*
X129557350Y-60244153D01*
X129885122Y-60379921D01*
X130180109Y-60577025D01*
X130430975Y-60827891D01*
X130628079Y-61122878D01*
X130763847Y-61450650D01*
X130833060Y-61798611D01*
X130833060Y-62153389D01*
X130763847Y-62501350D01*
X130628079Y-62829122D01*
X130430975Y-63124109D01*
X130180109Y-63374975D01*
X129885122Y-63572079D01*
X129557350Y-63707847D01*
X129258905Y-63767211D01*
X129209390Y-63777060D01*
X128854610Y-63777060D01*
X128805095Y-63767211D01*
X128506650Y-63707847D01*
X128178878Y-63572079D01*
X127883891Y-63374975D01*
X127633025Y-63124109D01*
X127435921Y-62829122D01*
X127300153Y-62501350D01*
X127230940Y-62153389D01*
X127230940Y-61798611D01*
X127300153Y-61450650D01*
X127435921Y-61122878D01*
X127633025Y-60827891D01*
X127883891Y-60577025D01*
X128178878Y-60379921D01*
X128506650Y-60244153D01*
X128805095Y-60184789D01*
X128854610Y-60174940D01*
X129209390Y-60174940D01*
X129258905Y-60184789D01*
G37*
G36*
X123554903Y-57471075D02*
G01*
X123782571Y-57565378D01*
X123987466Y-57702285D01*
X124161715Y-57876534D01*
X124167154Y-57884674D01*
X124298623Y-58081431D01*
X124392925Y-58309097D01*
X124441000Y-58550787D01*
X124441000Y-58797213D01*
X124392925Y-59038903D01*
X124298622Y-59266571D01*
X124161715Y-59471466D01*
X123987466Y-59645715D01*
X123782571Y-59782622D01*
X123782570Y-59782623D01*
X123782569Y-59782623D01*
X123554903Y-59876925D01*
X123313214Y-59925000D01*
X123066786Y-59925000D01*
X122825097Y-59876925D01*
X122597431Y-59782623D01*
X122597430Y-59782623D01*
X122597429Y-59782622D01*
X122392534Y-59645715D01*
X122218285Y-59471466D01*
X122081378Y-59266571D01*
X121987075Y-59038903D01*
X121939000Y-58797213D01*
X121939000Y-58550787D01*
X121987075Y-58309097D01*
X122081377Y-58081431D01*
X122212846Y-57884674D01*
X122218285Y-57876534D01*
X122392534Y-57702285D01*
X122597429Y-57565378D01*
X122825097Y-57471075D01*
X123066786Y-57423000D01*
X123313214Y-57423000D01*
X123554903Y-57471075D01*
G37*
G36*
X53876905Y-55528789D02*
G01*
X54175350Y-55588153D01*
X54503122Y-55723921D01*
X54798109Y-55921025D01*
X55048975Y-56171891D01*
X55246079Y-56466878D01*
X55381847Y-56794650D01*
X55451060Y-57142611D01*
X55451060Y-57497389D01*
X55381847Y-57845350D01*
X55246079Y-58173122D01*
X55048975Y-58468109D01*
X54798109Y-58718975D01*
X54503122Y-58916079D01*
X54175350Y-59051847D01*
X53876905Y-59111211D01*
X53827390Y-59121060D01*
X53472610Y-59121060D01*
X53423095Y-59111211D01*
X53124650Y-59051847D01*
X52796878Y-58916079D01*
X52501891Y-58718975D01*
X52251025Y-58468109D01*
X52053921Y-58173122D01*
X51918153Y-57845350D01*
X51848940Y-57497389D01*
X51848940Y-57142611D01*
X51918153Y-56794650D01*
X52053921Y-56466878D01*
X52251025Y-56171891D01*
X52501891Y-55921025D01*
X52796878Y-55723921D01*
X53124650Y-55588153D01*
X53423095Y-55528789D01*
X53472610Y-55518940D01*
X53827390Y-55518940D01*
X53876905Y-55528789D01*
G37*
G36*
X115110585Y-55628802D02*
G01*
X115260410Y-55658604D01*
X115542674Y-55775521D01*
X115796705Y-55945259D01*
X116012741Y-56161295D01*
X116182479Y-56415326D01*
X116299396Y-56697590D01*
X116359000Y-56997240D01*
X116359000Y-57302760D01*
X116299396Y-57602410D01*
X116182479Y-57884674D01*
X116012741Y-58138705D01*
X115796705Y-58354741D01*
X115542674Y-58524479D01*
X115260410Y-58641396D01*
X115110585Y-58671198D01*
X114960761Y-58701000D01*
X114655239Y-58701000D01*
X114505415Y-58671198D01*
X114355590Y-58641396D01*
X114073326Y-58524479D01*
X113819295Y-58354741D01*
X113603259Y-58138705D01*
X113433521Y-57884674D01*
X113316604Y-57602410D01*
X113257000Y-57302760D01*
X113257000Y-56997240D01*
X113316604Y-56697590D01*
X113433521Y-56415326D01*
X113603259Y-56161295D01*
X113819295Y-55945259D01*
X114073326Y-55775521D01*
X114355590Y-55658604D01*
X114505415Y-55628802D01*
X114655239Y-55599000D01*
X114960761Y-55599000D01*
X115110585Y-55628802D01*
G37*
G36*
X62538585Y-55628802D02*
G01*
X62688410Y-55658604D01*
X62970674Y-55775521D01*
X63224705Y-55945259D01*
X63440741Y-56161295D01*
X63610479Y-56415326D01*
X63727396Y-56697590D01*
X63787000Y-56997240D01*
X63787000Y-57302760D01*
X63727396Y-57602410D01*
X63610479Y-57884674D01*
X63440741Y-58138705D01*
X63224705Y-58354741D01*
X62970674Y-58524479D01*
X62688410Y-58641396D01*
X62538585Y-58671198D01*
X62388761Y-58701000D01*
X62083239Y-58701000D01*
X61933415Y-58671198D01*
X61783590Y-58641396D01*
X61501326Y-58524479D01*
X61247295Y-58354741D01*
X61031259Y-58138705D01*
X60861521Y-57884674D01*
X60744604Y-57602410D01*
X60685000Y-57302760D01*
X60685000Y-56997240D01*
X60744604Y-56697590D01*
X60861521Y-56415326D01*
X61031259Y-56161295D01*
X61247295Y-55945259D01*
X61501326Y-55775521D01*
X61783590Y-55658604D01*
X61933415Y-55628802D01*
X62083239Y-55599000D01*
X62388761Y-55599000D01*
X62538585Y-55628802D01*
G37*
G36*
X85138585Y-55628802D02*
G01*
X85288410Y-55658604D01*
X85570674Y-55775521D01*
X85824705Y-55945259D01*
X86040741Y-56161295D01*
X86210479Y-56415326D01*
X86327396Y-56697590D01*
X86387000Y-56997240D01*
X86387000Y-57302760D01*
X86327396Y-57602410D01*
X86210479Y-57884674D01*
X86040741Y-58138705D01*
X85824705Y-58354741D01*
X85570674Y-58524479D01*
X85288410Y-58641396D01*
X85138585Y-58671198D01*
X84988761Y-58701000D01*
X84683239Y-58701000D01*
X84533415Y-58671198D01*
X84383590Y-58641396D01*
X84101326Y-58524479D01*
X83847295Y-58354741D01*
X83631259Y-58138705D01*
X83461521Y-57884674D01*
X83344604Y-57602410D01*
X83285000Y-57302760D01*
X83285000Y-56997240D01*
X83344604Y-56697590D01*
X83461521Y-56415326D01*
X83631259Y-56161295D01*
X83847295Y-55945259D01*
X84101326Y-55775521D01*
X84383590Y-55658604D01*
X84533415Y-55628802D01*
X84683239Y-55599000D01*
X84988761Y-55599000D01*
X85138585Y-55628802D01*
G37*
G36*
X130833060Y-58697060D02*
G01*
X127230940Y-58697060D01*
X127230940Y-55094940D01*
X130833060Y-55094940D01*
X130833060Y-58697060D01*
G37*
M02*
