G04 #@! TF.GenerationSoftware,KiCad,Pcbnew,(5.1.5)-3*
G04 #@! TF.CreationDate,2020-06-01T21:11:24-07:00*
G04 #@! TF.ProjectId,MTTP Charge Controller,4d545450-2043-4686-9172-676520436f6e,rev?*
G04 #@! TF.SameCoordinates,Original*
G04 #@! TF.FileFunction,Legend,Bot*
G04 #@! TF.FilePolarity,Positive*
%FSLAX46Y46*%
G04 Gerber Fmt 4.6, Leading zero omitted, Abs format (unit mm)*
G04 Created by KiCad (PCBNEW (5.1.5)-3) date 2020-06-01 21:11:24*
%MOMM*%
%LPD*%
G04 APERTURE LIST*
%ADD10C,0.130000*%
G04 APERTURE END LIST*
D10*
X131043023Y-107332904D02*
X131043023Y-106532904D01*
X130776357Y-107104333D01*
X130509690Y-106532904D01*
X130509690Y-107332904D01*
X130128738Y-107332904D02*
X130128738Y-106532904D01*
X129823976Y-106532904D01*
X129747785Y-106571000D01*
X129709690Y-106609095D01*
X129671595Y-106685285D01*
X129671595Y-106799571D01*
X129709690Y-106875761D01*
X129747785Y-106913857D01*
X129823976Y-106951952D01*
X130128738Y-106951952D01*
X129328738Y-107332904D02*
X129328738Y-106532904D01*
X129023976Y-106532904D01*
X128947785Y-106571000D01*
X128909690Y-106609095D01*
X128871595Y-106685285D01*
X128871595Y-106799571D01*
X128909690Y-106875761D01*
X128947785Y-106913857D01*
X129023976Y-106951952D01*
X129328738Y-106951952D01*
X128643023Y-106532904D02*
X128185880Y-106532904D01*
X128414452Y-107332904D02*
X128414452Y-106532904D01*
X126852547Y-107256714D02*
X126890642Y-107294809D01*
X127004928Y-107332904D01*
X127081119Y-107332904D01*
X127195404Y-107294809D01*
X127271595Y-107218619D01*
X127309690Y-107142428D01*
X127347785Y-106990047D01*
X127347785Y-106875761D01*
X127309690Y-106723380D01*
X127271595Y-106647190D01*
X127195404Y-106571000D01*
X127081119Y-106532904D01*
X127004928Y-106532904D01*
X126890642Y-106571000D01*
X126852547Y-106609095D01*
X126509690Y-107332904D02*
X126509690Y-106532904D01*
X126166833Y-107332904D02*
X126166833Y-106913857D01*
X126204928Y-106837666D01*
X126281119Y-106799571D01*
X126395404Y-106799571D01*
X126471595Y-106837666D01*
X126509690Y-106875761D01*
X125443023Y-107332904D02*
X125443023Y-106913857D01*
X125481119Y-106837666D01*
X125557309Y-106799571D01*
X125709690Y-106799571D01*
X125785880Y-106837666D01*
X125443023Y-107294809D02*
X125519214Y-107332904D01*
X125709690Y-107332904D01*
X125785880Y-107294809D01*
X125823976Y-107218619D01*
X125823976Y-107142428D01*
X125785880Y-107066238D01*
X125709690Y-107028142D01*
X125519214Y-107028142D01*
X125443023Y-106990047D01*
X125062071Y-107332904D02*
X125062071Y-106799571D01*
X125062071Y-106951952D02*
X125023976Y-106875761D01*
X124985880Y-106837666D01*
X124909690Y-106799571D01*
X124833500Y-106799571D01*
X124223976Y-106799571D02*
X124223976Y-107447190D01*
X124262071Y-107523380D01*
X124300166Y-107561476D01*
X124376357Y-107599571D01*
X124490642Y-107599571D01*
X124566833Y-107561476D01*
X124223976Y-107294809D02*
X124300166Y-107332904D01*
X124452547Y-107332904D01*
X124528738Y-107294809D01*
X124566833Y-107256714D01*
X124604928Y-107180523D01*
X124604928Y-106951952D01*
X124566833Y-106875761D01*
X124528738Y-106837666D01*
X124452547Y-106799571D01*
X124300166Y-106799571D01*
X124223976Y-106837666D01*
X123538261Y-107294809D02*
X123614452Y-107332904D01*
X123766833Y-107332904D01*
X123843023Y-107294809D01*
X123881119Y-107218619D01*
X123881119Y-106913857D01*
X123843023Y-106837666D01*
X123766833Y-106799571D01*
X123614452Y-106799571D01*
X123538261Y-106837666D01*
X123500166Y-106913857D01*
X123500166Y-106990047D01*
X123881119Y-107066238D01*
X122090642Y-107256714D02*
X122128738Y-107294809D01*
X122243023Y-107332904D01*
X122319214Y-107332904D01*
X122433500Y-107294809D01*
X122509690Y-107218619D01*
X122547785Y-107142428D01*
X122585880Y-106990047D01*
X122585880Y-106875761D01*
X122547785Y-106723380D01*
X122509690Y-106647190D01*
X122433500Y-106571000D01*
X122319214Y-106532904D01*
X122243023Y-106532904D01*
X122128738Y-106571000D01*
X122090642Y-106609095D01*
X121633500Y-107332904D02*
X121709690Y-107294809D01*
X121747785Y-107256714D01*
X121785880Y-107180523D01*
X121785880Y-106951952D01*
X121747785Y-106875761D01*
X121709690Y-106837666D01*
X121633500Y-106799571D01*
X121519214Y-106799571D01*
X121443023Y-106837666D01*
X121404928Y-106875761D01*
X121366833Y-106951952D01*
X121366833Y-107180523D01*
X121404928Y-107256714D01*
X121443023Y-107294809D01*
X121519214Y-107332904D01*
X121633500Y-107332904D01*
X121023976Y-106799571D02*
X121023976Y-107332904D01*
X121023976Y-106875761D02*
X120985880Y-106837666D01*
X120909690Y-106799571D01*
X120795404Y-106799571D01*
X120719214Y-106837666D01*
X120681119Y-106913857D01*
X120681119Y-107332904D01*
X120414452Y-106799571D02*
X120109690Y-106799571D01*
X120300166Y-106532904D02*
X120300166Y-107218619D01*
X120262071Y-107294809D01*
X120185880Y-107332904D01*
X120109690Y-107332904D01*
X119843023Y-107332904D02*
X119843023Y-106799571D01*
X119843023Y-106951952D02*
X119804928Y-106875761D01*
X119766833Y-106837666D01*
X119690642Y-106799571D01*
X119614452Y-106799571D01*
X119233500Y-107332904D02*
X119309690Y-107294809D01*
X119347785Y-107256714D01*
X119385880Y-107180523D01*
X119385880Y-106951952D01*
X119347785Y-106875761D01*
X119309690Y-106837666D01*
X119233500Y-106799571D01*
X119119214Y-106799571D01*
X119043023Y-106837666D01*
X119004928Y-106875761D01*
X118966833Y-106951952D01*
X118966833Y-107180523D01*
X119004928Y-107256714D01*
X119043023Y-107294809D01*
X119119214Y-107332904D01*
X119233500Y-107332904D01*
X118509690Y-107332904D02*
X118585880Y-107294809D01*
X118623976Y-107218619D01*
X118623976Y-106532904D01*
X118090642Y-107332904D02*
X118166833Y-107294809D01*
X118204928Y-107218619D01*
X118204928Y-106532904D01*
X117481119Y-107294809D02*
X117557309Y-107332904D01*
X117709690Y-107332904D01*
X117785880Y-107294809D01*
X117823976Y-107218619D01*
X117823976Y-106913857D01*
X117785880Y-106837666D01*
X117709690Y-106799571D01*
X117557309Y-106799571D01*
X117481119Y-106837666D01*
X117443023Y-106913857D01*
X117443023Y-106990047D01*
X117823976Y-107066238D01*
X117100166Y-107332904D02*
X117100166Y-106799571D01*
X117100166Y-106951952D02*
X117062071Y-106875761D01*
X117023976Y-106837666D01*
X116947785Y-106799571D01*
X116871595Y-106799571D01*
X130814452Y-107862904D02*
X130814452Y-108434333D01*
X130852547Y-108548619D01*
X130928738Y-108624809D01*
X131043023Y-108662904D01*
X131119214Y-108662904D01*
X130319214Y-108662904D02*
X130395404Y-108624809D01*
X130433500Y-108586714D01*
X130471595Y-108510523D01*
X130471595Y-108281952D01*
X130433500Y-108205761D01*
X130395404Y-108167666D01*
X130319214Y-108129571D01*
X130204928Y-108129571D01*
X130128738Y-108167666D01*
X130090642Y-108205761D01*
X130052547Y-108281952D01*
X130052547Y-108510523D01*
X130090642Y-108586714D01*
X130128738Y-108624809D01*
X130204928Y-108662904D01*
X130319214Y-108662904D01*
X129747785Y-108624809D02*
X129671595Y-108662904D01*
X129519214Y-108662904D01*
X129443023Y-108624809D01*
X129404928Y-108548619D01*
X129404928Y-108510523D01*
X129443023Y-108434333D01*
X129519214Y-108396238D01*
X129633500Y-108396238D01*
X129709690Y-108358142D01*
X129747785Y-108281952D01*
X129747785Y-108243857D01*
X129709690Y-108167666D01*
X129633500Y-108129571D01*
X129519214Y-108129571D01*
X129443023Y-108167666D01*
X129062071Y-108662904D02*
X129062071Y-107862904D01*
X128719214Y-108662904D02*
X128719214Y-108243857D01*
X128757309Y-108167666D01*
X128833500Y-108129571D01*
X128947785Y-108129571D01*
X129023976Y-108167666D01*
X129062071Y-108205761D01*
X127995404Y-108129571D02*
X127995404Y-108662904D01*
X128338261Y-108129571D02*
X128338261Y-108548619D01*
X128300166Y-108624809D01*
X128223976Y-108662904D01*
X128109690Y-108662904D01*
X128033500Y-108624809D01*
X127995404Y-108586714D01*
X127271595Y-108662904D02*
X127271595Y-108243857D01*
X127309690Y-108167666D01*
X127385880Y-108129571D01*
X127538261Y-108129571D01*
X127614452Y-108167666D01*
X127271595Y-108624809D02*
X127347785Y-108662904D01*
X127538261Y-108662904D01*
X127614452Y-108624809D01*
X127652547Y-108548619D01*
X127652547Y-108472428D01*
X127614452Y-108396238D01*
X127538261Y-108358142D01*
X127347785Y-108358142D01*
X127271595Y-108320047D01*
X126319214Y-108624809D02*
X126204928Y-108662904D01*
X126014452Y-108662904D01*
X125938261Y-108624809D01*
X125900166Y-108586714D01*
X125862071Y-108510523D01*
X125862071Y-108434333D01*
X125900166Y-108358142D01*
X125938261Y-108320047D01*
X126014452Y-108281952D01*
X126166833Y-108243857D01*
X126243023Y-108205761D01*
X126281119Y-108167666D01*
X126319214Y-108091476D01*
X126319214Y-108015285D01*
X126281119Y-107939095D01*
X126243023Y-107901000D01*
X126166833Y-107862904D01*
X125976357Y-107862904D01*
X125862071Y-107901000D01*
X125519214Y-108662904D02*
X125519214Y-108129571D01*
X125519214Y-107862904D02*
X125557309Y-107901000D01*
X125519214Y-107939095D01*
X125481119Y-107901000D01*
X125519214Y-107862904D01*
X125519214Y-107939095D01*
X125023976Y-108662904D02*
X125100166Y-108624809D01*
X125138261Y-108548619D01*
X125138261Y-107862904D01*
X124795404Y-108129571D02*
X124604928Y-108662904D01*
X124414452Y-108129571D01*
X123804928Y-108624809D02*
X123881119Y-108662904D01*
X124033500Y-108662904D01*
X124109690Y-108624809D01*
X124147785Y-108548619D01*
X124147785Y-108243857D01*
X124109690Y-108167666D01*
X124033500Y-108129571D01*
X123881119Y-108129571D01*
X123804928Y-108167666D01*
X123766833Y-108243857D01*
X123766833Y-108320047D01*
X124147785Y-108396238D01*
X123423976Y-108662904D02*
X123423976Y-108129571D01*
X123423976Y-108281952D02*
X123385880Y-108205761D01*
X123347785Y-108167666D01*
X123271595Y-108129571D01*
X123195404Y-108129571D01*
X131043023Y-109573857D02*
X130776357Y-109573857D01*
X130662071Y-109992904D02*
X131043023Y-109992904D01*
X131043023Y-109192904D01*
X130662071Y-109192904D01*
X130319214Y-109992904D02*
X130319214Y-109192904D01*
X129862071Y-109992904D01*
X129862071Y-109192904D01*
X129062071Y-109231000D02*
X129138261Y-109192904D01*
X129252547Y-109192904D01*
X129366833Y-109231000D01*
X129443023Y-109307190D01*
X129481119Y-109383380D01*
X129519214Y-109535761D01*
X129519214Y-109650047D01*
X129481119Y-109802428D01*
X129443023Y-109878619D01*
X129366833Y-109954809D01*
X129252547Y-109992904D01*
X129176357Y-109992904D01*
X129062071Y-109954809D01*
X129023976Y-109916714D01*
X129023976Y-109650047D01*
X129176357Y-109650047D01*
X128223976Y-109992904D02*
X128490642Y-109611952D01*
X128681119Y-109992904D02*
X128681119Y-109192904D01*
X128376357Y-109192904D01*
X128300166Y-109231000D01*
X128262071Y-109269095D01*
X128223976Y-109345285D01*
X128223976Y-109459571D01*
X128262071Y-109535761D01*
X128300166Y-109573857D01*
X128376357Y-109611952D01*
X128681119Y-109611952D01*
X126928738Y-109459571D02*
X126928738Y-109992904D01*
X127119214Y-109154809D02*
X127309690Y-109726238D01*
X126814452Y-109726238D01*
X126166833Y-109192904D02*
X126319214Y-109192904D01*
X126395404Y-109231000D01*
X126433500Y-109269095D01*
X126509690Y-109383380D01*
X126547785Y-109535761D01*
X126547785Y-109840523D01*
X126509690Y-109916714D01*
X126471595Y-109954809D01*
X126395404Y-109992904D01*
X126243023Y-109992904D01*
X126166833Y-109954809D01*
X126128738Y-109916714D01*
X126090642Y-109840523D01*
X126090642Y-109650047D01*
X126128738Y-109573857D01*
X126166833Y-109535761D01*
X126243023Y-109497666D01*
X126395404Y-109497666D01*
X126471595Y-109535761D01*
X126509690Y-109573857D01*
X126547785Y-109650047D01*
X125595404Y-109192904D02*
X125519214Y-109192904D01*
X125443023Y-109231000D01*
X125404928Y-109269095D01*
X125366833Y-109345285D01*
X125328738Y-109497666D01*
X125328738Y-109688142D01*
X125366833Y-109840523D01*
X125404928Y-109916714D01*
X125443023Y-109954809D01*
X125519214Y-109992904D01*
X125595404Y-109992904D01*
X125671595Y-109954809D01*
X125709690Y-109916714D01*
X125747785Y-109840523D01*
X125785880Y-109688142D01*
X125785880Y-109497666D01*
X125747785Y-109345285D01*
X125709690Y-109269095D01*
X125671595Y-109231000D01*
X125595404Y-109192904D01*
X130585880Y-111322904D02*
X130852547Y-110941952D01*
X131043023Y-111322904D02*
X131043023Y-110522904D01*
X130738261Y-110522904D01*
X130662071Y-110561000D01*
X130623976Y-110599095D01*
X130585880Y-110675285D01*
X130585880Y-110789571D01*
X130623976Y-110865761D01*
X130662071Y-110903857D01*
X130738261Y-110941952D01*
X131043023Y-110941952D01*
X130128738Y-111322904D02*
X130204928Y-111284809D01*
X130243023Y-111246714D01*
X130281119Y-111170523D01*
X130281119Y-110941952D01*
X130243023Y-110865761D01*
X130204928Y-110827666D01*
X130128738Y-110789571D01*
X130014452Y-110789571D01*
X129938261Y-110827666D01*
X129900166Y-110865761D01*
X129862071Y-110941952D01*
X129862071Y-111170523D01*
X129900166Y-111246714D01*
X129938261Y-111284809D01*
X130014452Y-111322904D01*
X130128738Y-111322904D01*
X129519214Y-111322904D02*
X129519214Y-110522904D01*
X129519214Y-110827666D02*
X129443023Y-110789571D01*
X129290642Y-110789571D01*
X129214452Y-110827666D01*
X129176357Y-110865761D01*
X129138261Y-110941952D01*
X129138261Y-111170523D01*
X129176357Y-111246714D01*
X129214452Y-111284809D01*
X129290642Y-111322904D01*
X129443023Y-111322904D01*
X129519214Y-111284809D01*
X127919214Y-110903857D02*
X128185880Y-110903857D01*
X128185880Y-111322904D02*
X128185880Y-110522904D01*
X127804928Y-110522904D01*
X127500166Y-111322904D02*
X127500166Y-110789571D01*
X127500166Y-110941952D02*
X127462071Y-110865761D01*
X127423976Y-110827666D01*
X127347785Y-110789571D01*
X127271595Y-110789571D01*
X126890642Y-111322904D02*
X126966833Y-111284809D01*
X127004928Y-111246714D01*
X127043023Y-111170523D01*
X127043023Y-110941952D01*
X127004928Y-110865761D01*
X126966833Y-110827666D01*
X126890642Y-110789571D01*
X126776357Y-110789571D01*
X126700166Y-110827666D01*
X126662071Y-110865761D01*
X126623976Y-110941952D01*
X126623976Y-111170523D01*
X126662071Y-111246714D01*
X126700166Y-111284809D01*
X126776357Y-111322904D01*
X126890642Y-111322904D01*
X126281119Y-111322904D02*
X126281119Y-110522904D01*
X125938261Y-111322904D02*
X125938261Y-110903857D01*
X125976357Y-110827666D01*
X126052547Y-110789571D01*
X126166833Y-110789571D01*
X126243023Y-110827666D01*
X126281119Y-110865761D01*
X125557309Y-110789571D02*
X125557309Y-111322904D01*
X125557309Y-110865761D02*
X125519214Y-110827666D01*
X125443023Y-110789571D01*
X125328738Y-110789571D01*
X125252547Y-110827666D01*
X125214452Y-110903857D01*
X125214452Y-111322904D01*
X124528738Y-111284809D02*
X124604928Y-111322904D01*
X124757309Y-111322904D01*
X124833500Y-111284809D01*
X124871595Y-111208619D01*
X124871595Y-110903857D01*
X124833500Y-110827666D01*
X124757309Y-110789571D01*
X124604928Y-110789571D01*
X124528738Y-110827666D01*
X124490642Y-110903857D01*
X124490642Y-110980047D01*
X124871595Y-111056238D01*
M02*
